<svg width="1121" height="900" viewBox="0 0 1121 900" fill="none" xmlns="http://www.w3.org/2000/svg">
<path d="M44.0968 -0.209506C46.5858 -0.602508 49.566 -0.89726 53.0375 -1.09376C56.5745 -1.29026 59.653 -1.3885 62.273 -1.3885C64.762 -1.3885 67.775 -1.2575 71.312 -0.995507C74.849 -0.799006 77.8948 -0.471506 80.4493 -0.0130081L122.697 131.937C120.535 133.181 117.719 134.131 114.247 134.786C110.841 135.441 107.665 135.769 104.717 135.769C99.739 135.769 95.8418 134.622 93.0253 132.33C90.2088 129.972 87.8508 125.419 85.9513 118.673L71.9015 68.8602C70.395 63.3582 68.6265 56.8737 66.596 49.4067C64.5655 41.9397 62.7315 34.964 61.094 28.4795H59.915C59.26 32.1475 58.3758 36.2085 57.2623 40.6625C56.1488 45.1165 54.9698 49.5705 53.7253 54.0245C52.5463 58.413 51.4328 62.3757 50.3848 65.9127L30.3418 134.197C28.3768 134.655 26.248 134.95 23.9555 135.081C21.7285 135.277 19.4033 135.376 16.9798 135.376C14.6218 135.376 11.9363 135.179 8.92325 134.786C5.97575 134.393 3.61775 133.869 1.84925 133.214L0.67025 131.544L44.0968 -0.209506ZM46.4548 105.9C45.5378 105.9 44.457 105.9 43.2125 105.9C42.0335 105.835 40.8218 105.802 39.5773 105.802C38.3983 105.737 37.3503 105.704 36.4333 105.704H19.9273L29.4575 81.2397H43.9985C44.9155 81.2397 45.9635 81.2397 47.1425 81.2397C48.3215 81.1742 49.5005 81.1415 50.6795 81.1415C51.8585 81.076 52.9065 81.0432 53.8235 81.0432H68.168C69.085 81.0432 70.133 81.076 71.312 81.1415C72.491 81.1415 73.67 81.1742 74.849 81.2397C76.0935 81.2397 77.1743 81.2397 78.0913 81.2397H93.1235L101.082 105.704H84.4775C83.5605 105.704 82.4798 105.737 81.2353 105.802C80.0563 105.802 78.8445 105.835 77.6 105.9C76.421 105.9 75.373 105.9 74.456 105.9H46.4548ZM182.147 79.4712C182.213 74.4277 181.983 70.1375 181.459 66.6005C181.001 63.0635 179.953 60.378 178.315 58.544C176.678 56.71 174.156 55.793 170.75 55.793C166.165 55.793 162.988 58.1182 161.22 62.7687C159.517 67.4192 158.665 74.8862 158.665 85.1697C158.665 95.5842 160.106 102.822 162.988 106.883C165.87 110.944 170.095 112.974 175.663 112.974C179.527 112.974 183.326 112.156 187.06 110.518C190.793 108.815 194.199 106.883 197.278 104.721C199.701 106.097 202.059 108.553 204.352 112.09C206.644 115.562 208.151 118.804 208.871 121.817C204.483 126.402 198.817 130.07 191.874 132.821C184.996 135.572 177.922 136.948 170.652 136.948C163.578 136.948 157.355 135.736 151.984 133.312C146.613 130.823 142.094 127.319 138.426 122.799C134.758 118.28 131.974 112.843 130.075 106.49C128.241 100.136 127.324 93.0297 127.324 85.1697C127.324 75.6722 128.568 67.6157 131.057 61.0002C133.612 54.3192 137.018 48.9482 141.275 44.8872C145.533 40.7607 150.249 37.7477 155.423 35.8482C160.663 33.9487 165.969 32.999 171.34 32.999C176.842 32.999 181.918 33.785 186.568 35.357C191.284 36.929 195.345 39.156 198.751 42.038C202.223 44.92 204.908 48.3587 206.808 52.3542C208.707 56.3497 209.657 60.771 209.657 65.618C209.657 70.7925 208.216 74.5915 205.334 77.015C202.518 79.373 198.948 80.552 194.625 80.552C192.005 80.552 189.745 80.4865 187.846 80.3555C185.946 80.159 184.047 79.8642 182.147 79.4712ZM273.873 79.4712C273.938 74.4277 273.709 70.1375 273.185 66.6005C272.727 63.0635 271.679 60.378 270.041 58.544C268.404 56.71 265.882 55.793 262.476 55.793C257.891 55.793 254.714 58.1182 252.946 62.7687C251.243 67.4192 250.391 74.8862 250.391 85.1697C250.391 95.5842 251.832 102.822 254.714 106.883C257.596 110.944 261.821 112.974 267.388 112.974C271.253 112.974 275.052 112.156 278.785 110.518C282.519 108.815 285.925 106.883 289.003 104.721C291.427 106.097 293.785 108.553 296.077 112.09C298.37 115.562 299.876 118.804 300.597 121.817C296.208 126.402 290.543 130.07 283.6 132.821C276.722 135.572 269.648 136.948 262.378 136.948C255.304 136.948 249.081 135.736 243.71 133.312C238.339 130.823 233.82 127.319 230.152 122.799C226.484 118.28 223.7 112.843 221.8 106.49C219.966 100.136 219.049 93.0297 219.049 85.1697C219.049 75.6722 220.294 67.6157 222.783 61.0002C225.337 54.3192 228.743 48.9482 233.001 44.8872C237.258 40.7607 241.974 37.7477 247.149 35.8482C252.389 33.9487 257.694 32.999 263.065 32.999C268.567 32.999 273.644 33.785 278.294 35.357C283.01 36.929 287.071 39.156 290.477 42.038C293.949 44.92 296.634 48.3587 298.534 52.3542C300.433 56.3497 301.383 60.771 301.383 65.618C301.383 70.7925 299.942 74.5915 297.06 77.015C294.243 79.373 290.674 80.552 286.351 80.552C283.731 80.552 281.471 80.4865 279.571 80.3555C277.672 80.159 275.772 79.8642 273.873 79.4712ZM330.425 94.8965V73.7727H367.465V71.513C367.465 68.5 367.039 65.749 366.188 63.26C365.336 60.7055 363.961 58.675 362.061 57.1685C360.162 55.5965 357.673 54.8105 354.594 54.8105C349.813 54.8105 346.44 56.7755 344.475 60.7055C342.575 64.6355 341.625 70.6942 341.625 78.8817V88.1172C341.625 92.6367 342.018 96.8287 342.804 100.693C343.59 104.492 345.261 107.571 347.815 109.929C350.37 112.287 354.267 113.466 359.507 113.466C363.961 113.466 368.317 112.909 372.574 111.795C376.897 110.616 381.024 109.208 384.954 107.571C387.246 109.863 389.08 112.712 390.456 116.118C391.831 119.524 392.748 122.734 393.207 125.747C388.229 129.349 382.268 132.1 375.325 134C368.448 135.965 361.505 136.948 354.496 136.948C345.916 136.948 338.776 135.507 333.078 132.624C327.445 129.742 322.991 125.878 319.716 121.031C316.441 116.184 314.115 110.715 312.74 104.623C311.43 98.4662 310.775 92.1455 310.775 85.661C310.775 75.7705 312.249 66.8625 315.196 58.937C318.209 50.946 322.958 44.6252 329.442 39.9747C335.927 35.3242 344.376 32.999 354.791 32.999C363.371 32.999 370.707 34.833 376.799 38.501C382.956 42.169 387.639 47.147 390.849 53.435C394.124 59.723 395.761 66.797 395.761 74.657C395.761 79.0455 395.565 82.7135 395.172 85.661C394.779 88.543 394.091 91.6215 393.108 94.8965H330.425ZM406.194 127.221C406.325 123.946 407.209 120.278 408.847 116.217C410.55 112.156 412.515 108.946 414.742 106.588C419.065 108.815 423.519 110.747 428.104 112.385C432.754 113.957 437.372 114.743 441.957 114.743C445.756 114.743 448.605 114.088 450.505 112.778C452.47 111.468 453.452 109.83 453.452 107.865C453.452 105.966 452.732 104.296 451.291 102.855C449.915 101.348 447.656 100.038 444.512 98.9247L433.606 94.9947C428.955 93.2917 424.763 91.163 421.03 88.6085C417.362 85.9885 414.447 82.8117 412.286 79.0782C410.124 75.2792 409.043 70.7597 409.043 65.5197C409.043 58.8387 410.583 53.0747 413.661 48.2277C416.805 43.3807 421.226 39.6472 426.925 37.0272C432.623 34.3417 439.337 32.999 447.066 32.999C453.223 32.999 459.708 33.8505 466.52 35.5535C473.397 37.2565 478.965 39.156 483.222 41.252C483.353 43.6755 483.026 46.3282 482.24 49.2102C481.519 52.0267 480.504 54.6467 479.194 57.0702C477.884 59.4937 476.41 61.3277 474.773 62.5722C470.712 60.7382 466.29 59.068 461.509 57.5615C456.727 55.9895 452.011 55.2035 447.361 55.2035C444.675 55.2035 442.645 55.8257 441.269 57.0702C439.959 58.3147 439.304 59.7885 439.304 61.4915C439.304 63.1945 439.894 64.6355 441.073 65.8145C442.252 66.9935 444.151 68.0415 446.771 68.9585L458.954 73.2815C466.421 75.967 472.644 79.8315 477.622 84.875C482.6 89.853 485.089 96.534 485.089 104.918C485.089 114.677 481.323 122.472 473.79 128.301C466.323 134.066 455.941 136.948 442.645 136.948C435.636 136.948 428.955 135.998 422.602 134.098C416.314 132.199 410.845 129.906 406.194 127.221ZM493.314 127.221C493.445 123.946 494.329 120.278 495.967 116.217C497.67 112.156 499.635 108.946 501.862 106.588C506.185 108.815 510.639 110.747 515.224 112.385C519.874 113.957 524.492 114.743 529.077 114.743C532.876 114.743 535.725 114.088 537.625 112.778C539.59 111.468 540.572 109.83 540.572 107.865C540.572 105.966 539.852 104.296 538.411 102.855C537.035 101.348 534.776 100.038 531.632 98.9247L520.726 94.9947C516.075 93.2917 511.883 91.163 508.15 88.6085C504.482 85.9885 501.567 82.8117 499.406 79.0782C497.244 75.2792 496.163 70.7597 496.163 65.5197C496.163 58.8387 497.703 53.0747 500.781 48.2277C503.925 43.3807 508.346 39.6472 514.045 37.0272C519.743 34.3417 526.457 32.999 534.186 32.999C540.343 32.999 546.828 33.8505 553.64 35.5535C560.517 37.2565 566.085 39.156 570.342 41.252C570.473 43.6755 570.146 46.3282 569.36 49.2102C568.639 52.0267 567.624 54.6467 566.314 57.0702C565.004 59.4937 563.53 61.3277 561.893 62.5722C557.832 60.7382 553.41 59.068 548.629 57.5615C543.847 55.9895 539.131 55.2035 534.481 55.2035C531.795 55.2035 529.765 55.8257 528.389 57.0702C527.079 58.3147 526.424 59.7885 526.424 61.4915C526.424 63.1945 527.014 64.6355 528.193 65.8145C529.372 66.9935 531.271 68.0415 533.891 68.9585L546.074 73.2815C553.541 75.967 559.764 79.8315 564.742 84.875C569.72 89.853 572.209 96.534 572.209 104.918C572.209 114.677 568.443 122.472 560.91 128.301C553.443 134.066 543.061 136.948 529.765 136.948C522.756 136.948 516.075 135.998 509.722 134.098C503.434 132.199 497.965 129.906 493.314 127.221ZM14.327 240.79C16.8815 240.332 19.6653 240.037 22.6783 239.906C25.6913 239.71 28.1803 239.611 30.1453 239.611C32.2413 239.611 34.7303 239.71 37.6123 239.906C40.4943 240.037 43.2453 240.332 45.8653 240.79V375C43.2453 375.459 40.4943 375.753 37.6123 375.884C34.7303 376.081 32.2413 376.179 30.1453 376.179C28.1803 376.179 25.6913 376.081 22.6783 375.884C19.6653 375.753 16.8815 375.459 14.327 375V240.79ZM86.0265 275.571C91.9215 275.571 96.3427 277.569 99.2902 281.564C102.303 285.56 103.81 290.996 103.81 297.874V375C101.648 375.393 99.192 375.688 96.441 375.884C93.7555 376.081 91.1027 376.179 88.4827 376.179C85.9282 376.179 83.2755 376.081 80.5245 375.884C77.7735 375.688 75.2845 375.393 73.0575 375V276.946L74.433 275.571H86.0265ZM157.552 350.438C157.552 354.302 157.913 357.904 158.633 361.245C159.354 364.52 160.631 367.435 162.465 369.989C160.172 371.889 157.356 373.461 154.015 374.705C150.675 375.95 147.105 376.572 143.306 376.572C137.149 376.572 132.859 374.934 130.435 371.659C128.012 368.384 126.8 363.668 126.8 357.511V315.755C126.8 311.301 126.211 308.026 125.032 305.93C123.918 303.769 121.724 302.688 118.449 302.688C116.418 302.688 114.06 303.245 111.375 304.358C108.689 305.472 106.037 307.273 103.417 309.762C100.797 312.185 98.4715 315.46 96.441 319.587V292.666C101.026 288.212 106.004 284.184 111.375 280.582C116.811 276.979 123.034 275.178 130.042 275.178C136.003 275.178 141.014 276.684 145.075 279.697C149.201 282.645 152.312 286.739 154.408 291.979C156.504 297.219 157.552 303.277 157.552 310.155V350.438ZM229.545 320.471C229.611 315.428 229.381 311.137 228.857 307.6C228.399 304.063 227.351 301.378 225.713 299.544C224.076 297.71 221.554 296.793 218.148 296.793C213.563 296.793 210.386 299.118 208.618 303.769C206.915 308.419 206.063 315.886 206.063 326.17C206.063 336.584 207.504 343.822 210.386 347.883C213.268 351.944 217.493 353.974 223.061 353.974C226.925 353.974 230.724 353.156 234.458 351.518C238.191 349.815 241.597 347.883 244.676 345.721C247.099 347.097 249.457 349.553 251.75 353.09C254.042 356.562 255.549 359.804 256.269 362.817C251.881 367.402 246.215 371.07 239.272 373.821C232.394 376.572 225.32 377.948 218.05 377.948C210.976 377.948 204.753 376.736 199.382 374.312C194.011 371.823 189.492 368.319 185.824 363.799C182.156 359.28 179.372 353.843 177.473 347.49C175.639 341.136 174.722 334.03 174.722 326.17C174.722 316.672 175.966 308.616 178.455 302C181.01 295.319 184.416 289.948 188.673 285.887C192.931 281.761 197.647 278.748 202.821 276.848C208.061 274.949 213.367 273.999 218.738 273.999C224.24 273.999 229.316 274.785 233.966 276.357C238.682 277.929 242.743 280.156 246.149 283.038C249.621 285.92 252.306 289.359 254.206 293.354C256.105 297.35 257.055 301.771 257.055 306.618C257.055 311.792 255.614 315.591 252.732 318.015C249.916 320.373 246.346 321.552 242.023 321.552C239.403 321.552 237.143 321.486 235.244 321.355C233.344 321.159 231.445 320.864 229.545 320.471ZM317.5 352.599C319.138 357.315 319.957 362.162 319.957 367.14C319.957 368.253 319.891 369.432 319.76 370.677C319.695 371.921 319.498 373.035 319.171 374.017C316.223 374.541 312.883 375 309.149 375.393C305.481 375.786 301.78 375.983 298.047 375.983C289.139 375.983 282.818 373.788 279.085 369.4C275.417 364.946 273.583 358.035 273.583 348.669V231.751L274.958 230.376H286.945C292.971 230.376 297.228 231.751 299.717 234.502C302.272 237.253 303.549 242.035 303.549 248.847V343.265C303.549 346.278 304.204 348.603 305.514 350.241C306.824 351.813 309.018 352.599 312.097 352.599H317.5ZM416.695 346.999C416.695 350.143 417.186 352.992 418.168 355.546C419.216 358.101 420.559 359.968 422.197 361.147C421.673 363.898 420.461 366.78 418.561 369.793C416.662 372.806 414.762 375.066 412.863 376.572C404.151 376.376 397.503 373.395 392.918 367.631C388.333 361.802 386.041 354.793 386.041 346.606V276.946C388.137 276.553 390.56 276.259 393.311 276.062C396.062 275.866 398.748 275.768 401.368 275.768C403.922 275.768 406.542 275.866 409.228 276.062C411.979 276.259 414.468 276.553 416.695 276.946V346.999ZM332.298 301.509C332.298 297.644 331.905 294.042 331.119 290.701C330.398 287.361 329.154 284.446 327.385 281.957C329.612 280.058 332.396 278.486 335.737 277.241C339.077 275.997 342.68 275.374 346.544 275.374C352.701 275.374 356.959 277.012 359.317 280.287C361.74 283.562 362.952 288.245 362.952 294.337V336.191C362.952 340.645 363.541 343.92 364.72 346.016C365.899 348.112 368.126 349.16 371.401 349.16C373.432 349.16 375.757 348.636 378.377 347.588C381.063 346.475 383.715 344.706 386.335 342.283C389.021 339.794 391.346 336.486 393.311 332.359V359.182C388.726 363.701 383.715 367.762 378.279 371.365C372.908 374.967 366.751 376.769 359.808 376.769C353.782 376.769 348.738 375.295 344.677 372.347C340.616 369.334 337.538 365.208 335.442 359.968C333.346 354.662 332.298 348.603 332.298 341.791V301.509ZM432.676 368.221C432.807 364.946 433.691 361.278 435.328 357.217C437.031 353.156 438.996 349.946 441.223 347.588C445.546 349.815 450 351.747 454.585 353.385C459.236 354.957 463.854 355.743 468.439 355.743C472.238 355.743 475.087 355.088 476.986 353.778C478.951 352.468 479.934 350.83 479.934 348.865C479.934 346.966 479.213 345.296 477.772 343.855C476.397 342.348 474.137 341.038 470.993 339.925L460.087 335.995C455.437 334.292 451.245 332.163 447.511 329.608C443.843 326.988 440.929 323.812 438.767 320.078C436.606 316.279 435.525 311.76 435.525 306.52C435.525 299.839 437.064 294.075 440.143 289.228C443.287 284.381 447.708 280.647 453.406 278.027C459.105 275.342 465.819 273.999 473.548 273.999C479.705 273.999 486.189 274.85 493.001 276.553C499.879 278.256 505.446 280.156 509.704 282.252C509.835 284.675 509.507 287.328 508.721 290.21C508.001 293.027 506.985 295.647 505.675 298.07C504.365 300.494 502.892 302.328 501.254 303.572C497.193 301.738 492.772 300.068 487.99 298.561C483.209 296.989 478.493 296.203 473.842 296.203C471.157 296.203 469.126 296.826 467.751 298.07C466.441 299.315 465.786 300.788 465.786 302.491C465.786 304.194 466.375 305.635 467.554 306.814C468.733 307.993 470.633 309.041 473.253 309.958L485.436 314.281C492.903 316.967 499.125 320.831 504.103 325.875C509.081 330.853 511.57 337.534 511.57 345.918C511.57 355.677 507.804 363.472 500.272 369.301C492.805 375.066 482.423 377.948 469.126 377.948C462.118 377.948 455.437 376.998 449.083 375.098C442.795 373.199 437.326 370.906 432.676 368.221ZM563.985 375C561.824 375.393 559.367 375.688 556.616 375.884C553.931 376.081 551.278 376.179 548.658 376.179C546.104 376.179 543.451 376.081 540.7 375.884C538.014 375.688 535.525 375.393 533.233 375V309.958C533.233 306.683 532.545 303.965 531.17 301.804C529.86 299.642 527.469 298.561 523.997 298.561H521.05C520.198 295.352 519.773 291.88 519.773 288.147C519.773 286.444 519.871 284.643 520.067 282.743C520.264 280.778 520.591 278.911 521.05 277.143C524.063 276.815 527.141 276.586 530.285 276.455C533.495 276.259 536.18 276.16 538.342 276.16H542.567C549.117 276.16 554.324 278.289 558.188 282.547C562.053 286.739 563.985 292.437 563.985 299.642V375ZM527.338 249.338C527.338 245.277 528.091 241.445 529.598 237.843C531.301 236.991 533.495 236.271 536.18 235.681C538.931 235.092 541.617 234.797 544.237 234.797C546.857 234.797 549.575 235.092 552.392 235.681C555.208 236.271 557.37 236.991 558.876 237.843C559.597 239.677 560.153 241.609 560.546 243.64C560.939 245.67 561.136 247.57 561.136 249.338C561.136 253.334 560.383 257.133 558.876 260.735C557.37 261.587 555.208 262.307 552.392 262.897C549.575 263.486 546.857 263.781 544.237 263.781C541.617 263.781 538.899 263.519 536.082 262.995C533.331 262.405 531.17 261.652 529.598 260.735C528.091 257.133 527.338 253.334 527.338 249.338ZM672.129 325.973C672.129 336.453 670.393 345.59 666.922 353.385C663.45 361.179 658.341 367.238 651.595 371.561C644.848 375.819 636.563 377.948 626.738 377.948C616.782 377.948 608.43 375.786 601.684 371.463C594.937 367.14 589.861 361.081 586.455 353.287C583.049 345.492 581.346 336.388 581.346 325.973C581.346 315.428 583.049 306.29 586.455 298.561C589.927 290.767 595.036 284.741 601.782 280.483C608.529 276.16 616.847 273.999 626.738 273.999C636.694 273.999 645.012 276.16 651.693 280.483C658.44 284.806 663.516 290.865 666.922 298.66C670.393 306.389 672.129 315.493 672.129 325.973ZM612.884 325.973C612.884 331.344 613.179 336.224 613.769 340.612C614.424 345.001 615.734 348.505 617.699 351.125C619.664 353.68 622.677 354.957 626.738 354.957C630.733 354.957 633.713 353.68 635.678 351.125C637.709 348.505 639.019 345.001 639.608 340.612C640.263 336.224 640.591 331.344 640.591 325.973C640.591 320.537 640.263 315.624 639.608 311.236C639.019 306.847 637.709 303.376 635.678 300.821C633.713 298.201 630.733 296.891 626.738 296.891C622.677 296.891 619.664 298.201 617.699 300.821C615.734 303.376 614.424 306.847 613.769 311.236C613.179 315.624 612.884 320.537 612.884 325.973ZM702.775 275.571C708.67 275.571 713.092 277.569 716.039 281.564C719.052 285.56 720.559 290.996 720.559 297.874V375C718.397 375.393 715.941 375.688 713.19 375.884C710.504 376.081 707.852 376.179 705.232 376.179C702.677 376.179 700.024 376.081 697.273 375.884C694.522 375.688 692.033 375.393 689.806 375V276.946L691.182 275.571H702.775ZM774.301 350.438C774.301 354.302 774.662 357.904 775.382 361.245C776.103 364.52 777.38 367.435 779.214 369.989C776.921 371.889 774.105 373.461 770.764 374.705C767.424 375.95 763.854 376.572 760.055 376.572C753.898 376.572 749.608 374.934 747.184 371.659C744.761 368.384 743.549 363.668 743.549 357.511V315.755C743.549 311.301 742.96 308.026 741.781 305.93C740.667 303.769 738.473 302.688 735.198 302.688C733.167 302.688 730.809 303.245 728.124 304.358C725.438 305.472 722.786 307.273 720.166 309.762C717.546 312.185 715.22 315.46 713.19 319.587V292.666C717.775 288.212 722.753 284.184 728.124 280.582C733.56 276.979 739.783 275.178 746.792 275.178C752.752 275.178 757.763 276.684 761.824 279.697C765.95 282.645 769.061 286.739 771.157 291.979C773.253 297.219 774.301 303.277 774.301 310.155V350.438ZM109.04 527.378C109.04 537.662 106.944 546.275 102.752 553.218C98.6255 560.096 92.927 565.27 85.6565 568.742C78.4515 572.213 70.1985 573.949 60.8975 573.949H32.1103V550.958C33.8788 550.827 36.597 550.696 40.265 550.565C43.933 550.434 47.5028 550.336 50.9743 550.271C54.5113 550.14 56.9348 550.074 58.2448 550.074C63.4848 550.074 67.4475 548.83 70.133 546.341C72.8185 543.852 74.6198 540.871 75.5368 537.4C76.4538 533.863 76.9123 530.522 76.9123 527.378C76.9123 524.3 76.4538 521.025 75.5368 517.553C74.6198 514.016 72.8185 511.003 70.133 508.514C67.4475 506.025 63.4848 504.781 58.2448 504.781C56.2798 504.781 54.3148 504.781 52.3498 504.781C50.3848 504.715 48.0923 504.65 45.4723 504.584V616C42.8523 616.459 40.0685 616.753 37.121 616.884C34.239 617.081 31.75 617.179 29.654 617.179C27.7545 617.179 25.2983 617.081 22.2853 616.884C19.2723 616.753 16.4885 616.459 13.934 616V482.773L15.3095 481.397C23.6935 481.201 31.5208 481.037 38.7913 480.906C46.1273 480.71 53.496 480.611 60.8975 480.611C70.1985 480.611 78.4515 482.314 85.6565 485.72C92.927 489.061 98.6255 494.203 102.752 501.146C106.944 508.023 109.04 516.767 109.04 527.378ZM116.77 589.178C116.77 581.318 118.604 574.866 122.272 569.822C125.94 564.779 130.721 561.045 136.616 558.622C142.577 556.198 148.93 554.987 155.677 554.987C158.624 554.987 162.325 555.052 166.779 555.183C171.298 555.314 175.359 555.74 178.962 556.46V575.914C176.145 575.259 172.739 574.899 168.744 574.833C164.814 574.702 161.539 574.637 158.919 574.637C154.596 574.637 151.452 575.816 149.487 578.174C147.587 580.466 146.638 583.446 146.638 587.115C146.638 589.734 147.456 591.929 149.094 593.697C150.731 595.4 152.926 596.252 155.677 596.252C159.607 596.252 163.602 594.843 167.663 592.027C171.79 589.21 175.228 585.346 177.979 580.433L182.302 599.887C179.748 602.9 176.833 605.88 173.558 608.828C170.283 611.71 166.451 614.1 162.063 616C157.674 617.965 152.533 618.948 146.638 618.948C139.891 618.948 134.291 617.441 129.837 614.428C125.448 611.415 122.173 607.649 120.012 603.129C117.85 598.544 116.77 593.894 116.77 589.178ZM205.882 601.852C205.358 604.537 204.147 607.452 202.247 610.596C200.348 613.74 198.448 616.066 196.549 617.572C190.785 617.441 186.003 616.131 182.204 613.642C178.471 611.153 175.589 608.107 173.558 604.505C171.593 600.837 170.316 597.267 169.726 593.795V551.744C169.726 547.618 168.678 544.507 166.582 542.411C164.552 540.315 161.31 539.267 156.856 539.267C152.664 539.267 148.079 539.954 143.101 541.33C138.123 542.64 133.046 544.048 127.872 545.555C125.71 543.066 124.007 539.856 122.763 535.926C121.584 531.931 120.831 528.033 120.503 524.234C124.892 522.466 129.771 520.927 135.142 519.617C140.513 518.307 145.852 517.324 151.157 516.669C156.463 515.949 161.244 515.588 165.502 515.588C171.2 515.588 176.702 516.669 182.008 518.831C187.379 520.927 191.767 524.431 195.173 529.343C198.645 534.256 200.38 540.839 200.38 549.092V589.079C200.38 591.896 200.806 594.385 201.658 596.546C202.575 598.708 203.983 600.476 205.882 601.852ZM289.531 518.241C289.531 521.844 288.876 526.461 287.566 532.094C286.256 537.662 284.357 542.607 281.868 546.93C280.099 546.275 278.396 545.817 276.759 545.555C275.121 545.293 273.451 545.063 271.748 544.867C269.128 544.867 266.77 545.358 264.674 546.341C262.578 547.258 260.646 548.633 258.877 550.467C257.174 552.301 255.57 554.561 254.063 557.246C252.622 559.932 251.214 563.01 249.838 566.482L246.4 561.864C246.727 556.493 247.415 551.122 248.463 545.751C249.511 540.38 251.116 535.5 253.277 531.112C255.504 526.723 258.484 523.219 262.218 520.599C265.951 517.914 270.7 516.571 276.464 516.571C279.477 516.571 281.901 516.735 283.735 517.062C285.634 517.39 287.566 517.783 289.531 518.241ZM217.514 532.193C218.104 529.442 219.315 526.494 221.149 523.35C223.049 520.206 224.948 517.881 226.848 516.374C235.887 517.029 242.699 520.403 247.284 526.494C251.934 532.52 254.718 540.446 255.635 550.271V616C253.474 616.393 251.017 616.688 248.266 616.884C245.581 617.081 242.928 617.179 240.308 617.179C237.754 617.179 235.101 617.081 232.35 616.884C229.664 616.688 227.175 616.393 224.883 616V552.53C224.883 546.766 224.031 542.214 222.328 538.874C220.691 535.533 219.086 533.306 217.514 532.193ZM312.83 506.844C312.83 499.967 314.075 495.185 316.564 492.5C319.118 489.749 323.409 488.373 329.435 488.373H341.421L342.797 489.749V584.363C342.797 587.311 343.452 589.603 344.762 591.241C346.137 592.813 348.397 593.599 351.541 593.599H362.545C364.182 598.315 365.001 603.162 365.001 608.14C365.001 609.253 364.936 610.432 364.805 611.677C364.674 612.921 364.477 614.035 364.215 615.017C360.613 615.541 356.453 616 351.737 616.393C347.021 616.786 342.698 616.983 338.768 616.983C329.86 616.983 323.31 614.788 319.118 610.4C314.926 605.946 312.83 599.035 312.83 589.669V506.844ZM366.082 517.75C366.999 521.221 367.457 524.791 367.457 528.459C367.457 532.52 366.999 536.221 366.082 539.561L329.435 538.972L297.405 539.561C296.554 536.221 296.128 532.52 296.128 528.459C296.128 524.791 296.554 521.221 297.405 517.75L330.319 518.241L366.082 517.75ZM416.034 616C413.873 616.393 411.417 616.688 408.666 616.884C405.98 617.081 403.327 617.179 400.707 617.179C398.153 617.179 395.5 617.081 392.749 616.884C390.064 616.688 387.575 616.393 385.282 616V550.958C385.282 547.683 384.594 544.965 383.219 542.804C381.909 540.642 379.518 539.561 376.047 539.561H373.099C372.248 536.352 371.822 532.88 371.822 529.147C371.822 527.444 371.92 525.643 372.117 523.743C372.313 521.778 372.641 519.911 373.099 518.143C376.112 517.815 379.191 517.586 382.335 517.455C385.544 517.259 388.23 517.16 390.391 517.16H394.616C401.166 517.16 406.373 519.289 410.238 523.547C414.102 527.739 416.034 533.437 416.034 540.642V616ZM379.387 490.338C379.387 486.277 380.14 482.445 381.647 478.843C383.35 477.991 385.544 477.271 388.23 476.681C390.981 476.092 393.666 475.797 396.286 475.797C398.906 475.797 401.624 476.092 404.441 476.681C407.257 477.271 409.419 477.991 410.925 478.843C411.646 480.677 412.203 482.609 412.596 484.64C412.989 486.67 413.185 488.57 413.185 490.338C413.185 494.334 412.432 498.133 410.925 501.735C409.419 502.587 407.257 503.307 404.441 503.897C401.624 504.486 398.906 504.781 396.286 504.781C393.666 504.781 390.948 504.519 388.131 503.995C385.38 503.405 383.219 502.652 381.647 501.735C380.14 498.133 379.387 494.334 379.387 490.338ZM488.219 561.471C488.284 556.428 488.055 552.137 487.531 548.6C487.073 545.063 486.025 542.378 484.387 540.544C482.75 538.71 480.228 537.793 476.822 537.793C472.237 537.793 469.06 540.118 467.292 544.769C465.589 549.419 464.737 556.886 464.737 567.17C464.737 577.584 466.178 584.822 469.06 588.883C471.942 592.944 476.167 594.974 481.734 594.974C485.599 594.974 489.398 594.156 493.131 592.518C496.865 590.815 500.271 588.883 503.349 586.721C505.773 588.097 508.131 590.553 510.423 594.09C512.716 597.562 514.222 600.804 514.943 603.817C510.554 608.402 504.889 612.07 497.946 614.821C491.068 617.572 483.994 618.948 476.724 618.948C469.65 618.948 463.427 617.736 458.056 615.312C452.685 612.823 448.166 609.319 444.498 604.799C440.83 600.28 438.046 594.843 436.146 588.49C434.312 582.136 433.395 575.03 433.395 567.17C433.395 557.672 434.64 549.616 437.129 543C439.683 536.319 443.089 530.948 447.347 526.887C451.604 522.761 456.32 519.748 461.495 517.848C466.735 515.949 472.04 514.999 477.411 514.999C482.913 514.999 487.99 515.785 492.64 517.357C497.356 518.929 501.417 521.156 504.823 524.038C508.295 526.92 510.98 530.359 512.88 534.354C514.779 538.35 515.729 542.771 515.729 547.618C515.729 552.792 514.288 556.591 511.406 559.015C508.589 561.373 505.02 562.552 500.697 562.552C498.077 562.552 495.817 562.486 493.917 562.355C492.018 562.159 490.118 561.864 488.219 561.471ZM569.742 616C567.58 616.393 565.124 616.688 562.373 616.884C559.688 617.081 557.035 617.179 554.415 617.179C551.86 617.179 549.208 617.081 546.457 616.884C543.771 616.688 541.282 616.393 538.99 616V550.958C538.99 547.683 538.302 544.965 536.926 542.804C535.616 540.642 533.226 539.561 529.754 539.561H526.807C525.955 536.352 525.529 532.88 525.529 529.147C525.529 527.444 525.628 525.643 525.824 523.743C526.021 521.778 526.348 519.911 526.807 518.143C529.82 517.815 532.898 517.586 536.042 517.455C539.252 517.259 541.937 517.16 544.099 517.16H548.323C554.873 517.16 560.081 519.289 563.945 523.547C567.81 527.739 569.742 533.437 569.742 540.642V616ZM533.095 490.338C533.095 486.277 533.848 482.445 535.354 478.843C537.057 477.991 539.252 477.271 541.937 476.681C544.688 476.092 547.374 475.797 549.994 475.797C552.614 475.797 555.332 476.092 558.148 476.681C560.965 477.271 563.126 477.991 564.633 478.843C565.353 480.677 565.91 482.609 566.303 484.64C566.696 486.67 566.893 488.57 566.893 490.338C566.893 494.334 566.139 498.133 564.633 501.735C563.126 502.587 560.965 503.307 558.148 503.897C555.332 504.486 552.614 504.781 549.994 504.781C547.374 504.781 544.655 504.519 541.839 503.995C539.088 503.405 536.926 502.652 535.354 501.735C533.848 498.133 533.095 494.334 533.095 490.338ZM602.43 516.571C608.653 516.571 613.631 518.896 617.364 523.547C621.163 528.132 623.063 534.452 623.063 542.509V639.973C623.063 646.785 621.753 651.567 619.133 654.318C616.578 657.069 612.288 658.444 606.262 658.444H594.275L592.9 657.069V517.946L594.275 516.571H602.43ZM680.637 565.794C680.637 577.06 678.836 586.59 675.233 594.385C671.696 602.114 666.948 607.976 660.987 611.972C655.027 615.967 648.444 617.965 641.239 617.965C634.427 617.965 628.368 616.557 623.063 613.74C617.823 610.924 613.041 608.173 608.718 605.487L613.631 583.774C617.43 586.852 621.294 589.505 625.224 591.732C629.154 593.959 632.691 595.073 635.835 595.073C639.045 595.073 641.599 593.894 643.499 591.536C645.464 589.112 646.905 585.706 647.822 581.318C648.739 576.864 649.197 571.624 649.197 565.598C649.197 559.506 648.673 554.561 647.625 550.762C646.643 546.963 645.234 544.179 643.4 542.411C641.632 540.577 639.601 539.66 637.309 539.66C635.278 539.66 632.855 540.282 630.038 541.526C627.287 542.771 624.569 545.194 621.884 548.797C619.264 552.334 617.069 557.574 615.301 564.517L608.423 547.127C609.078 541.821 611.109 536.712 614.515 531.8C617.921 526.887 622.277 522.859 627.582 519.715C632.953 516.571 638.848 514.999 645.267 514.999C653.258 514.999 659.874 517.16 665.114 521.483C670.354 525.806 674.251 531.8 676.805 539.463C679.36 547.061 680.637 555.838 680.637 565.794ZM692.837 589.178C692.837 581.318 694.671 574.866 698.339 569.822C702.007 564.779 706.788 561.045 712.683 558.622C718.644 556.198 724.997 554.987 731.744 554.987C734.691 554.987 738.392 555.052 742.846 555.183C747.366 555.314 751.427 555.74 755.029 556.46V575.914C752.213 575.259 748.807 574.899 744.811 574.833C740.881 574.702 737.606 574.637 734.986 574.637C730.663 574.637 727.519 575.816 725.554 578.174C723.655 580.466 722.705 583.446 722.705 587.115C722.705 589.734 723.524 591.929 725.161 593.697C726.799 595.4 728.993 596.252 731.744 596.252C735.674 596.252 739.669 594.843 743.73 592.027C747.857 589.21 751.296 585.346 754.047 580.433L758.37 599.887C755.815 602.9 752.9 605.88 749.625 608.828C746.35 611.71 742.519 614.1 738.13 616C733.742 617.965 728.6 618.948 722.705 618.948C715.958 618.948 710.358 617.441 705.904 614.428C701.516 611.415 698.241 607.649 696.079 603.129C693.918 598.544 692.837 593.894 692.837 589.178ZM781.95 601.852C781.426 604.537 780.214 607.452 778.314 610.596C776.415 613.74 774.515 616.066 772.616 617.572C766.852 617.441 762.07 616.131 758.271 613.642C754.538 611.153 751.656 608.107 749.625 604.505C747.66 600.837 746.383 597.267 745.794 593.795V551.744C745.794 547.618 744.746 544.507 742.65 542.411C740.619 540.315 737.377 539.267 732.923 539.267C728.731 539.267 724.146 539.954 719.168 541.33C714.19 542.64 709.114 544.048 703.939 545.555C701.778 543.066 700.075 539.856 698.83 535.926C697.651 531.931 696.898 528.033 696.57 524.234C700.959 522.466 705.839 520.927 711.21 519.617C716.581 518.307 721.919 517.324 727.224 516.669C732.53 515.949 737.311 515.588 741.569 515.588C747.267 515.588 752.769 516.669 758.075 518.831C763.446 520.927 767.834 524.431 771.24 529.343C774.712 534.256 776.448 540.839 776.448 549.092V589.079C776.448 591.896 776.873 594.385 777.725 596.546C778.642 598.708 780.05 600.476 781.95 601.852ZM801.97 506.844C801.97 499.967 803.214 495.185 805.703 492.5C808.258 489.749 812.548 488.373 818.574 488.373H830.56L831.936 489.749V584.363C831.936 587.311 832.591 589.603 833.901 591.241C835.276 592.813 837.536 593.599 840.68 593.599H851.684C853.322 598.315 854.14 603.162 854.14 608.14C854.14 609.253 854.075 610.432 853.944 611.677C853.813 612.921 853.616 614.035 853.354 615.017C849.752 615.541 845.593 616 840.877 616.393C836.161 616.786 831.838 616.983 827.908 616.983C819 616.983 812.45 614.788 808.258 610.4C804.066 605.946 801.97 599.035 801.97 589.669V506.844ZM855.221 517.75C856.138 521.221 856.597 524.791 856.597 528.459C856.597 532.52 856.138 536.221 855.221 539.561L818.574 538.972L786.544 539.561C785.693 536.221 785.267 532.52 785.267 528.459C785.267 524.791 785.693 521.221 786.544 517.75L819.458 518.241L855.221 517.75ZM905.174 616C903.012 616.393 900.556 616.688 897.805 616.884C895.119 617.081 892.467 617.179 889.847 617.179C887.292 617.179 884.639 617.081 881.888 616.884C879.203 616.688 876.714 616.393 874.421 616V550.958C874.421 547.683 873.734 544.965 872.358 542.804C871.048 540.642 868.657 539.561 865.186 539.561H862.238C861.387 536.352 860.961 532.88 860.961 529.147C860.961 527.444 861.059 525.643 861.256 523.743C861.452 521.778 861.78 519.911 862.238 518.143C865.251 517.815 868.33 517.586 871.474 517.455C874.683 517.259 877.369 517.16 879.53 517.16H883.755C890.305 517.16 895.512 519.289 899.377 523.547C903.241 527.739 905.174 533.437 905.174 540.642V616ZM868.526 490.338C868.526 486.277 869.28 482.445 870.786 478.843C872.489 477.991 874.683 477.271 877.369 476.681C880.12 476.092 882.805 475.797 885.425 475.797C888.045 475.797 890.764 476.092 893.58 476.681C896.397 477.271 898.558 477.991 900.065 478.843C900.785 480.677 901.342 482.609 901.735 484.64C902.128 486.67 902.324 488.57 902.324 490.338C902.324 494.334 901.571 498.133 900.065 501.735C898.558 502.587 896.397 503.307 893.58 503.897C890.764 504.486 888.045 504.781 885.425 504.781C882.805 504.781 880.087 504.519 877.271 503.995C874.52 503.405 872.358 502.652 870.786 501.735C869.28 498.133 868.526 494.334 868.526 490.338ZM1013.32 566.973C1013.32 577.453 1011.58 586.59 1008.11 594.385C1004.64 602.179 999.53 608.238 992.783 612.561C986.037 616.819 977.751 618.948 967.926 618.948C957.97 618.948 949.619 616.786 942.872 612.463C936.126 608.14 931.05 602.081 927.644 594.287C924.238 586.492 922.535 577.388 922.535 566.973C922.535 556.428 924.238 547.29 927.644 539.561C931.115 531.767 936.224 525.741 942.971 521.483C949.717 517.16 958.036 514.999 967.926 514.999C977.882 514.999 986.201 517.16 992.882 521.483C999.628 525.806 1004.7 531.865 1008.11 539.66C1011.58 547.389 1013.32 556.493 1013.32 566.973ZM954.073 566.973C954.073 572.344 954.368 577.224 954.957 581.612C955.612 586.001 956.922 589.505 958.887 592.125C960.852 594.68 963.865 595.957 967.926 595.957C971.922 595.957 974.902 594.68 976.867 592.125C978.897 589.505 980.207 586.001 980.797 581.612C981.452 577.224 981.779 572.344 981.779 566.973C981.779 561.537 981.452 556.624 980.797 552.236C980.207 547.847 978.897 544.376 976.867 541.821C974.902 539.201 971.922 537.891 967.926 537.891C963.865 537.891 960.852 539.201 958.887 541.821C956.922 544.376 955.612 547.847 954.957 552.236C954.368 556.624 954.073 561.537 954.073 566.973ZM1043.96 516.571C1049.86 516.571 1054.28 518.569 1057.23 522.564C1060.24 526.56 1061.75 531.996 1061.75 538.874V616C1059.59 616.393 1057.13 616.688 1054.38 616.884C1051.69 617.081 1049.04 617.179 1046.42 617.179C1043.87 617.179 1041.21 617.081 1038.46 616.884C1035.71 616.688 1033.22 616.393 1030.99 616V517.946L1032.37 516.571H1043.96ZM1115.49 591.438C1115.49 595.302 1115.85 598.904 1116.57 602.245C1117.29 605.52 1118.57 608.435 1120.4 610.989C1118.11 612.889 1115.29 614.461 1111.95 615.705C1108.61 616.95 1105.04 617.572 1101.24 617.572C1095.09 617.572 1090.8 615.934 1088.37 612.659C1085.95 609.384 1084.74 604.668 1084.74 598.511V556.755C1084.74 552.301 1084.15 549.026 1082.97 546.93C1081.86 544.769 1079.66 543.688 1076.39 543.688C1074.36 543.688 1072 544.245 1069.31 545.358C1066.63 546.472 1063.97 548.273 1061.35 550.762C1058.73 553.185 1056.41 556.46 1054.38 560.587V533.666C1058.96 529.212 1063.94 525.184 1069.31 521.582C1074.75 517.979 1080.97 516.178 1087.98 516.178C1093.94 516.178 1098.95 517.684 1103.01 520.697C1107.14 523.645 1110.25 527.739 1112.35 532.979C1114.44 538.219 1115.49 544.277 1115.49 551.155V591.438ZM110.219 764.35C110.219 770.638 109.007 776.238 106.584 781.151C104.16 785.998 101.115 790.059 97.4465 793.334C93.7785 796.543 90.0778 798.869 86.3443 800.31C90.0123 801.62 93.058 803.879 95.4815 807.089C97.9705 810.298 99.9683 814.065 101.475 818.388L107.37 834.992C108.418 838.07 109.761 840.854 111.398 843.343C113.036 845.832 114.935 847.895 117.097 849.533C115.066 852.153 112.119 854.347 108.254 856.116C104.39 857.884 100.361 858.769 96.1693 858.769C90.5363 858.769 86.4425 857.262 83.888 854.249C81.3335 851.17 79.0083 846.618 76.9123 840.592L69.8383 820.058C68.7248 816.652 66.989 813.77 64.631 811.412C62.273 808.988 58.474 807.777 53.234 807.777H32.3068V784.295C34.8613 784.164 38.0053 784.033 41.7388 783.902C45.5378 783.705 49.1075 783.574 52.448 783.509C55.854 783.378 58.2775 783.312 59.7185 783.312C64.6965 783.312 68.4955 782.428 71.1155 780.66C73.801 778.826 75.635 776.468 76.6175 773.586C77.6655 770.704 78.1895 767.625 78.1895 764.35C78.1895 760.944 77.6655 757.8 76.6175 754.918C75.635 752.036 73.801 749.744 71.1155 748.041C68.4955 746.272 64.6965 745.388 59.7185 745.388C58.343 745.388 56.8693 745.388 55.2973 745.388C53.7908 745.388 52.186 745.388 50.483 745.388C48.78 745.322 46.9788 745.257 45.0793 745.191V857C42.4593 857.459 39.741 857.753 36.9245 857.884C34.108 858.081 31.619 858.179 29.4575 858.179C27.558 858.179 25.1345 858.081 22.187 857.884C19.2395 857.753 16.4885 857.459 13.934 857V723.773L15.3095 722.397C23.6935 722.201 31.75 722.037 39.479 721.906C47.2735 721.71 54.9043 721.611 62.3713 721.611C71.4758 721.611 79.6305 723.118 86.8355 726.131C94.106 729.144 99.8045 733.794 103.931 740.082C108.123 746.37 110.219 754.46 110.219 764.35ZM142.176 817.896V796.773H179.217V794.513C179.217 791.5 178.791 788.749 177.939 786.26C177.088 783.705 175.712 781.675 173.813 780.168C171.913 778.596 169.424 777.81 166.346 777.81C161.564 777.81 158.191 779.775 156.226 783.705C154.327 787.635 153.377 793.694 153.377 801.882V811.117C153.377 815.637 153.77 819.829 154.556 823.693C155.342 827.492 157.012 830.571 159.567 832.929C162.121 835.287 166.018 836.466 171.258 836.466C175.712 836.466 180.068 835.909 184.326 834.795C188.649 833.616 192.775 832.208 196.705 830.571C198.998 832.863 200.832 835.712 202.207 839.118C203.583 842.524 204.5 845.734 204.958 848.747C199.98 852.349 194.02 855.1 187.077 857C180.199 858.965 173.256 859.948 166.248 859.948C157.667 859.948 150.528 858.507 144.829 855.624C139.196 852.742 134.742 848.878 131.467 844.031C128.192 839.184 125.867 833.715 124.491 827.623C123.181 821.466 122.526 815.145 122.526 808.661C122.526 798.77 124 789.862 126.948 781.937C129.961 773.946 134.709 767.625 141.194 762.975C147.678 758.324 156.128 755.999 166.542 755.999C175.123 755.999 182.459 757.833 188.55 761.501C194.707 765.169 199.391 770.147 202.6 776.435C205.875 782.723 207.513 789.797 207.513 797.657C207.513 802.045 207.316 805.713 206.923 808.661C206.53 811.543 205.842 814.621 204.86 817.896H142.176ZM274.832 802.471C274.898 797.428 274.669 793.137 274.145 789.6C273.686 786.063 272.638 783.378 271.001 781.544C269.363 779.71 266.841 778.793 263.435 778.793C258.85 778.793 255.674 781.118 253.905 785.769C252.202 790.419 251.351 797.886 251.351 808.17C251.351 818.584 252.792 825.822 255.674 829.883C258.556 833.944 262.78 835.974 268.348 835.974C272.212 835.974 276.011 835.156 279.745 833.518C283.478 831.815 286.884 829.883 289.963 827.721C292.386 829.097 294.744 831.553 297.037 835.09C299.329 838.562 300.836 841.804 301.556 844.817C297.168 849.402 291.502 853.07 284.559 855.821C277.682 858.572 270.608 859.948 263.337 859.948C256.263 859.948 250.041 858.736 244.67 856.312C239.299 853.823 234.779 850.319 231.111 845.799C227.443 841.28 224.659 835.843 222.76 829.49C220.926 823.136 220.009 816.03 220.009 808.17C220.009 798.672 221.253 790.616 223.742 784C226.297 777.319 229.703 771.948 233.96 767.887C238.218 763.761 242.934 760.748 248.108 758.848C253.348 756.949 258.654 755.999 264.025 755.999C269.527 755.999 274.603 756.785 279.254 758.357C283.97 759.929 288.031 762.156 291.437 765.038C294.908 767.92 297.594 771.359 299.493 775.354C301.393 779.35 302.342 783.771 302.342 788.618C302.342 793.792 300.901 797.591 298.019 800.015C295.203 802.373 291.633 803.552 287.31 803.552C284.69 803.552 282.43 803.486 280.531 803.355C278.631 803.159 276.732 802.864 274.832 802.471ZM402.517 807.973C402.517 818.453 400.782 827.59 397.31 835.385C393.839 843.179 388.73 849.238 381.983 853.561C375.237 857.819 366.951 859.948 357.126 859.948C347.17 859.948 338.819 857.786 332.072 853.463C325.326 849.14 320.249 843.081 316.843 835.287C313.437 827.492 311.734 818.388 311.734 807.973C311.734 797.428 313.437 788.29 316.843 780.561C320.315 772.767 325.424 766.741 332.17 762.483C338.917 758.16 347.235 755.999 357.126 755.999C367.082 755.999 375.4 758.16 382.081 762.483C388.828 766.806 393.904 772.865 397.31 780.66C400.782 788.389 402.517 797.493 402.517 807.973ZM343.273 807.973C343.273 813.344 343.567 818.224 344.157 822.612C344.812 827.001 346.122 830.505 348.087 833.125C350.052 835.68 353.065 836.957 357.126 836.957C361.121 836.957 364.102 835.68 366.067 833.125C368.097 830.505 369.407 827.001 369.997 822.612C370.652 818.224 370.979 813.344 370.979 807.973C370.979 802.537 370.652 797.624 369.997 793.236C369.407 788.847 368.097 785.376 366.067 782.821C364.102 780.201 361.121 778.891 357.126 778.891C353.065 778.891 350.052 780.201 348.087 782.821C346.122 785.376 344.812 788.847 344.157 793.236C343.567 797.624 343.273 802.537 343.273 807.973ZM507.932 773.094C506.294 774.273 504.952 776.173 503.904 778.793C502.921 781.347 502.43 784.164 502.43 787.242V839.118C502.43 848.288 502.004 855.854 501.153 861.814C500.367 867.775 499.22 872.655 497.714 876.454C496.207 880.253 494.406 883.462 492.31 886.082C488.446 890.995 483.304 894.597 476.885 896.89C470.466 899.248 463.326 900.427 455.466 900.427C449.309 900.427 442.89 899.804 436.209 898.56C429.528 897.381 423.633 895.842 418.524 893.942C418.524 890.34 419.245 886.377 420.686 882.054C422.127 877.731 423.928 874.292 426.09 871.738C430.282 873.572 434.67 875.013 439.255 876.061C443.84 877.109 448.294 877.633 452.617 877.633C457.399 877.633 461.23 876.814 464.112 875.176C467.06 873.539 469.189 871.214 470.499 868.201C471.809 865.253 472.464 861.749 472.464 857.688V786.849C472.464 778.727 474.658 771.817 479.046 766.119C483.435 760.42 489.952 757.505 498.598 757.374C500.498 758.881 502.43 761.206 504.395 764.35C506.36 767.429 507.539 770.343 507.932 773.094ZM414.791 808.17C414.791 796.904 416.559 787.406 420.096 779.677C423.699 771.883 428.48 765.988 434.441 761.992C440.467 757.997 447.05 755.999 454.189 755.999C460.543 755.999 465.979 757.047 470.499 759.143C475.018 761.239 478.752 763.826 481.699 766.905C484.647 769.918 486.972 772.832 488.675 775.649L483.664 800.703C479.865 793.629 475.771 788.225 471.383 784.491C467.06 780.692 463.13 778.793 459.593 778.793C456.383 778.793 453.796 780.005 451.831 782.428C449.866 784.786 448.425 788.192 447.508 792.646C446.657 797.035 446.231 802.275 446.231 808.366C446.231 817.471 447.312 824.086 449.473 828.213C451.7 832.274 454.484 834.304 457.824 834.304C461.754 834.304 465.586 832.961 469.32 830.276C473.119 827.59 476.295 823.595 478.85 818.289L483.173 839.61C481.011 843.343 478.228 846.684 474.822 849.631C471.416 852.513 467.584 854.806 463.326 856.509C459.134 858.146 454.746 858.965 450.161 858.965C442.17 858.965 435.554 856.803 430.314 852.48C425.074 848.157 421.177 842.197 418.623 834.599C416.068 826.935 414.791 818.126 414.791 808.17ZM538.514 757.571C544.409 757.571 548.83 759.569 551.778 763.564C554.791 767.56 556.297 772.996 556.297 779.874V857C554.136 857.393 551.679 857.688 548.928 857.884C546.243 858.081 543.59 858.179 540.97 858.179C538.416 858.179 535.763 858.081 533.012 857.884C530.261 857.688 527.772 857.393 525.545 857V758.946L526.92 757.571H538.514ZM610.04 832.438C610.04 836.302 610.4 839.904 611.121 843.245C611.841 846.52 613.118 849.435 614.952 851.989C612.66 853.889 609.843 855.461 606.503 856.705C603.162 857.95 599.593 858.572 595.794 858.572C589.637 858.572 585.346 856.934 582.923 853.659C580.499 850.384 579.288 845.668 579.288 839.511V797.755C579.288 793.301 578.698 790.026 577.519 787.93C576.406 785.769 574.211 784.688 570.936 784.688C568.906 784.688 566.548 785.245 563.862 786.358C561.177 787.472 558.524 789.273 555.904 791.762C553.284 794.185 550.959 797.46 548.928 801.587V774.666C553.513 770.212 558.491 766.184 563.862 762.582C569.299 758.979 575.521 757.178 582.53 757.178C588.49 757.178 593.501 758.684 597.562 761.697C601.689 764.645 604.8 768.739 606.896 773.979C608.992 779.219 610.04 785.277 610.04 792.155V832.438ZM668.376 857C666.214 857.393 663.758 857.688 661.007 857.884C658.321 858.081 655.669 858.179 653.049 858.179C650.494 858.179 647.841 858.081 645.09 857.884C642.405 857.688 639.916 857.393 637.623 857V791.958C637.623 788.683 636.936 785.965 635.56 783.804C634.25 781.642 631.859 780.561 628.388 780.561H625.44C624.589 777.352 624.163 773.88 624.163 770.147C624.163 768.444 624.261 766.643 624.458 764.743C624.654 762.778 624.982 760.911 625.44 759.143C628.453 758.815 631.532 758.586 634.676 758.455C637.885 758.259 640.571 758.16 642.732 758.16H646.957C653.507 758.16 658.714 760.289 662.579 764.547C666.443 768.739 668.376 774.437 668.376 781.642V857ZM631.728 731.338C631.728 727.277 632.482 723.445 633.988 719.843C635.691 718.991 637.885 718.271 640.571 717.681C643.322 717.092 646.007 716.797 648.627 716.797C651.247 716.797 653.966 717.092 656.782 717.681C659.599 718.271 661.76 718.991 663.267 719.843C663.987 721.677 664.544 723.609 664.937 725.64C665.33 727.67 665.526 729.57 665.526 731.338C665.526 735.334 664.773 739.133 663.267 742.735C661.76 743.587 659.599 744.307 656.782 744.897C653.966 745.486 651.247 745.781 648.627 745.781C646.007 745.781 643.289 745.519 640.473 744.995C637.722 744.405 635.56 743.652 633.988 742.735C632.482 739.133 631.728 735.334 631.728 731.338ZM694.701 747.844C694.701 740.967 695.945 736.185 698.434 733.5C700.989 730.749 705.279 729.373 711.305 729.373H723.291L724.667 730.749V825.363C724.667 828.311 725.322 830.603 726.632 832.241C728.007 833.813 730.267 834.599 733.411 834.599H744.415C746.053 839.315 746.871 844.162 746.871 849.14C746.871 850.253 746.806 851.432 746.675 852.677C746.544 853.921 746.347 855.035 746.085 856.017C742.483 856.541 738.324 857 733.608 857.393C728.892 857.786 724.569 857.983 720.639 857.983C711.731 857.983 705.181 855.788 700.989 851.4C696.797 846.946 694.701 840.035 694.701 830.669V747.844ZM747.952 758.75C748.869 762.221 749.328 765.791 749.328 769.459C749.328 773.52 748.869 777.221 747.952 780.561L711.305 779.972L679.275 780.561C678.424 777.221 677.998 773.52 677.998 769.459C677.998 765.791 678.424 762.221 679.275 758.75L712.189 759.241L747.952 758.75ZM797.905 857C795.743 857.393 793.287 857.688 790.536 857.884C787.85 858.081 785.198 858.179 782.578 858.179C780.023 858.179 777.37 858.081 774.619 857.884C771.934 857.688 769.445 857.393 767.152 857V791.958C767.152 788.683 766.465 785.965 765.089 783.804C763.779 781.642 761.388 780.561 757.917 780.561H754.969C754.118 777.352 753.692 773.88 753.692 770.147C753.692 768.444 753.79 766.643 753.987 764.743C754.183 762.778 754.511 760.911 754.969 759.143C757.982 758.815 761.061 758.586 764.205 758.455C767.414 758.259 770.1 758.16 772.261 758.16H776.486C783.036 758.16 788.243 760.289 792.108 764.547C795.972 768.739 797.905 774.437 797.905 781.642V857ZM761.257 731.338C761.257 727.277 762.011 723.445 763.517 719.843C765.22 718.991 767.414 718.271 770.1 717.681C772.851 717.092 775.536 716.797 778.156 716.797C780.776 716.797 783.495 717.092 786.311 717.681C789.128 718.271 791.289 718.991 792.796 719.843C793.516 721.677 794.073 723.609 794.466 725.64C794.859 727.67 795.055 729.57 795.055 731.338C795.055 735.334 794.302 739.133 792.796 742.735C791.289 743.587 789.128 744.307 786.311 744.897C783.495 745.486 780.776 745.781 778.156 745.781C775.536 745.781 772.818 745.519 770.002 744.995C767.251 744.405 765.089 743.652 763.517 742.735C762.011 739.133 761.257 735.334 761.257 731.338ZM906.049 807.973C906.049 818.453 904.313 827.59 900.841 835.385C897.37 843.179 892.261 849.238 885.514 853.561C878.768 857.819 870.482 859.948 860.657 859.948C850.701 859.948 842.35 857.786 835.603 853.463C828.857 849.14 823.781 843.081 820.375 835.287C816.969 827.492 815.266 818.388 815.266 807.973C815.266 797.428 816.969 788.29 820.375 780.561C823.846 772.767 828.955 766.741 835.702 762.483C842.448 758.16 850.767 755.999 860.657 755.999C870.613 755.999 878.932 758.16 885.613 762.483C892.359 766.806 897.435 772.865 900.841 780.66C904.313 788.389 906.049 797.493 906.049 807.973ZM846.804 807.973C846.804 813.344 847.099 818.224 847.688 822.612C848.343 827.001 849.653 830.505 851.618 833.125C853.583 835.68 856.596 836.957 860.657 836.957C864.653 836.957 867.633 835.68 869.598 833.125C871.628 830.505 872.938 827.001 873.528 822.612C874.183 818.224 874.51 813.344 874.51 807.973C874.51 802.537 874.183 797.624 873.528 793.236C872.938 788.847 871.628 785.376 869.598 782.821C867.633 780.201 864.653 778.891 860.657 778.891C856.596 778.891 853.583 780.201 851.618 782.821C849.653 785.376 848.343 788.847 847.688 793.236C847.099 797.624 846.804 802.537 846.804 807.973ZM936.695 757.571C942.59 757.571 947.011 759.569 949.959 763.564C952.972 767.56 954.478 772.996 954.478 779.874V857C952.317 857.393 949.86 857.688 947.109 857.884C944.424 858.081 941.771 858.179 939.151 858.179C936.597 858.179 933.944 858.081 931.193 857.884C928.442 857.688 925.953 857.393 923.726 857V758.946L925.101 757.571H936.695ZM1008.22 832.438C1008.22 836.302 1008.58 839.904 1009.3 843.245C1010.02 846.52 1011.3 849.435 1013.13 851.989C1010.84 853.889 1008.02 855.461 1004.68 856.705C1001.34 857.95 997.774 858.572 993.975 858.572C987.818 858.572 983.527 856.934 981.104 853.659C978.68 850.384 977.469 845.668 977.469 839.511V797.755C977.469 793.301 976.879 790.026 975.7 787.93C974.587 785.769 972.392 784.688 969.117 784.688C967.087 784.688 964.729 785.245 962.043 786.358C959.358 787.472 956.705 789.273 954.085 791.762C951.465 794.185 949.14 797.46 947.109 801.587V774.666C951.694 770.212 956.672 766.184 962.043 762.582C967.48 758.979 973.702 757.178 980.711 757.178C986.671 757.178 991.682 758.684 995.743 761.697C999.87 764.645 1002.98 768.739 1005.08 773.979C1007.17 779.219 1008.22 785.277 1008.22 792.155V832.438Z" fill="#FF4002"/>
</svg>
