<svg width="1479" height="903" viewBox="0 0 1479 903" fill="none" xmlns="http://www.w3.org/2000/svg">
<path d="M44.0968 1.79049C46.5858 1.39749 49.566 1.10274 53.0375 0.906238C56.5745 0.709745 59.653 0.611498 62.273 0.611498C64.762 0.611498 67.775 0.742496 71.312 1.00449C74.849 1.20099 77.8948 1.52849 80.4493 1.98699L122.697 133.937C120.535 135.181 117.719 136.131 114.247 136.786C110.841 137.441 107.665 137.769 104.717 137.769C99.739 137.769 95.8418 136.622 93.0253 134.33C90.2088 131.972 87.8508 127.419 85.9513 120.673L71.9015 70.8602C70.395 65.3582 68.6265 58.8737 66.596 51.4067C64.5655 43.9397 62.7315 36.964 61.094 30.4795H59.915C59.26 34.1475 58.3758 38.2085 57.2623 42.6625C56.1488 47.1165 54.9698 51.5705 53.7253 56.0245C52.5463 60.413 51.4328 64.3757 50.3848 67.9127L30.3418 136.197C28.3768 136.655 26.248 136.95 23.9555 137.081C21.7285 137.277 19.4033 137.376 16.9798 137.376C14.6218 137.376 11.9363 137.179 8.92325 136.786C5.97575 136.393 3.61775 135.869 1.84925 135.214L0.67025 133.544L44.0968 1.79049ZM46.4548 107.9C45.5378 107.9 44.457 107.9 43.2125 107.9C42.0335 107.835 40.8218 107.802 39.5773 107.802C38.3983 107.737 37.3503 107.704 36.4333 107.704H19.9273L29.4575 83.2397H43.9985C44.9155 83.2397 45.9635 83.2397 47.1425 83.2397C48.3215 83.1742 49.5005 83.1415 50.6795 83.1415C51.8585 83.076 52.9065 83.0432 53.8235 83.0432H68.168C69.085 83.0432 70.133 83.076 71.312 83.1415C72.491 83.1415 73.67 83.1742 74.849 83.2397C76.0935 83.2397 77.1743 83.2397 78.0913 83.2397H93.1235L101.082 107.704H84.4775C83.5605 107.704 82.4798 107.737 81.2353 107.802C80.0563 107.802 78.8445 107.835 77.6 107.9C76.421 107.9 75.373 107.9 74.456 107.9H46.4548ZM182.147 81.4712C182.213 76.4277 181.983 72.1375 181.459 68.6005C181.001 65.0635 179.953 62.378 178.315 60.544C176.678 58.71 174.156 57.793 170.75 57.793C166.165 57.793 162.988 60.1182 161.22 64.7687C159.517 69.4192 158.665 76.8862 158.665 87.1697C158.665 97.5842 160.106 104.822 162.988 108.883C165.87 112.944 170.095 114.974 175.663 114.974C179.527 114.974 183.326 114.156 187.06 112.518C190.793 110.815 194.199 108.883 197.278 106.721C199.701 108.097 202.059 110.553 204.352 114.09C206.644 117.562 208.151 120.804 208.871 123.817C204.483 128.402 198.817 132.07 191.874 134.821C184.996 137.572 177.922 138.948 170.652 138.948C163.578 138.948 157.355 137.736 151.984 135.312C146.613 132.823 142.094 129.319 138.426 124.799C134.758 120.28 131.974 114.843 130.075 108.49C128.241 102.136 127.324 95.0297 127.324 87.1697C127.324 77.6722 128.568 69.6157 131.057 63.0002C133.612 56.3192 137.018 50.9482 141.275 46.8872C145.533 42.7607 150.249 39.7477 155.423 37.8482C160.663 35.9487 165.969 34.999 171.34 34.999C176.842 34.999 181.918 35.785 186.568 37.357C191.284 38.929 195.345 41.156 198.751 44.038C202.223 46.92 204.908 50.3587 206.808 54.3542C208.707 58.3497 209.657 62.771 209.657 67.618C209.657 72.7925 208.216 76.5915 205.334 79.015C202.518 81.373 198.948 82.552 194.625 82.552C192.005 82.552 189.745 82.4865 187.846 82.3555C185.946 82.159 184.047 81.8642 182.147 81.4712ZM273.873 81.4712C273.938 76.4277 273.709 72.1375 273.185 68.6005C272.727 65.0635 271.679 62.378 270.041 60.544C268.404 58.71 265.882 57.793 262.476 57.793C257.891 57.793 254.714 60.1182 252.946 64.7687C251.243 69.4192 250.391 76.8862 250.391 87.1697C250.391 97.5842 251.832 104.822 254.714 108.883C257.596 112.944 261.821 114.974 267.388 114.974C271.253 114.974 275.052 114.156 278.785 112.518C282.519 110.815 285.925 108.883 289.003 106.721C291.427 108.097 293.785 110.553 296.077 114.09C298.37 117.562 299.876 120.804 300.597 123.817C296.208 128.402 290.543 132.07 283.6 134.821C276.722 137.572 269.648 138.948 262.378 138.948C255.304 138.948 249.081 137.736 243.71 135.312C238.339 132.823 233.82 129.319 230.152 124.799C226.484 120.28 223.7 114.843 221.8 108.49C219.966 102.136 219.049 95.0297 219.049 87.1697C219.049 77.6722 220.294 69.6157 222.783 63.0002C225.337 56.3192 228.743 50.9482 233.001 46.8872C237.258 42.7607 241.974 39.7477 247.149 37.8482C252.389 35.9487 257.694 34.999 263.065 34.999C268.567 34.999 273.644 35.785 278.294 37.357C283.01 38.929 287.071 41.156 290.477 44.038C293.949 46.92 296.634 50.3587 298.534 54.3542C300.433 58.3497 301.383 62.771 301.383 67.618C301.383 72.7925 299.942 76.5915 297.06 79.015C294.243 81.373 290.674 82.552 286.351 82.552C283.731 82.552 281.471 82.4865 279.571 82.3555C277.672 82.159 275.772 81.8642 273.873 81.4712ZM330.425 96.8965V75.7727H367.465V73.513C367.465 70.5 367.039 67.749 366.188 65.26C365.336 62.7055 363.961 60.675 362.061 59.1685C360.162 57.5965 357.673 56.8105 354.594 56.8105C349.813 56.8105 346.44 58.7755 344.475 62.7055C342.575 66.6355 341.625 72.6942 341.625 80.8817V90.1172C341.625 94.6367 342.018 98.8287 342.804 102.693C343.59 106.492 345.261 109.571 347.815 111.929C350.37 114.287 354.267 115.466 359.507 115.466C363.961 115.466 368.317 114.909 372.574 113.795C376.897 112.616 381.024 111.208 384.954 109.571C387.246 111.863 389.08 114.712 390.456 118.118C391.831 121.524 392.748 124.734 393.207 127.747C388.229 131.349 382.268 134.1 375.325 136C368.448 137.965 361.505 138.948 354.496 138.948C345.916 138.948 338.776 137.507 333.078 134.624C327.445 131.742 322.991 127.878 319.716 123.031C316.441 118.184 314.115 112.715 312.74 106.623C311.43 100.466 310.775 94.1455 310.775 87.661C310.775 77.7705 312.249 68.8625 315.196 60.937C318.209 52.946 322.958 46.6252 329.442 41.9747C335.927 37.3242 344.376 34.999 354.791 34.999C363.371 34.999 370.707 36.833 376.799 40.501C382.956 44.169 387.639 49.147 390.849 55.435C394.124 61.723 395.761 68.797 395.761 76.657C395.761 81.0455 395.565 84.7135 395.172 87.661C394.779 90.543 394.091 93.6215 393.108 96.8965H330.425ZM406.194 129.221C406.325 125.946 407.209 122.278 408.847 118.217C410.55 114.156 412.515 110.946 414.742 108.588C419.065 110.815 423.519 112.747 428.104 114.385C432.754 115.957 437.372 116.743 441.957 116.743C445.756 116.743 448.605 116.088 450.505 114.778C452.47 113.468 453.452 111.83 453.452 109.865C453.452 107.966 452.732 106.296 451.291 104.855C449.915 103.348 447.656 102.038 444.512 100.925L433.606 96.9947C428.955 95.2917 424.763 93.163 421.03 90.6085C417.362 87.9885 414.447 84.8117 412.286 81.0782C410.124 77.2792 409.043 72.7597 409.043 67.5197C409.043 60.8387 410.583 55.0747 413.661 50.2277C416.805 45.3807 421.226 41.6472 426.925 39.0272C432.623 36.3417 439.337 34.999 447.066 34.999C453.223 34.999 459.708 35.8505 466.52 37.5535C473.397 39.2565 478.965 41.156 483.222 43.252C483.353 45.6755 483.026 48.3282 482.24 51.2102C481.519 54.0267 480.504 56.6467 479.194 59.0702C477.884 61.4937 476.41 63.3277 474.773 64.5722C470.712 62.7382 466.29 61.068 461.509 59.5615C456.727 57.9895 452.011 57.2035 447.361 57.2035C444.675 57.2035 442.645 57.8257 441.269 59.0702C439.959 60.3147 439.304 61.7885 439.304 63.4915C439.304 65.1945 439.894 66.6355 441.073 67.8145C442.252 68.9935 444.151 70.0415 446.771 70.9585L458.954 75.2815C466.421 77.967 472.644 81.8315 477.622 86.875C482.6 91.853 485.089 98.534 485.089 106.918C485.089 116.677 481.323 124.472 473.79 130.301C466.323 136.066 455.941 138.948 442.645 138.948C435.636 138.948 428.955 137.998 422.602 136.098C416.314 134.199 410.845 131.906 406.194 129.221ZM493.314 129.221C493.445 125.946 494.329 122.278 495.967 118.217C497.67 114.156 499.635 110.946 501.862 108.588C506.185 110.815 510.639 112.747 515.224 114.385C519.874 115.957 524.492 116.743 529.077 116.743C532.876 116.743 535.725 116.088 537.625 114.778C539.59 113.468 540.572 111.83 540.572 109.865C540.572 107.966 539.852 106.296 538.411 104.855C537.035 103.348 534.776 102.038 531.632 100.925L520.726 96.9947C516.075 95.2917 511.883 93.163 508.15 90.6085C504.482 87.9885 501.567 84.8117 499.406 81.0782C497.244 77.2792 496.163 72.7597 496.163 67.5197C496.163 60.8387 497.703 55.0747 500.781 50.2277C503.925 45.3807 508.346 41.6472 514.045 39.0272C519.743 36.3417 526.457 34.999 534.186 34.999C540.343 34.999 546.828 35.8505 553.64 37.5535C560.517 39.2565 566.085 41.156 570.342 43.252C570.473 45.6755 570.146 48.3282 569.36 51.2102C568.639 54.0267 567.624 56.6467 566.314 59.0702C565.004 61.4937 563.53 63.3277 561.893 64.5722C557.832 62.7382 553.41 61.068 548.629 59.5615C543.847 57.9895 539.131 57.2035 534.481 57.2035C531.795 57.2035 529.765 57.8257 528.389 59.0702C527.079 60.3147 526.424 61.7885 526.424 63.4915C526.424 65.1945 527.014 66.6355 528.193 67.8145C529.372 68.9935 531.271 70.0415 533.891 70.9585L546.074 75.2815C553.541 77.967 559.764 81.8315 564.742 86.875C569.72 91.853 572.209 98.534 572.209 106.918C572.209 116.677 568.443 124.472 560.91 130.301C553.443 136.066 543.061 138.948 529.765 138.948C522.756 138.948 516.075 137.998 509.722 136.098C503.434 134.199 497.965 131.906 493.314 129.221ZM14.327 242.79C16.8815 242.332 19.6653 242.037 22.6783 241.906C25.6913 241.71 28.1803 241.611 30.1453 241.611C32.2413 241.611 34.7303 241.71 37.6123 241.906C40.4943 242.037 43.2453 242.332 45.8653 242.79V377C43.2453 377.459 40.4943 377.753 37.6123 377.884C34.7303 378.081 32.2413 378.179 30.1453 378.179C28.1803 378.179 25.6913 378.081 22.6783 377.884C19.6653 377.753 16.8815 377.459 14.327 377V242.79ZM86.0265 277.571C91.9215 277.571 96.3427 279.569 99.2902 283.564C102.303 287.56 103.81 292.996 103.81 299.874V377C101.648 377.393 99.192 377.688 96.441 377.884C93.7555 378.081 91.1027 378.179 88.4827 378.179C85.9282 378.179 83.2755 378.081 80.5245 377.884C77.7735 377.688 75.2845 377.393 73.0575 377V278.946L74.433 277.571H86.0265ZM157.552 352.438C157.552 356.302 157.913 359.904 158.633 363.245C159.354 366.52 160.631 369.435 162.465 371.989C160.172 373.889 157.356 375.461 154.015 376.705C150.675 377.95 147.105 378.572 143.306 378.572C137.149 378.572 132.859 376.934 130.435 373.659C128.012 370.384 126.8 365.668 126.8 359.511V317.755C126.8 313.301 126.211 310.026 125.032 307.93C123.918 305.769 121.724 304.688 118.449 304.688C116.418 304.688 114.06 305.245 111.375 306.358C108.689 307.472 106.037 309.273 103.417 311.762C100.797 314.185 98.4715 317.46 96.441 321.587V294.666C101.026 290.212 106.004 286.184 111.375 282.582C116.811 278.979 123.034 277.178 130.042 277.178C136.003 277.178 141.014 278.684 145.075 281.697C149.201 284.645 152.312 288.739 154.408 293.979C156.504 299.219 157.552 305.277 157.552 312.155V352.438ZM229.545 322.471C229.611 317.428 229.381 313.137 228.857 309.6C228.399 306.063 227.351 303.378 225.713 301.544C224.076 299.71 221.554 298.793 218.148 298.793C213.563 298.793 210.386 301.118 208.618 305.769C206.915 310.419 206.063 317.886 206.063 328.17C206.063 338.584 207.504 345.822 210.386 349.883C213.268 353.944 217.493 355.974 223.061 355.974C226.925 355.974 230.724 355.156 234.458 353.518C238.191 351.815 241.597 349.883 244.676 347.721C247.099 349.097 249.457 351.553 251.75 355.09C254.042 358.562 255.549 361.804 256.269 364.817C251.881 369.402 246.215 373.07 239.272 375.821C232.394 378.572 225.32 379.948 218.05 379.948C210.976 379.948 204.753 378.736 199.382 376.312C194.011 373.823 189.492 370.319 185.824 365.799C182.156 361.28 179.372 355.843 177.473 349.49C175.639 343.136 174.722 336.03 174.722 328.17C174.722 318.672 175.966 310.616 178.455 304C181.01 297.319 184.416 291.948 188.673 287.887C192.931 283.761 197.647 280.748 202.821 278.848C208.061 276.949 213.367 275.999 218.738 275.999C224.24 275.999 229.316 276.785 233.966 278.357C238.682 279.929 242.743 282.156 246.149 285.038C249.621 287.92 252.306 291.359 254.206 295.354C256.105 299.35 257.055 303.771 257.055 308.618C257.055 313.792 255.614 317.591 252.732 320.015C249.916 322.373 246.346 323.552 242.023 323.552C239.403 323.552 237.143 323.486 235.244 323.355C233.344 323.159 231.445 322.864 229.545 322.471ZM317.5 354.599C319.138 359.315 319.957 364.162 319.957 369.14C319.957 370.253 319.891 371.432 319.76 372.677C319.695 373.921 319.498 375.035 319.171 376.017C316.223 376.541 312.883 377 309.149 377.393C305.481 377.786 301.78 377.983 298.047 377.983C289.139 377.983 282.818 375.788 279.085 371.4C275.417 366.946 273.583 360.035 273.583 350.669V233.751L274.958 232.376H286.945C292.971 232.376 297.228 233.751 299.717 236.502C302.272 239.253 303.549 244.035 303.549 250.847V345.265C303.549 348.278 304.204 350.603 305.514 352.241C306.824 353.813 309.018 354.599 312.097 354.599H317.5ZM416.695 348.999C416.695 352.143 417.186 354.992 418.168 357.546C419.216 360.101 420.559 361.968 422.197 363.147C421.673 365.898 420.461 368.78 418.561 371.793C416.662 374.806 414.762 377.066 412.863 378.572C404.151 378.376 397.503 375.395 392.918 369.631C388.333 363.802 386.041 356.793 386.041 348.606V278.946C388.137 278.553 390.56 278.259 393.311 278.062C396.062 277.866 398.748 277.768 401.368 277.768C403.922 277.768 406.542 277.866 409.228 278.062C411.979 278.259 414.468 278.553 416.695 278.946V348.999ZM332.298 303.509C332.298 299.644 331.905 296.042 331.119 292.701C330.398 289.361 329.154 286.446 327.385 283.957C329.612 282.058 332.396 280.486 335.737 279.241C339.077 277.997 342.68 277.374 346.544 277.374C352.701 277.374 356.959 279.012 359.317 282.287C361.74 285.562 362.952 290.245 362.952 296.337V338.191C362.952 342.645 363.541 345.92 364.72 348.016C365.899 350.112 368.126 351.16 371.401 351.16C373.432 351.16 375.757 350.636 378.377 349.588C381.063 348.475 383.715 346.706 386.335 344.283C389.021 341.794 391.346 338.486 393.311 334.359V361.182C388.726 365.701 383.715 369.762 378.279 373.365C372.908 376.967 366.751 378.769 359.808 378.769C353.782 378.769 348.738 377.295 344.677 374.347C340.616 371.334 337.538 367.208 335.442 361.968C333.346 356.662 332.298 350.603 332.298 343.791V303.509ZM432.676 370.221C432.807 366.946 433.691 363.278 435.328 359.217C437.031 355.156 438.996 351.946 441.223 349.588C445.546 351.815 450 353.747 454.585 355.385C459.236 356.957 463.854 357.743 468.439 357.743C472.238 357.743 475.087 357.088 476.986 355.778C478.951 354.468 479.934 352.83 479.934 350.865C479.934 348.966 479.213 347.296 477.772 345.855C476.397 344.348 474.137 343.038 470.993 341.925L460.087 337.995C455.437 336.292 451.245 334.163 447.511 331.608C443.843 328.988 440.929 325.812 438.767 322.078C436.606 318.279 435.525 313.76 435.525 308.52C435.525 301.839 437.064 296.075 440.143 291.228C443.287 286.381 447.708 282.647 453.406 280.027C459.105 277.342 465.819 275.999 473.548 275.999C479.705 275.999 486.189 276.85 493.001 278.553C499.879 280.256 505.446 282.156 509.704 284.252C509.835 286.675 509.507 289.328 508.721 292.21C508.001 295.027 506.985 297.647 505.675 300.07C504.365 302.494 502.892 304.328 501.254 305.572C497.193 303.738 492.772 302.068 487.99 300.561C483.209 298.989 478.493 298.203 473.842 298.203C471.157 298.203 469.126 298.826 467.751 300.07C466.441 301.315 465.786 302.788 465.786 304.491C465.786 306.194 466.375 307.635 467.554 308.814C468.733 309.993 470.633 311.041 473.253 311.958L485.436 316.281C492.903 318.967 499.125 322.831 504.103 327.875C509.081 332.853 511.57 339.534 511.57 347.918C511.57 357.677 507.804 365.472 500.272 371.301C492.805 377.066 482.423 379.948 469.126 379.948C462.118 379.948 455.437 378.998 449.083 377.098C442.795 375.199 437.326 372.906 432.676 370.221ZM563.985 377C561.824 377.393 559.367 377.688 556.616 377.884C553.931 378.081 551.278 378.179 548.658 378.179C546.104 378.179 543.451 378.081 540.7 377.884C538.014 377.688 535.525 377.393 533.233 377V311.958C533.233 308.683 532.545 305.965 531.17 303.804C529.86 301.642 527.469 300.561 523.997 300.561H521.05C520.198 297.352 519.773 293.88 519.773 290.147C519.773 288.444 519.871 286.643 520.067 284.743C520.264 282.778 520.591 280.911 521.05 279.143C524.063 278.815 527.141 278.586 530.285 278.455C533.495 278.259 536.18 278.16 538.342 278.16H542.567C549.117 278.16 554.324 280.289 558.188 284.547C562.053 288.739 563.985 294.437 563.985 301.642V377ZM527.338 251.338C527.338 247.277 528.091 243.445 529.598 239.843C531.301 238.991 533.495 238.271 536.18 237.681C538.931 237.092 541.617 236.797 544.237 236.797C546.857 236.797 549.575 237.092 552.392 237.681C555.208 238.271 557.37 238.991 558.876 239.843C559.597 241.677 560.153 243.609 560.546 245.64C560.939 247.67 561.136 249.57 561.136 251.338C561.136 255.334 560.383 259.133 558.876 262.735C557.37 263.587 555.208 264.307 552.392 264.897C549.575 265.486 546.857 265.781 544.237 265.781C541.617 265.781 538.899 265.519 536.082 264.995C533.331 264.405 531.17 263.652 529.598 262.735C528.091 259.133 527.338 255.334 527.338 251.338ZM672.129 327.973C672.129 338.453 670.393 347.59 666.922 355.385C663.45 363.179 658.341 369.238 651.595 373.561C644.848 377.819 636.563 379.948 626.738 379.948C616.782 379.948 608.43 377.786 601.684 373.463C594.937 369.14 589.861 363.081 586.455 355.287C583.049 347.492 581.346 338.388 581.346 327.973C581.346 317.428 583.049 308.29 586.455 300.561C589.927 292.767 595.036 286.741 601.782 282.483C608.529 278.16 616.847 275.999 626.738 275.999C636.694 275.999 645.012 278.16 651.693 282.483C658.44 286.806 663.516 292.865 666.922 300.66C670.393 308.389 672.129 317.493 672.129 327.973ZM612.884 327.973C612.884 333.344 613.179 338.224 613.769 342.612C614.424 347.001 615.734 350.505 617.699 353.125C619.664 355.68 622.677 356.957 626.738 356.957C630.733 356.957 633.713 355.68 635.678 353.125C637.709 350.505 639.019 347.001 639.608 342.612C640.263 338.224 640.591 333.344 640.591 327.973C640.591 322.537 640.263 317.624 639.608 313.236C639.019 308.847 637.709 305.376 635.678 302.821C633.713 300.201 630.733 298.891 626.738 298.891C622.677 298.891 619.664 300.201 617.699 302.821C615.734 305.376 614.424 308.847 613.769 313.236C613.179 317.624 612.884 322.537 612.884 327.973ZM702.775 277.571C708.67 277.571 713.092 279.569 716.039 283.564C719.052 287.56 720.559 292.996 720.559 299.874V377C718.397 377.393 715.941 377.688 713.19 377.884C710.504 378.081 707.852 378.179 705.232 378.179C702.677 378.179 700.024 378.081 697.273 377.884C694.522 377.688 692.033 377.393 689.806 377V278.946L691.182 277.571H702.775ZM774.301 352.438C774.301 356.302 774.662 359.904 775.382 363.245C776.103 366.52 777.38 369.435 779.214 371.989C776.921 373.889 774.105 375.461 770.764 376.705C767.424 377.95 763.854 378.572 760.055 378.572C753.898 378.572 749.608 376.934 747.184 373.659C744.761 370.384 743.549 365.668 743.549 359.511V317.755C743.549 313.301 742.96 310.026 741.781 307.93C740.667 305.769 738.473 304.688 735.198 304.688C733.167 304.688 730.809 305.245 728.124 306.358C725.438 307.472 722.786 309.273 720.166 311.762C717.546 314.185 715.22 317.46 713.19 321.587V294.666C717.775 290.212 722.753 286.184 728.124 282.582C733.56 278.979 739.783 277.178 746.792 277.178C752.752 277.178 757.763 278.684 761.824 281.697C765.95 284.645 769.061 288.739 771.157 293.979C773.253 299.219 774.301 305.277 774.301 312.155V352.438ZM109.04 529.378C109.04 539.662 106.944 548.275 102.752 555.218C98.6255 562.096 92.927 567.27 85.6565 570.742C78.4515 574.213 70.1985 575.949 60.8975 575.949H32.1103V552.958C33.8788 552.827 36.597 552.696 40.265 552.565C43.933 552.434 47.5028 552.336 50.9743 552.271C54.5113 552.14 56.9348 552.074 58.2448 552.074C63.4848 552.074 67.4475 550.83 70.133 548.341C72.8185 545.852 74.6198 542.871 75.5368 539.4C76.4538 535.863 76.9123 532.522 76.9123 529.378C76.9123 526.3 76.4538 523.025 75.5368 519.553C74.6198 516.016 72.8185 513.003 70.133 510.514C67.4475 508.025 63.4848 506.781 58.2448 506.781C56.2798 506.781 54.3148 506.781 52.3498 506.781C50.3848 506.715 48.0923 506.65 45.4723 506.584V618C42.8523 618.459 40.0685 618.753 37.121 618.884C34.239 619.081 31.75 619.179 29.654 619.179C27.7545 619.179 25.2983 619.081 22.2853 618.884C19.2723 618.753 16.4885 618.459 13.934 618V484.773L15.3095 483.397C23.6935 483.201 31.5208 483.037 38.7913 482.906C46.1273 482.71 53.496 482.611 60.8975 482.611C70.1985 482.611 78.4515 484.314 85.6565 487.72C92.927 491.061 98.6255 496.203 102.752 503.146C106.944 510.023 109.04 518.767 109.04 529.378ZM116.77 591.178C116.77 583.318 118.604 576.866 122.272 571.822C125.94 566.779 130.721 563.045 136.616 560.622C142.577 558.198 148.93 556.987 155.677 556.987C158.624 556.987 162.325 557.052 166.779 557.183C171.298 557.314 175.359 557.74 178.962 558.46V577.914C176.145 577.259 172.739 576.899 168.744 576.833C164.814 576.702 161.539 576.637 158.919 576.637C154.596 576.637 151.452 577.816 149.487 580.174C147.587 582.466 146.638 585.446 146.638 589.115C146.638 591.734 147.456 593.929 149.094 595.697C150.731 597.4 152.926 598.252 155.677 598.252C159.607 598.252 163.602 596.843 167.663 594.027C171.79 591.21 175.228 587.346 177.979 582.433L182.302 601.887C179.748 604.9 176.833 607.88 173.558 610.828C170.283 613.71 166.451 616.1 162.063 618C157.674 619.965 152.533 620.948 146.638 620.948C139.891 620.948 134.291 619.441 129.837 616.428C125.448 613.415 122.173 609.649 120.012 605.129C117.85 600.544 116.77 595.894 116.77 591.178ZM205.882 603.852C205.358 606.537 204.147 609.452 202.247 612.596C200.348 615.74 198.448 618.066 196.549 619.572C190.785 619.441 186.003 618.131 182.204 615.642C178.471 613.153 175.589 610.107 173.558 606.505C171.593 602.837 170.316 599.267 169.726 595.795V553.744C169.726 549.618 168.678 546.507 166.582 544.411C164.552 542.315 161.31 541.267 156.856 541.267C152.664 541.267 148.079 541.954 143.101 543.33C138.123 544.64 133.046 546.048 127.872 547.555C125.71 545.066 124.007 541.856 122.763 537.926C121.584 533.931 120.831 530.033 120.503 526.234C124.892 524.466 129.771 522.927 135.142 521.617C140.513 520.307 145.852 519.324 151.157 518.669C156.463 517.949 161.244 517.588 165.502 517.588C171.2 517.588 176.702 518.669 182.008 520.831C187.379 522.927 191.767 526.431 195.173 531.343C198.645 536.256 200.38 542.839 200.38 551.092V591.079C200.38 593.896 200.806 596.385 201.658 598.546C202.575 600.708 203.983 602.476 205.882 603.852ZM289.531 520.241C289.531 523.844 288.876 528.461 287.566 534.094C286.256 539.662 284.357 544.607 281.868 548.93C280.099 548.275 278.396 547.817 276.759 547.555C275.121 547.293 273.451 547.063 271.748 546.867C269.128 546.867 266.77 547.358 264.674 548.341C262.578 549.258 260.646 550.633 258.877 552.467C257.174 554.301 255.57 556.561 254.063 559.246C252.622 561.932 251.214 565.01 249.838 568.482L246.4 563.864C246.727 558.493 247.415 553.122 248.463 547.751C249.511 542.38 251.116 537.5 253.277 533.112C255.504 528.723 258.484 525.219 262.218 522.599C265.951 519.914 270.7 518.571 276.464 518.571C279.477 518.571 281.901 518.735 283.735 519.062C285.634 519.39 287.566 519.783 289.531 520.241ZM217.514 534.193C218.104 531.442 219.315 528.494 221.149 525.35C223.049 522.206 224.948 519.881 226.848 518.374C235.887 519.029 242.699 522.403 247.284 528.494C251.934 534.52 254.718 542.446 255.635 552.271V618C253.474 618.393 251.017 618.688 248.266 618.884C245.581 619.081 242.928 619.179 240.308 619.179C237.754 619.179 235.101 619.081 232.35 618.884C229.664 618.688 227.175 618.393 224.883 618V554.53C224.883 548.766 224.031 544.214 222.328 540.874C220.691 537.533 219.086 535.306 217.514 534.193ZM312.83 508.844C312.83 501.967 314.075 497.185 316.564 494.5C319.118 491.749 323.409 490.373 329.435 490.373H341.421L342.797 491.749V586.363C342.797 589.311 343.452 591.603 344.762 593.241C346.137 594.813 348.397 595.599 351.541 595.599H362.545C364.182 600.315 365.001 605.162 365.001 610.14C365.001 611.253 364.936 612.432 364.805 613.677C364.674 614.921 364.477 616.035 364.215 617.017C360.613 617.541 356.453 618 351.737 618.393C347.021 618.786 342.698 618.983 338.768 618.983C329.86 618.983 323.31 616.788 319.118 612.4C314.926 607.946 312.83 601.035 312.83 591.669V508.844ZM366.082 519.75C366.999 523.221 367.457 526.791 367.457 530.459C367.457 534.52 366.999 538.221 366.082 541.561L329.435 540.972L297.405 541.561C296.554 538.221 296.128 534.52 296.128 530.459C296.128 526.791 296.554 523.221 297.405 519.75L330.319 520.241L366.082 519.75ZM416.034 618C413.873 618.393 411.417 618.688 408.666 618.884C405.98 619.081 403.327 619.179 400.707 619.179C398.153 619.179 395.5 619.081 392.749 618.884C390.064 618.688 387.575 618.393 385.282 618V552.958C385.282 549.683 384.594 546.965 383.219 544.804C381.909 542.642 379.518 541.561 376.047 541.561H373.099C372.248 538.352 371.822 534.88 371.822 531.147C371.822 529.444 371.92 527.643 372.117 525.743C372.313 523.778 372.641 521.911 373.099 520.143C376.112 519.815 379.191 519.586 382.335 519.455C385.544 519.259 388.23 519.16 390.391 519.16H394.616C401.166 519.16 406.373 521.289 410.238 525.547C414.102 529.739 416.034 535.437 416.034 542.642V618ZM379.387 492.338C379.387 488.277 380.14 484.445 381.647 480.843C383.35 479.991 385.544 479.271 388.23 478.681C390.981 478.092 393.666 477.797 396.286 477.797C398.906 477.797 401.624 478.092 404.441 478.681C407.257 479.271 409.419 479.991 410.925 480.843C411.646 482.677 412.203 484.609 412.596 486.64C412.989 488.67 413.185 490.57 413.185 492.338C413.185 496.334 412.432 500.133 410.925 503.735C409.419 504.587 407.257 505.307 404.441 505.897C401.624 506.486 398.906 506.781 396.286 506.781C393.666 506.781 390.948 506.519 388.131 505.995C385.38 505.405 383.219 504.652 381.647 503.735C380.14 500.133 379.387 496.334 379.387 492.338ZM488.219 563.471C488.284 558.428 488.055 554.137 487.531 550.6C487.073 547.063 486.025 544.378 484.387 542.544C482.75 540.71 480.228 539.793 476.822 539.793C472.237 539.793 469.06 542.118 467.292 546.769C465.589 551.419 464.737 558.886 464.737 569.17C464.737 579.584 466.178 586.822 469.06 590.883C471.942 594.944 476.167 596.974 481.734 596.974C485.599 596.974 489.398 596.156 493.131 594.518C496.865 592.815 500.271 590.883 503.349 588.721C505.773 590.097 508.131 592.553 510.423 596.09C512.716 599.562 514.222 602.804 514.943 605.817C510.554 610.402 504.889 614.07 497.946 616.821C491.068 619.572 483.994 620.948 476.724 620.948C469.65 620.948 463.427 619.736 458.056 617.312C452.685 614.823 448.166 611.319 444.498 606.799C440.83 602.28 438.046 596.843 436.146 590.49C434.312 584.136 433.395 577.03 433.395 569.17C433.395 559.672 434.64 551.616 437.129 545C439.683 538.319 443.089 532.948 447.347 528.887C451.604 524.761 456.32 521.748 461.495 519.848C466.735 517.949 472.04 516.999 477.411 516.999C482.913 516.999 487.99 517.785 492.64 519.357C497.356 520.929 501.417 523.156 504.823 526.038C508.295 528.92 510.98 532.359 512.88 536.354C514.779 540.35 515.729 544.771 515.729 549.618C515.729 554.792 514.288 558.591 511.406 561.015C508.589 563.373 505.02 564.552 500.697 564.552C498.077 564.552 495.817 564.486 493.917 564.355C492.018 564.159 490.118 563.864 488.219 563.471ZM569.742 618C567.58 618.393 565.124 618.688 562.373 618.884C559.688 619.081 557.035 619.179 554.415 619.179C551.86 619.179 549.208 619.081 546.457 618.884C543.771 618.688 541.282 618.393 538.99 618V552.958C538.99 549.683 538.302 546.965 536.926 544.804C535.616 542.642 533.226 541.561 529.754 541.561H526.807C525.955 538.352 525.529 534.88 525.529 531.147C525.529 529.444 525.628 527.643 525.824 525.743C526.021 523.778 526.348 521.911 526.807 520.143C529.82 519.815 532.898 519.586 536.042 519.455C539.252 519.259 541.937 519.16 544.099 519.16H548.323C554.873 519.16 560.081 521.289 563.945 525.547C567.81 529.739 569.742 535.437 569.742 542.642V618ZM533.095 492.338C533.095 488.277 533.848 484.445 535.354 480.843C537.057 479.991 539.252 479.271 541.937 478.681C544.688 478.092 547.374 477.797 549.994 477.797C552.614 477.797 555.332 478.092 558.148 478.681C560.965 479.271 563.126 479.991 564.633 480.843C565.353 482.677 565.91 484.609 566.303 486.64C566.696 488.67 566.893 490.57 566.893 492.338C566.893 496.334 566.139 500.133 564.633 503.735C563.126 504.587 560.965 505.307 558.148 505.897C555.332 506.486 552.614 506.781 549.994 506.781C547.374 506.781 544.655 506.519 541.839 505.995C539.088 505.405 536.926 504.652 535.354 503.735C533.848 500.133 533.095 496.334 533.095 492.338ZM602.43 518.571C608.653 518.571 613.631 520.896 617.364 525.547C621.163 530.132 623.063 536.452 623.063 544.509V641.973C623.063 648.785 621.753 653.567 619.133 656.318C616.578 659.069 612.288 660.444 606.262 660.444H594.275L592.9 659.069V519.946L594.275 518.571H602.43ZM680.637 567.794C680.637 579.06 678.836 588.59 675.233 596.385C671.696 604.114 666.948 609.976 660.987 613.972C655.027 617.967 648.444 619.965 641.239 619.965C634.427 619.965 628.368 618.557 623.063 615.74C617.823 612.924 613.041 610.173 608.718 607.487L613.631 585.774C617.43 588.852 621.294 591.505 625.224 593.732C629.154 595.959 632.691 597.073 635.835 597.073C639.045 597.073 641.599 595.894 643.499 593.536C645.464 591.112 646.905 587.706 647.822 583.318C648.739 578.864 649.197 573.624 649.197 567.598C649.197 561.506 648.673 556.561 647.625 552.762C646.643 548.963 645.234 546.179 643.4 544.411C641.632 542.577 639.601 541.66 637.309 541.66C635.278 541.66 632.855 542.282 630.038 543.526C627.287 544.771 624.569 547.194 621.884 550.797C619.264 554.334 617.069 559.574 615.301 566.517L608.423 549.127C609.078 543.821 611.109 538.712 614.515 533.8C617.921 528.887 622.277 524.859 627.582 521.715C632.953 518.571 638.848 516.999 645.267 516.999C653.258 516.999 659.874 519.16 665.114 523.483C670.354 527.806 674.251 533.8 676.805 541.463C679.36 549.061 680.637 557.838 680.637 567.794ZM692.837 591.178C692.837 583.318 694.671 576.866 698.339 571.822C702.007 566.779 706.788 563.045 712.683 560.622C718.644 558.198 724.997 556.987 731.744 556.987C734.691 556.987 738.392 557.052 742.846 557.183C747.366 557.314 751.427 557.74 755.029 558.46V577.914C752.213 577.259 748.807 576.899 744.811 576.833C740.881 576.702 737.606 576.637 734.986 576.637C730.663 576.637 727.519 577.816 725.554 580.174C723.655 582.466 722.705 585.446 722.705 589.115C722.705 591.734 723.524 593.929 725.161 595.697C726.799 597.4 728.993 598.252 731.744 598.252C735.674 598.252 739.669 596.843 743.73 594.027C747.857 591.21 751.296 587.346 754.047 582.433L758.37 601.887C755.815 604.9 752.9 607.88 749.625 610.828C746.35 613.71 742.519 616.1 738.13 618C733.742 619.965 728.6 620.948 722.705 620.948C715.958 620.948 710.358 619.441 705.904 616.428C701.516 613.415 698.241 609.649 696.079 605.129C693.918 600.544 692.837 595.894 692.837 591.178ZM781.95 603.852C781.426 606.537 780.214 609.452 778.314 612.596C776.415 615.74 774.515 618.066 772.616 619.572C766.852 619.441 762.07 618.131 758.271 615.642C754.538 613.153 751.656 610.107 749.625 606.505C747.66 602.837 746.383 599.267 745.794 595.795V553.744C745.794 549.618 744.746 546.507 742.65 544.411C740.619 542.315 737.377 541.267 732.923 541.267C728.731 541.267 724.146 541.954 719.168 543.33C714.19 544.64 709.114 546.048 703.939 547.555C701.778 545.066 700.075 541.856 698.83 537.926C697.651 533.931 696.898 530.033 696.57 526.234C700.959 524.466 705.839 522.927 711.21 521.617C716.581 520.307 721.919 519.324 727.224 518.669C732.53 517.949 737.311 517.588 741.569 517.588C747.267 517.588 752.769 518.669 758.075 520.831C763.446 522.927 767.834 526.431 771.24 531.343C774.712 536.256 776.448 542.839 776.448 551.092V591.079C776.448 593.896 776.873 596.385 777.725 598.546C778.642 600.708 780.05 602.476 781.95 603.852ZM801.97 508.844C801.97 501.967 803.214 497.185 805.703 494.5C808.258 491.749 812.548 490.373 818.574 490.373H830.56L831.936 491.749V586.363C831.936 589.311 832.591 591.603 833.901 593.241C835.276 594.813 837.536 595.599 840.68 595.599H851.684C853.322 600.315 854.14 605.162 854.14 610.14C854.14 611.253 854.075 612.432 853.944 613.677C853.813 614.921 853.616 616.035 853.354 617.017C849.752 617.541 845.593 618 840.877 618.393C836.161 618.786 831.838 618.983 827.908 618.983C819 618.983 812.45 616.788 808.258 612.4C804.066 607.946 801.97 601.035 801.97 591.669V508.844ZM855.221 519.75C856.138 523.221 856.597 526.791 856.597 530.459C856.597 534.52 856.138 538.221 855.221 541.561L818.574 540.972L786.544 541.561C785.693 538.221 785.267 534.52 785.267 530.459C785.267 526.791 785.693 523.221 786.544 519.75L819.458 520.241L855.221 519.75ZM905.174 618C903.012 618.393 900.556 618.688 897.805 618.884C895.119 619.081 892.467 619.179 889.847 619.179C887.292 619.179 884.639 619.081 881.888 618.884C879.203 618.688 876.714 618.393 874.421 618V552.958C874.421 549.683 873.734 546.965 872.358 544.804C871.048 542.642 868.657 541.561 865.186 541.561H862.238C861.387 538.352 860.961 534.88 860.961 531.147C860.961 529.444 861.059 527.643 861.256 525.743C861.452 523.778 861.78 521.911 862.238 520.143C865.251 519.815 868.33 519.586 871.474 519.455C874.683 519.259 877.369 519.16 879.53 519.16H883.755C890.305 519.16 895.512 521.289 899.377 525.547C903.241 529.739 905.174 535.437 905.174 542.642V618ZM868.526 492.338C868.526 488.277 869.28 484.445 870.786 480.843C872.489 479.991 874.683 479.271 877.369 478.681C880.12 478.092 882.805 477.797 885.425 477.797C888.045 477.797 890.764 478.092 893.58 478.681C896.397 479.271 898.558 479.991 900.065 480.843C900.785 482.677 901.342 484.609 901.735 486.64C902.128 488.67 902.324 490.57 902.324 492.338C902.324 496.334 901.571 500.133 900.065 503.735C898.558 504.587 896.397 505.307 893.58 505.897C890.764 506.486 888.045 506.781 885.425 506.781C882.805 506.781 880.087 506.519 877.271 505.995C874.52 505.405 872.358 504.652 870.786 503.735C869.28 500.133 868.526 496.334 868.526 492.338ZM1013.32 568.973C1013.32 579.453 1011.58 588.59 1008.11 596.385C1004.64 604.179 999.53 610.238 992.783 614.561C986.037 618.819 977.751 620.948 967.926 620.948C957.97 620.948 949.619 618.786 942.872 614.463C936.126 610.14 931.05 604.081 927.644 596.287C924.238 588.492 922.535 579.388 922.535 568.973C922.535 558.428 924.238 549.29 927.644 541.561C931.115 533.767 936.224 527.741 942.971 523.483C949.717 519.16 958.036 516.999 967.926 516.999C977.882 516.999 986.201 519.16 992.882 523.483C999.628 527.806 1004.7 533.865 1008.11 541.66C1011.58 549.389 1013.32 558.493 1013.32 568.973ZM954.073 568.973C954.073 574.344 954.368 579.224 954.957 583.612C955.612 588.001 956.922 591.505 958.887 594.125C960.852 596.68 963.865 597.957 967.926 597.957C971.922 597.957 974.902 596.68 976.867 594.125C978.897 591.505 980.207 588.001 980.797 583.612C981.452 579.224 981.779 574.344 981.779 568.973C981.779 563.537 981.452 558.624 980.797 554.236C980.207 549.847 978.897 546.376 976.867 543.821C974.902 541.201 971.922 539.891 967.926 539.891C963.865 539.891 960.852 541.201 958.887 543.821C956.922 546.376 955.612 549.847 954.957 554.236C954.368 558.624 954.073 563.537 954.073 568.973ZM1043.96 518.571C1049.86 518.571 1054.28 520.569 1057.23 524.564C1060.24 528.56 1061.75 533.996 1061.75 540.874V618C1059.59 618.393 1057.13 618.688 1054.38 618.884C1051.69 619.081 1049.04 619.179 1046.42 619.179C1043.87 619.179 1041.21 619.081 1038.46 618.884C1035.71 618.688 1033.22 618.393 1030.99 618V519.946L1032.37 518.571H1043.96ZM1115.49 593.438C1115.49 597.302 1115.85 600.904 1116.57 604.245C1117.29 607.52 1118.57 610.435 1120.4 612.989C1118.11 614.889 1115.29 616.461 1111.95 617.705C1108.61 618.95 1105.04 619.572 1101.24 619.572C1095.09 619.572 1090.8 617.934 1088.37 614.659C1085.95 611.384 1084.74 606.668 1084.74 600.511V558.755C1084.74 554.301 1084.15 551.026 1082.97 548.93C1081.86 546.769 1079.66 545.688 1076.39 545.688C1074.36 545.688 1072 546.245 1069.31 547.358C1066.63 548.472 1063.97 550.273 1061.35 552.762C1058.73 555.185 1056.41 558.46 1054.38 562.587V535.666C1058.96 531.212 1063.94 527.184 1069.31 523.582C1074.75 519.979 1080.97 518.178 1087.98 518.178C1093.94 518.178 1098.95 519.684 1103.01 522.697C1107.14 525.645 1110.25 529.739 1112.35 534.979C1114.44 540.219 1115.49 546.277 1115.49 553.155V593.438ZM44.0968 724.79C46.5858 724.397 49.566 724.103 53.0375 723.906C56.5745 723.71 59.653 723.611 62.273 723.611C64.762 723.611 67.775 723.742 71.312 724.004C74.849 724.201 77.8948 724.528 80.4493 724.987L122.697 856.937C120.535 858.181 117.719 859.131 114.247 859.786C110.841 860.441 107.665 860.769 104.717 860.769C99.739 860.769 95.8418 859.622 93.0253 857.33C90.2088 854.972 87.8508 850.419 85.9513 843.673L71.9015 793.86C70.395 788.358 68.6265 781.874 66.596 774.407C64.5655 766.94 62.7315 759.964 61.094 753.479H59.915C59.26 757.147 58.3758 761.208 57.2623 765.662C56.1488 770.116 54.9698 774.57 53.7253 779.024C52.5463 783.413 51.4328 787.376 50.3848 790.913L30.3418 859.197C28.3768 859.655 26.248 859.95 23.9555 860.081C21.7285 860.277 19.4033 860.376 16.9798 860.376C14.6218 860.376 11.9363 860.179 8.92325 859.786C5.97575 859.393 3.61775 858.869 1.84925 858.214L0.67025 856.544L44.0968 724.79ZM46.4548 830.9C45.5378 830.9 44.457 830.9 43.2125 830.9C42.0335 830.835 40.8218 830.802 39.5773 830.802C38.3983 830.737 37.3503 830.704 36.4333 830.704H19.9273L29.4575 806.24H43.9985C44.9155 806.24 45.9635 806.24 47.1425 806.24C48.3215 806.174 49.5005 806.141 50.6795 806.141C51.8585 806.076 52.9065 806.043 53.8235 806.043H68.168C69.085 806.043 70.133 806.076 71.312 806.141C72.491 806.141 73.67 806.174 74.849 806.24C76.0935 806.24 77.1743 806.24 78.0913 806.24H93.1235L101.082 830.704H84.4775C83.5605 830.704 82.4798 830.737 81.2353 830.802C80.0563 830.802 78.8445 830.835 77.6 830.9C76.421 830.9 75.373 830.9 74.456 830.9H46.4548ZM182.147 804.471C182.213 799.428 181.983 795.137 181.459 791.6C181.001 788.063 179.953 785.378 178.315 783.544C176.678 781.71 174.156 780.793 170.75 780.793C166.165 780.793 162.988 783.118 161.22 787.769C159.517 792.419 158.665 799.886 158.665 810.17C158.665 820.584 160.106 827.822 162.988 831.883C165.87 835.944 170.095 837.974 175.663 837.974C179.527 837.974 183.326 837.156 187.06 835.518C190.793 833.815 194.199 831.883 197.278 829.721C199.701 831.097 202.059 833.553 204.352 837.09C206.644 840.562 208.151 843.804 208.871 846.817C204.483 851.402 198.817 855.07 191.874 857.821C184.996 860.572 177.922 861.948 170.652 861.948C163.578 861.948 157.355 860.736 151.984 858.312C146.613 855.823 142.094 852.319 138.426 847.799C134.758 843.28 131.974 837.843 130.075 831.49C128.241 825.136 127.324 818.03 127.324 810.17C127.324 800.672 128.568 792.616 131.057 786C133.612 779.319 137.018 773.948 141.275 769.887C145.533 765.761 150.249 762.748 155.423 760.848C160.663 758.949 165.969 757.999 171.34 757.999C176.842 757.999 181.918 758.785 186.568 760.357C191.284 761.929 195.345 764.156 198.751 767.038C202.223 769.92 204.908 773.359 206.808 777.354C208.707 781.35 209.657 785.771 209.657 790.618C209.657 795.792 208.216 799.591 205.334 802.015C202.518 804.373 198.948 805.552 194.625 805.552C192.005 805.552 189.745 805.486 187.846 805.355C185.946 805.159 184.047 804.864 182.147 804.471ZM256.446 859C254.284 859.393 251.861 859.688 249.175 859.884C246.49 860.081 243.837 860.179 241.217 860.179C235.846 860.179 230.901 859.786 226.381 859V715.751L227.757 714.376H239.743C245.769 714.376 250.059 715.751 252.614 718.502C255.168 721.253 256.446 726.035 256.446 732.847V859ZM306.553 834.241C308.191 839.35 309.664 843.051 310.974 845.343C312.284 847.636 313.955 849.502 315.985 850.943C313.562 853.694 310.516 855.987 306.848 857.821C303.18 859.655 299.348 860.572 295.353 860.572C290.964 860.572 287.656 859.524 285.429 857.428C283.268 855.332 281.368 851.828 279.731 846.915L273.934 829.918C272.559 825.726 270.987 822.975 269.218 821.665C267.45 820.355 265.223 819.7 262.537 819.7C259.721 819.7 257.264 819.831 255.168 820.093C253.072 820.289 250.944 820.519 248.782 820.781L240.824 821.763V800.639H271.674C278.814 800.639 285.036 802.146 290.342 805.159C295.647 808.172 299.446 813.084 301.739 819.896L306.553 834.241ZM295.647 791.404C292.7 797.233 288.41 801.589 282.777 804.471C277.144 807.353 270.07 808.794 261.555 808.794H244.557V794.744L259.491 794.548C260.867 794.548 261.948 794.319 262.734 793.86C263.52 793.402 264.306 792.485 265.092 791.109L275.31 771.361C277.144 767.627 279.403 764.844 282.089 763.01C284.84 761.11 288.279 760.16 292.405 760.16C295.68 760.16 298.66 760.193 301.346 760.259C304.031 760.324 306.782 760.422 309.599 760.553L310.778 762.125L295.647 791.404ZM342.206 759.571C348.101 759.571 352.522 761.569 355.469 765.564C358.482 769.56 359.989 774.996 359.989 781.874V859C357.827 859.393 355.371 859.688 352.62 859.884C349.935 860.081 347.282 860.179 344.662 860.179C342.107 860.179 339.455 860.081 336.704 859.884C333.953 859.688 331.464 859.393 329.237 859V760.946L330.612 759.571H342.206ZM413.732 834.438C413.732 838.302 414.092 841.904 414.812 845.245C415.533 848.52 416.81 851.435 418.644 853.989C416.352 855.889 413.535 857.461 410.195 858.705C406.854 859.95 403.284 860.572 399.485 860.572C393.328 860.572 389.038 858.934 386.615 855.659C384.191 852.384 382.979 847.668 382.979 841.511V799.755C382.979 795.301 382.39 792.026 381.211 789.93C380.097 787.769 377.903 786.688 374.628 786.688C372.598 786.688 370.24 787.245 367.554 788.358C364.869 789.472 362.216 791.273 359.596 793.762C356.976 796.185 354.651 799.46 352.62 803.587V776.666C357.205 772.212 362.183 768.184 367.554 764.582C372.991 760.979 379.213 759.178 386.222 759.178C392.182 759.178 397.193 760.684 401.254 763.697C405.38 766.645 408.492 770.739 410.588 775.979C412.684 781.219 413.732 787.277 413.732 794.155V834.438ZM521.684 809.973C521.684 820.453 519.948 829.59 516.477 837.385C513.005 845.179 507.896 851.238 501.15 855.561C494.403 859.819 486.117 861.948 476.292 861.948C466.336 861.948 457.985 859.786 451.239 855.463C444.492 851.14 439.416 845.081 436.01 837.287C432.604 829.492 430.901 820.388 430.901 809.973C430.901 799.428 432.604 790.29 436.01 782.561C439.481 774.767 444.59 768.741 451.337 764.483C458.083 760.16 466.402 757.999 476.292 757.999C486.248 757.999 494.567 760.16 501.248 764.483C507.994 768.806 513.071 774.865 516.477 782.66C519.948 790.389 521.684 799.493 521.684 809.973ZM462.439 809.973C462.439 815.344 462.734 820.224 463.323 824.612C463.978 829.001 465.288 832.505 467.253 835.125C469.218 837.68 472.231 838.957 476.292 838.957C480.288 838.957 483.268 837.68 485.233 835.125C487.264 832.505 488.574 829.001 489.163 824.612C489.818 820.224 490.146 815.344 490.146 809.973C490.146 804.537 489.818 799.624 489.163 795.236C488.574 790.847 487.264 787.376 485.233 784.821C483.268 782.201 480.288 780.891 476.292 780.891C472.231 780.891 469.218 782.201 467.253 784.821C465.288 787.376 463.978 790.847 463.323 795.236C462.734 799.624 462.439 804.537 462.439 809.973ZM528.362 762.813C531.309 761.634 534.224 760.75 537.106 760.16C539.988 759.505 542.772 759.178 545.457 759.178C550.37 759.178 553.809 760.324 555.774 762.617C557.804 764.909 559.245 768.119 560.097 772.245L566.188 803.98C567.498 810.333 568.579 816.196 569.43 821.567C570.347 826.938 570.97 831.326 571.297 834.732C571.494 835.78 572.018 836.304 572.869 836.304L583.677 762.027C586.1 761.438 589.179 761.045 592.912 760.848C596.646 760.586 599.462 760.455 601.362 760.455C603.392 760.455 606.34 760.586 610.204 760.848C614.134 761.045 617.245 761.438 619.538 762.027L630.64 834.732C630.837 835.78 631.361 836.304 632.212 836.304C632.867 831.785 633.62 826.807 634.472 821.37C635.389 815.868 636.437 810.071 637.616 803.98L646.36 761.045C648.063 760.586 649.995 760.259 652.157 760.062C654.318 759.866 656.283 759.768 658.052 759.768C660.148 759.768 662.833 759.931 666.108 760.259C669.449 760.586 672.2 761.274 674.361 762.322L675.246 764.189L652.353 859C649.275 859.459 645.64 859.753 641.448 859.884C637.256 860.081 633.358 860.179 629.756 860.179C623.861 860.179 619.374 859.36 616.296 857.723C613.283 856.085 611.35 852.253 610.499 846.227L607.158 825.104C606.7 821.894 606.176 818.292 605.586 814.296C604.997 810.235 604.375 805.978 603.72 801.524C603.13 797.07 602.606 792.583 602.148 788.063H600.969C600.445 792.517 599.888 796.939 599.298 801.327C598.709 805.716 598.087 809.908 597.432 813.903C596.842 817.899 596.318 821.501 595.86 824.711L590.358 859C587.148 859.393 583.382 859.688 579.059 859.884C574.801 860.081 570.839 860.179 567.171 860.179C561.407 860.179 557.018 859.262 554.005 857.428C550.992 855.528 548.798 851.664 547.422 845.834L528.362 762.813ZM731.417 836.599C733.054 841.315 733.873 846.162 733.873 851.14C733.873 852.253 733.808 853.432 733.677 854.677C733.611 855.921 733.415 857.035 733.087 858.017C730.14 858.541 726.799 859 723.066 859.393C719.398 859.786 715.697 859.983 711.963 859.983C703.055 859.983 696.735 857.788 693.001 853.4C689.333 848.946 687.499 842.035 687.499 832.669V715.751L688.875 714.376H700.861C706.887 714.376 711.145 715.751 713.634 718.502C716.188 721.253 717.465 726.035 717.465 732.847V827.265C717.465 830.278 718.12 832.603 719.43 834.241C720.74 835.813 722.935 836.599 726.013 836.599H731.417ZM761.228 819.896V798.773H798.268V796.513C798.268 793.5 797.843 790.749 796.991 788.26C796.14 785.705 794.764 783.675 792.865 782.168C790.965 780.596 788.476 779.81 785.398 779.81C780.616 779.81 777.243 781.775 775.278 785.705C773.378 789.635 772.429 795.694 772.429 803.882V813.117C772.429 817.637 772.822 821.829 773.608 825.693C774.394 829.492 776.064 832.571 778.618 834.929C781.173 837.287 785.07 838.466 790.31 838.466C794.764 838.466 799.12 837.909 803.377 836.795C807.7 835.616 811.827 834.208 815.757 832.571C818.049 834.863 819.883 837.712 821.259 841.118C822.634 844.524 823.551 847.734 824.01 850.747C819.032 854.349 813.071 857.1 806.128 859C799.251 860.965 792.308 861.948 785.299 861.948C776.719 861.948 769.579 860.507 763.881 857.624C758.248 854.742 753.794 850.878 750.519 846.031C747.244 841.184 744.919 835.715 743.543 829.623C742.233 823.466 741.578 817.145 741.578 810.661C741.578 800.77 743.052 791.862 745.999 783.937C749.012 775.946 753.761 769.625 760.246 764.975C766.73 760.324 775.18 757.999 785.594 757.999C794.175 757.999 801.511 759.833 807.602 763.501C813.759 767.169 818.442 772.147 821.652 778.435C824.927 784.723 826.564 791.797 826.564 799.657C826.564 804.045 826.368 807.713 825.975 810.661C825.582 813.543 824.894 816.621 823.912 819.896H761.228ZM926.896 830.606C926.896 833.75 927.387 836.599 928.37 839.153C929.418 841.708 930.761 843.607 932.398 844.852C931.809 847.537 930.564 850.452 928.665 853.596C926.831 856.74 924.964 859.066 923.064 860.572C914.418 860.376 907.901 857.461 903.513 851.828C899.124 846.129 896.93 839.186 896.93 830.999V715.751L898.305 714.376H910.292C916.318 714.376 920.575 715.751 923.064 718.502C925.619 721.253 926.896 726.035 926.896 732.847V830.606ZM839.454 811.152C839.454 799.886 841.222 790.389 844.759 782.66C848.362 774.865 853.143 768.97 859.104 764.975C865.064 760.979 871.647 758.981 878.852 758.981C885.664 758.981 891.69 760.39 896.93 763.206C902.235 766.023 907.05 768.741 911.373 771.361L906.46 793.172C902.661 790.028 898.797 787.343 894.867 785.116C890.937 782.889 887.367 781.775 884.157 781.775C881.013 781.775 878.459 782.987 876.494 785.411C874.529 787.834 873.088 791.24 872.171 795.629C871.319 800.017 870.894 805.257 870.894 811.349C870.894 817.375 871.385 822.32 872.367 826.184C873.415 829.983 874.824 832.8 876.592 834.634C878.426 836.402 880.457 837.287 882.684 837.287C884.78 837.287 887.203 836.664 889.954 835.42C892.705 834.11 895.423 831.686 898.109 828.149C900.794 824.612 902.989 819.372 904.692 812.429L911.569 829.82C910.98 835.125 908.982 840.234 905.576 845.147C902.17 850.059 897.781 854.087 892.41 857.231C887.105 860.376 881.21 861.948 874.725 861.948C866.734 861.948 860.119 859.786 854.879 855.463C849.704 851.14 845.84 845.179 843.285 837.581C840.731 829.918 839.454 821.108 839.454 811.152ZM1038.33 775.094C1036.69 776.273 1035.35 778.173 1034.3 780.793C1033.32 783.347 1032.83 786.164 1032.83 789.242V841.118C1032.83 850.288 1032.4 857.854 1031.55 863.814C1030.76 869.775 1029.62 874.655 1028.11 878.454C1026.6 882.253 1024.8 885.462 1022.71 888.082C1018.84 892.995 1013.7 896.597 1007.28 898.89C1000.86 901.248 993.723 902.427 985.863 902.427C979.706 902.427 973.287 901.804 966.606 900.56C959.925 899.381 954.03 897.842 948.921 895.942C948.921 892.34 949.641 888.377 951.082 884.054C952.523 879.731 954.325 876.292 956.486 873.738C960.678 875.572 965.067 877.013 969.652 878.061C974.237 879.109 978.691 879.633 983.014 879.633C987.795 879.633 991.627 878.814 994.509 877.176C997.456 875.539 999.585 873.214 1000.9 870.201C1002.21 867.253 1002.86 863.749 1002.86 859.688V788.849C1002.86 780.727 1005.05 773.817 1009.44 768.119C1013.83 762.42 1020.35 759.505 1028.99 759.374C1030.89 760.881 1032.83 763.206 1034.79 766.35C1036.76 769.429 1037.94 772.343 1038.33 775.094ZM945.187 810.17C945.187 798.904 946.956 789.406 950.493 781.677C954.095 773.883 958.877 767.988 964.837 763.992C970.863 759.997 977.446 757.999 984.586 757.999C990.939 757.999 996.376 759.047 1000.9 761.143C1005.41 763.239 1009.15 765.826 1012.1 768.905C1015.04 771.918 1017.37 774.832 1019.07 777.649L1014.06 802.703C1010.26 795.629 1006.17 790.225 1001.78 786.491C997.456 782.692 993.526 780.793 989.989 780.793C986.78 780.793 984.193 782.005 982.228 784.428C980.263 786.786 978.822 790.192 977.905 794.646C977.053 799.035 976.627 804.275 976.627 810.366C976.627 819.471 977.708 826.086 979.87 830.213C982.097 834.274 984.88 836.304 988.221 836.304C992.151 836.304 995.983 834.961 999.716 832.276C1003.52 829.59 1006.69 825.595 1009.25 820.289L1013.57 841.61C1011.41 845.343 1008.62 848.684 1005.22 851.631C1001.81 854.513 997.98 856.806 993.723 858.509C989.531 860.146 985.142 860.965 980.557 860.965C972.566 860.965 965.951 858.803 960.711 854.48C955.471 850.157 951.574 844.197 949.019 836.599C946.465 828.935 945.187 820.126 945.187 810.17ZM1068.81 759.571C1074.64 759.571 1079.06 761.569 1082.08 765.564C1085.15 769.56 1086.69 774.996 1086.69 781.874V859C1084.53 859.393 1082.08 859.688 1079.32 859.884C1076.64 860.081 1073.99 860.179 1071.37 860.179C1068.81 860.179 1066.16 860.081 1063.41 859.884C1060.66 859.688 1058.17 859.393 1055.94 859V760.946L1057.32 759.571H1068.81ZM1108.51 799.853C1108.51 794.613 1107.56 791.109 1105.66 789.341C1103.76 787.572 1101.76 786.688 1099.66 786.688C1096.85 786.753 1093.87 787.867 1090.72 790.028C1087.64 792.19 1084.83 794.843 1082.27 797.987C1079.72 801.131 1077.88 804.209 1076.77 807.222V780.695C1079.85 777.223 1083.22 773.85 1086.89 770.575C1090.62 767.234 1094.62 764.516 1098.88 762.42C1103.13 760.259 1107.62 759.178 1112.34 759.178C1118.04 759.178 1122.88 760.521 1126.88 763.206C1130.94 765.826 1134.02 769.494 1136.11 774.21C1138.21 778.861 1139.26 784.166 1139.26 790.127V859C1137.1 859.393 1134.64 859.688 1131.89 859.884C1129.2 860.081 1126.55 860.179 1123.93 860.179C1121.38 860.179 1118.72 860.081 1115.97 859.884C1113.22 859.688 1110.73 859.393 1108.51 859V799.853ZM1161.07 799.657C1161.07 794.417 1160.05 790.945 1158.02 789.242C1156.06 787.539 1154.03 786.688 1151.93 786.688C1149.31 786.688 1146.46 787.801 1143.38 790.028C1140.37 792.19 1137.52 794.941 1134.84 798.281C1132.15 801.622 1130.05 804.962 1128.55 808.303V779.909C1131.43 776.372 1134.87 773.031 1138.86 769.887C1142.93 766.678 1147.25 764.09 1151.83 762.125C1156.42 760.16 1161.04 759.178 1165.69 759.178C1171.45 759.178 1176.26 760.553 1180.13 763.304C1183.99 765.99 1186.91 769.691 1188.87 774.407C1190.84 779.123 1191.82 784.494 1191.82 790.52V834.438C1191.82 838.302 1192.18 841.904 1192.9 845.245C1193.62 848.52 1194.9 851.435 1196.73 853.989C1194.44 855.889 1191.62 857.461 1188.28 858.705C1185.01 859.95 1181.44 860.572 1177.57 860.572C1171.42 860.572 1167.13 858.934 1164.7 855.659C1162.28 852.384 1161.07 847.668 1161.07 841.511V799.657ZM1228.68 819.896V798.773H1265.72V796.513C1265.72 793.5 1265.3 790.749 1264.45 788.26C1263.59 785.705 1262.22 783.675 1260.32 782.168C1258.42 780.596 1255.93 779.81 1252.85 779.81C1248.07 779.81 1244.7 781.775 1242.73 785.705C1240.83 789.635 1239.88 795.694 1239.88 803.882V813.117C1239.88 817.637 1240.28 821.829 1241.06 825.693C1241.85 829.492 1243.52 832.571 1246.07 834.929C1248.63 837.287 1252.53 838.466 1257.77 838.466C1262.22 838.466 1266.57 837.909 1270.83 836.795C1275.16 835.616 1279.28 834.208 1283.21 832.571C1285.5 834.863 1287.34 837.712 1288.71 841.118C1290.09 844.524 1291.01 847.734 1291.46 850.747C1286.49 854.349 1280.53 857.1 1273.58 859C1266.71 860.965 1259.76 861.948 1252.75 861.948C1244.17 861.948 1237.03 860.507 1231.34 857.624C1225.7 854.742 1221.25 850.878 1217.97 846.031C1214.7 841.184 1212.37 835.715 1211 829.623C1209.69 823.466 1209.03 817.145 1209.03 810.661C1209.03 800.77 1210.51 791.862 1213.45 783.937C1216.47 775.946 1221.22 769.625 1227.7 764.975C1234.19 760.324 1242.63 757.999 1253.05 757.999C1261.63 757.999 1268.97 759.833 1275.06 763.501C1281.21 767.169 1285.9 772.147 1289.11 778.435C1292.38 784.723 1294.02 791.797 1294.02 799.657C1294.02 804.045 1293.82 807.713 1293.43 810.661C1293.04 813.543 1292.35 816.621 1291.37 819.896H1228.68ZM1325.28 759.571C1331.18 759.571 1335.6 761.569 1338.55 765.564C1341.56 769.56 1343.06 774.996 1343.06 781.874V859C1340.9 859.393 1338.45 859.688 1335.7 859.884C1333.01 860.081 1330.36 860.179 1327.74 860.179C1325.18 860.179 1322.53 860.081 1319.78 859.884C1317.03 859.688 1314.54 859.393 1312.31 859V760.946L1313.69 759.571H1325.28ZM1396.81 834.438C1396.81 838.302 1397.17 841.904 1397.89 845.245C1398.61 848.52 1399.89 851.435 1401.72 853.989C1399.43 855.889 1396.61 857.461 1393.27 858.705C1389.93 859.95 1386.36 860.572 1382.56 860.572C1376.4 860.572 1372.11 858.934 1369.69 855.659C1367.27 852.384 1366.06 847.668 1366.06 841.511V799.755C1366.06 795.301 1365.47 792.026 1364.29 789.93C1363.17 787.769 1360.98 786.688 1357.7 786.688C1355.67 786.688 1353.32 787.245 1350.63 788.358C1347.94 789.472 1345.29 791.273 1342.67 793.762C1340.05 796.185 1337.73 799.46 1335.7 803.587V776.666C1340.28 772.212 1345.26 768.184 1350.63 764.582C1356.07 760.979 1362.29 759.178 1369.3 759.178C1375.26 759.178 1380.27 760.684 1384.33 763.697C1388.46 766.645 1391.57 770.739 1393.66 775.979C1395.76 781.219 1396.81 787.277 1396.81 794.155V834.438ZM1423.9 749.844C1423.9 742.967 1425.14 738.185 1427.63 735.5C1430.19 732.749 1434.48 731.373 1440.5 731.373H1452.49L1453.87 732.749V827.363C1453.87 830.311 1454.52 832.603 1455.83 834.241C1457.21 835.813 1459.47 836.599 1462.61 836.599H1473.61C1475.25 841.315 1476.07 846.162 1476.07 851.14C1476.07 852.253 1476.01 853.432 1475.87 854.677C1475.74 855.921 1475.55 857.035 1475.28 858.017C1471.68 858.541 1467.52 859 1462.81 859.393C1458.09 859.786 1453.77 859.983 1449.84 859.983C1440.93 859.983 1434.38 857.788 1430.19 853.4C1426 848.946 1423.9 842.035 1423.9 832.669V749.844ZM1477.15 760.75C1478.07 764.221 1478.53 767.791 1478.53 771.459C1478.53 775.52 1478.07 779.221 1477.15 782.561L1440.5 781.972L1408.47 782.561C1407.62 779.221 1407.2 775.52 1407.2 771.459C1407.2 767.791 1407.62 764.221 1408.47 760.75L1441.39 761.241L1477.15 760.75Z" fill="#FF4002"/>
</svg>
