<?xml version="1.0" standalone="no"?>
<!DOCTYPE svg PUBLIC "-//W3C//DTD SVG 20010904//EN"
 "http://www.w3.org/TR/2001/REC-SVG-20010904/DTD/svg10.dtd">
<svg version="1.0" xmlns="http://www.w3.org/2000/svg"
 width="260.000000pt" height="260.000000pt" viewBox="0 0 260.000000 260.000000"
 preserveAspectRatio="xMidYMid meet">
<metadata>
Created by potrace 1.14, written by Peter Selinger 2001-2017
</metadata>
<g transform="translate(0.000000,260.000000) scale(0.100000,-0.100000)"
fill="#000000" stroke="none">
<path d="M1497 2594 c-1 -1 -42 -5 -92 -8 -49 -4 -108 -12 -130 -17 -22 -6
-47 -10 -55 -10 -8 -1 -22 -3 -30 -6 -8 -3 -22 -7 -30 -9 -34 -6 -46 -10 -57
-17 -7 -5 -17 -5 -23 -2 -5 3 -10 1 -10 -6 0 -7 -3 -10 -6 -7 -5 6 -100 -21
-149 -42 -155 -65 -332 -156 -363 -187 -7 -7 -17 -13 -22 -13 -5 0 -15 -6 -22
-12 -7 -7 -29 -24 -48 -37 -19 -14 -44 -33 -55 -43 -161 -150 -221 -222 -276
-328 -19 -36 -36 -67 -39 -70 -3 -3 -7 -14 -8 -25 -2 -11 -9 -23 -15 -27 -6
-4 -8 -10 -4 -14 4 -4 2 -12 -3 -19 -5 -6 -11 -20 -13 -31 -2 -10 -7 -27 -12
-36 -4 -10 -5 -24 -2 -32 3 -8 1 -16 -6 -19 -15 -5 -20 -284 -6 -352 6 -27 13
-63 16 -80 2 -16 8 -34 13 -39 5 -5 6 -15 3 -22 -3 -8 0 -14 7 -14 6 0 9 -4 6
-8 -3 -5 2 -21 10 -36 7 -16 14 -32 14 -37 0 -12 99 -212 108 -219 4 -3 13
-16 21 -30 42 -78 140 -199 246 -305 119 -119 137 -134 244 -209 58 -41 261
-150 261 -141 0 3 12 -3 27 -12 15 -10 27 -16 28 -14 0 2 25 -3 55 -12 175
-49 397 -54 510 -10 8 4 18 6 22 5 4 -1 22 5 41 13 19 8 37 11 41 8 3 -4 6 -1
6 5 0 7 3 11 8 10 4 -1 38 14 76 33 102 51 106 53 106 61 0 5 7 8 15 8 8 0 15
5 15 10 0 6 5 10 11 10 6 0 34 19 62 43 165 136 324 348 423 563 35 75 93 225
99 257 2 9 6 21 9 25 3 5 7 19 10 33 3 13 7 34 10 46 27 109 38 172 31 183 -3
6 -2 10 2 10 11 0 11 2 12 190 1 105 -3 183 -14 240 -16 83 -21 110 -25 120
-1 3 -3 10 -5 15 -1 6 -3 13 -5 18 -1 4 -4 12 -5 17 -1 6 -3 11 -5 13 -1 1 -3
9 -5 18 -1 9 -21 54 -42 100 -72 153 -187 278 -331 363 -44 25 -84 46 -90 46
-7 0 -12 4 -12 10 0 5 -6 7 -14 4 -8 -3 -17 0 -21 5 -3 6 -11 9 -16 6 -5 -4
-9 -1 -9 6 0 7 -3 9 -6 6 -4 -3 -14 -2 -24 3 -15 8 -40 14 -105 26 -11 2 -39
8 -62 13 -34 9 -288 22 -296 15z"/>
</g>
</svg>
