<svg width="1136" height="900" viewBox="0 0 1136 900" fill="none" xmlns="http://www.w3.org/2000/svg">
<path d="M54.8235 43.5117C56.723 40.8917 59.212 37.715 62.2905 33.9815C65.369 30.1825 68.1528 26.9402 70.6418 24.2547L70.0523 23.6652C65.4673 24.2547 60.26 24.6805 54.4305 24.9425C48.6665 25.2045 43.7868 25.3355 39.7913 25.3355H11.5935C11.135 23.5015 10.8075 21.733 10.611 20.03C10.48 18.2615 10.4145 16.5257 10.4145 14.8227C10.4145 12.1372 10.611 9.61549 11.004 7.25749C11.397 4.89949 11.921 2.41049 12.576 -0.209506H99.5273C100.903 4.703 101.885 8.40375 102.475 10.8927C103.13 13.3817 103.523 15.183 103.654 16.2965C103.785 17.3445 103.85 18.2615 103.85 19.0475C103.85 20.816 103.588 22.6172 103.064 24.4512C102.606 26.2852 101.722 28.152 100.412 30.0515L56.592 90.1805C54.6925 92.8005 52.3018 95.879 49.4198 99.416C46.5378 102.887 43.8195 105.966 41.265 108.651L41.8545 109.241C46.0465 108.913 50.959 108.619 56.592 108.357C62.225 108.029 67.1375 107.865 71.3295 107.865H82.2353C87.0168 107.865 91.2415 107.407 94.9095 106.49C98.5775 105.573 101.754 104.492 104.44 103.248C105.029 105.147 105.521 107.374 105.914 109.929C106.307 112.483 106.503 114.972 106.503 117.396C106.503 123.029 104.571 127.221 100.706 129.972C96.9073 132.657 91.9948 134 85.9688 134H10.8075C9.7595 129.349 8.9735 125.845 8.4495 123.487C7.991 121.129 7.69625 119.393 7.56525 118.28C7.43425 117.101 7.36875 116.053 7.36875 115.136C7.36875 113.236 7.6635 111.271 8.253 109.241C8.908 107.145 9.85775 105.245 11.1023 103.542L54.8235 43.5117ZM122.214 60.509C122.214 56.6445 121.821 53.042 121.035 49.7015C120.314 46.361 119.07 43.4462 117.301 40.9572C119.528 39.0577 122.312 37.4857 125.653 36.2412C128.993 34.9967 132.596 34.3745 136.46 34.3745C142.617 34.3745 146.875 36.012 149.233 39.287C151.656 42.562 152.868 47.2452 152.868 53.3367V95.1912C152.868 99.6452 153.457 102.92 154.636 105.016C155.815 107.112 158.042 108.16 161.317 108.16C163.282 108.16 165.575 107.669 168.195 106.686C170.815 105.638 173.402 103.935 175.957 101.577V35.9465C178.053 35.5535 180.476 35.2587 183.227 35.0622C185.978 34.8657 188.664 34.7675 191.284 34.7675C193.838 34.7675 196.458 34.8657 199.144 35.0622C201.895 35.2587 204.384 35.5535 206.611 35.9465V105.999C206.611 109.143 207.102 111.992 208.084 114.546C209.132 117.101 210.475 118.968 212.113 120.147C211.589 122.898 210.377 125.78 208.477 128.793C206.578 131.806 204.678 134.066 202.779 135.572C197.211 135.441 192.463 134.131 188.533 131.642C184.668 129.087 181.688 125.78 179.592 121.719C175.4 125.518 170.88 128.825 166.033 131.642C161.186 134.393 155.75 135.769 149.724 135.769C140.75 135.769 133.906 132.493 129.19 125.943C124.539 119.393 122.214 111.009 122.214 100.791V60.509ZM225.048 85.1697C225.048 73.9037 226.816 64.4062 230.353 56.6772C233.956 48.8827 238.737 42.9877 244.698 38.9922C250.724 34.9967 257.307 32.999 264.446 32.999C270.21 32.999 275.188 33.8832 279.38 35.6517C283.638 37.4202 287.24 39.5817 290.188 42.1362C292.349 39.7782 294.969 37.9115 298.048 36.536C301.192 35.1605 304.794 34.44 308.855 34.3745C310.755 35.881 312.687 38.2062 314.652 41.3502C316.617 44.4287 317.796 47.3435 318.189 50.0945C316.551 51.2735 315.209 53.173 314.161 55.793C313.178 58.3475 312.687 61.164 312.687 64.2425V116.118C312.687 125.288 312.261 132.854 311.41 138.814C310.624 144.775 309.477 149.655 307.971 153.454C306.464 157.253 304.663 160.462 302.567 163.082C298.703 167.995 293.561 171.597 287.142 173.89C280.723 176.248 273.583 177.427 265.723 177.427C259.566 177.427 253.147 176.804 246.466 175.56C239.785 174.381 233.89 172.842 228.781 170.942C228.781 167.34 229.502 163.377 230.943 159.054C232.384 154.731 234.185 151.292 236.347 148.738C245.189 152.668 254.032 154.633 262.874 154.633C270.079 154.633 275.188 152.799 278.201 149.131C281.214 145.528 282.721 140.714 282.721 134.688V128.4C279.577 130.692 276.072 132.526 272.208 133.902C268.409 135.277 264.479 135.965 260.418 135.965C252.427 135.965 245.811 133.803 240.571 129.48C235.331 125.157 231.434 119.197 228.88 111.599C226.325 103.935 225.048 95.1257 225.048 85.1697ZM256.488 85.3662C256.488 94.4707 257.569 101.086 259.73 105.213C261.957 109.274 264.741 111.304 268.081 111.304C273.452 111.304 278.332 109.044 282.721 104.525V63.8495C282.721 63.391 282.753 62.9325 282.819 62.474C278.168 58.02 273.845 55.793 269.85 55.793C265.068 55.793 261.63 58.4457 259.534 63.7512C257.503 68.9912 256.488 76.1962 256.488 85.3662ZM330.005 107.178C330.005 99.3177 331.839 92.866 335.507 87.8225C339.175 82.779 343.956 79.0455 349.851 76.622C355.812 74.1985 362.165 72.9867 368.912 72.9867C370.746 72.9867 372.875 73.0195 375.298 73.085C377.787 73.085 380.342 73.1832 382.962 73.3797V69.7445C382.962 61.426 378.671 57.2667 370.091 57.2667C365.899 57.2667 361.314 57.9545 356.336 59.33C351.358 60.64 346.282 62.0482 341.107 63.5547C338.946 61.0657 337.243 57.8562 335.998 53.9262C334.819 49.9307 334.066 46.0335 333.738 42.2345C338.127 40.466 343.007 38.9267 348.378 37.6167C353.749 36.3067 359.087 35.3242 364.392 34.6692C369.698 33.9487 374.479 33.5885 378.737 33.5885C384.435 33.5885 389.937 34.6692 395.243 36.8307C400.614 38.9267 405.002 42.431 408.408 47.3435C411.88 52.256 413.616 58.8387 413.616 67.0917V107.079C413.616 112.974 415.45 117.232 419.118 119.852C418.594 122.537 417.382 125.452 415.482 128.596C413.583 131.74 411.683 134.066 409.784 135.572C404.74 135.507 400.483 134.491 397.011 132.526C393.605 130.496 390.822 128.039 388.66 125.157C385.189 128.367 381.128 131.151 376.477 133.509C371.892 135.801 366.357 136.948 359.873 136.948C353.126 136.948 347.526 135.441 343.072 132.428C338.684 129.415 335.409 125.649 333.247 121.129C331.086 116.544 330.005 111.894 330.005 107.178ZM359.873 105.115C359.873 107.734 360.692 109.929 362.329 111.697C363.967 113.4 366.161 114.252 368.912 114.252C373.693 114.252 378.377 112.319 382.962 108.455V92.8332C380.997 92.7677 379.064 92.735 377.165 92.735C375.265 92.6695 373.595 92.6367 372.154 92.6367C367.831 92.6367 364.687 93.8157 362.722 96.1737C360.823 98.4662 359.873 101.446 359.873 105.115ZM521.041 109.438C521.041 113.302 521.401 116.904 522.122 120.245C522.842 123.52 524.12 126.435 525.954 128.989C523.661 130.889 520.845 132.461 517.504 133.705C514.164 134.95 510.594 135.572 506.795 135.572C500.638 135.572 496.348 133.934 493.924 130.659C491.501 127.384 490.289 122.668 490.289 116.511V74.7552C490.289 70.3012 489.699 67.0262 488.52 64.9302C487.407 62.7687 485.213 61.688 481.938 61.688C479.973 61.688 477.68 62.212 475.06 63.26C472.44 64.308 469.853 66.011 467.298 68.369V134C465.137 134.393 462.681 134.688 459.93 134.884C457.244 135.081 454.591 135.179 451.971 135.179C449.417 135.179 446.764 135.081 444.013 134.884C441.262 134.688 438.773 134.393 436.546 134V35.9465L437.922 34.571H449.515C453.707 34.571 457.146 35.619 459.831 37.715C462.582 39.7455 464.58 42.5947 465.825 46.2627C469.689 42.9222 473.881 40.073 478.401 37.715C482.92 35.357 487.964 34.178 493.531 34.178C502.505 34.178 509.317 37.453 513.967 44.003C518.683 50.4875 521.041 58.8715 521.041 69.155V109.438ZM538.603 85.1697C538.603 73.9037 540.372 64.4062 543.909 56.6772C547.511 48.8827 552.293 42.9877 558.253 38.9922C564.279 34.9967 570.862 32.999 578.002 32.999C583.766 32.999 588.744 33.8832 592.936 35.6517C597.193 37.4202 600.796 39.5817 603.743 42.1362C605.905 39.7782 608.525 37.9115 611.603 36.536C614.747 35.1605 618.35 34.44 622.411 34.3745C624.31 35.881 626.242 38.2062 628.207 41.3502C630.172 44.4287 631.351 47.3435 631.744 50.0945C630.107 51.2735 628.764 53.173 627.716 55.793C626.734 58.3475 626.242 61.164 626.242 64.2425V116.118C626.242 125.288 625.817 132.854 624.965 138.814C624.179 144.775 623.033 149.655 621.526 153.454C620.02 157.253 618.219 160.462 616.123 163.082C612.258 167.995 607.116 171.597 600.697 173.89C594.278 176.248 587.139 177.427 579.279 177.427C573.122 177.427 566.703 176.804 560.022 175.56C553.341 174.381 547.446 172.842 542.337 170.942C542.337 167.34 543.057 163.377 544.498 159.054C545.939 154.731 547.741 151.292 549.902 148.738C558.745 152.668 567.587 154.633 576.43 154.633C583.635 154.633 588.744 152.799 591.757 149.131C594.77 145.528 596.276 140.714 596.276 134.688V128.4C593.132 130.692 589.628 132.526 585.763 133.902C581.964 135.277 578.034 135.965 573.973 135.965C565.982 135.965 559.367 133.803 554.127 129.48C548.887 125.157 544.99 119.197 542.435 111.599C539.881 103.935 538.603 95.1257 538.603 85.1697ZM570.043 85.3662C570.043 94.4707 571.124 101.086 573.286 105.213C575.513 109.274 578.296 111.304 581.637 111.304C587.008 111.304 591.888 109.044 596.276 104.525V63.8495C596.276 63.391 596.309 62.9325 596.374 62.474C591.724 58.02 587.401 55.793 583.405 55.793C578.624 55.793 575.185 58.4457 573.089 63.7512C571.059 68.9912 570.043 76.1962 570.043 85.3662ZM15.327 240.79C17.8815 240.332 20.6653 240.037 23.6783 239.906C26.6913 239.71 29.1803 239.611 31.1453 239.611C33.2413 239.611 35.7303 239.71 38.6123 239.906C41.4943 240.037 44.2453 240.332 46.8653 240.79V375C44.2453 375.459 41.4943 375.753 38.6123 375.884C35.7303 376.081 33.2413 376.179 31.1453 376.179C29.1803 376.179 26.6913 376.081 23.6783 375.884C20.6653 375.753 17.8815 375.459 15.327 375V240.79ZM158.552 350.438C158.552 354.302 158.913 357.904 159.633 361.245C160.354 364.52 161.631 367.435 163.465 369.989C161.172 371.889 158.356 373.461 155.015 374.705C151.675 375.95 148.105 376.572 144.306 376.572C138.149 376.572 133.859 374.934 131.435 371.659C129.012 368.384 127.8 363.668 127.8 357.511V315.755C127.8 311.301 127.211 308.026 126.032 305.93C124.918 303.769 122.724 302.688 119.449 302.688C117.484 302.688 115.191 303.212 112.571 304.26C109.951 305.308 107.364 307.011 104.81 309.369V375C102.648 375.393 100.192 375.688 97.441 375.884C94.7555 376.081 92.1027 376.179 89.4827 376.179C86.9282 376.179 84.2755 376.081 81.5245 375.884C78.7735 375.688 76.2845 375.393 74.0575 375V276.946L75.433 275.571H87.0265C91.2185 275.571 94.6572 276.619 97.3427 278.715C100.094 280.745 102.091 283.595 103.336 287.263C107.2 283.922 111.392 281.073 115.912 278.715C120.431 276.357 125.475 275.178 131.042 275.178C140.016 275.178 146.828 278.453 151.478 285.003C156.194 291.487 158.552 299.871 158.552 310.155V350.438ZM185.645 265.844C185.645 258.967 186.889 254.185 189.378 251.5C191.933 248.749 196.223 247.373 202.249 247.373H214.236L215.611 248.749V277.045L238.896 276.75C239.813 280.221 240.272 283.791 240.272 287.459C240.272 291.52 239.813 295.221 238.896 298.561L215.611 298.168V343.363C215.611 349.52 218.526 352.599 224.355 352.599H235.359C236.997 357.315 237.816 362.162 237.816 367.14C237.816 368.253 237.75 369.432 237.619 370.677C237.488 371.921 237.292 373.035 237.03 374.017C233.427 374.541 229.268 375 224.552 375.393C219.836 375.786 215.513 375.983 211.583 375.983C202.675 375.983 196.125 373.788 191.933 369.4C187.741 364.946 185.645 358.035 185.645 348.669V298.267L170.22 298.561C169.368 295.221 168.942 291.52 168.942 287.459C168.942 283.791 169.368 280.221 170.22 276.75L185.645 276.946V265.844ZM330.306 366.747C325.328 370.349 319.367 373.1 312.424 375C305.547 376.965 298.604 377.948 291.595 377.948C283.015 377.948 275.875 376.507 270.177 373.624C264.544 370.742 260.09 366.878 256.815 362.031C253.54 357.184 251.215 351.715 249.839 345.623C248.529 339.466 247.874 333.145 247.874 326.661C247.874 316.77 249.348 307.862 252.295 299.937C255.308 291.946 260.057 285.625 266.542 280.975C273.026 276.324 281.476 273.999 291.89 273.999C300.471 273.999 307.807 275.833 313.898 279.501C320.055 283.169 324.738 288.147 327.948 294.435C331.223 300.723 332.86 307.797 332.86 315.657C332.86 320.045 332.664 323.713 332.271 326.661C331.878 329.543 331.19 332.621 330.208 335.896H278.921C279.38 341.136 280.788 345.558 283.146 349.16C285.569 352.697 290.056 354.466 296.606 354.466C301.06 354.466 305.416 353.909 309.673 352.795C313.996 351.616 318.123 350.208 322.053 348.571C324.345 350.863 326.179 353.712 327.555 357.118C328.93 360.524 329.847 363.734 330.306 366.747ZM291.694 295.81C287.436 295.81 284.292 297.382 282.262 300.526C280.297 303.605 279.15 308.354 278.823 314.773H304.564V312.513C304.564 307.993 303.582 304.096 301.617 300.821C299.652 297.481 296.344 295.81 291.694 295.81ZM345.749 326.17C345.749 314.904 347.518 305.406 351.055 297.677C354.657 289.883 359.439 283.988 365.399 279.992C371.425 275.997 378.008 273.999 385.148 273.999C390.912 273.999 395.89 274.883 400.082 276.652C404.339 278.42 407.942 280.582 410.889 283.136C413.051 280.778 415.671 278.911 418.749 277.536C421.893 276.16 425.496 275.44 429.557 275.374C431.456 276.881 433.388 279.206 435.353 282.35C437.318 285.429 438.497 288.343 438.89 291.094C437.253 292.273 435.91 294.173 434.862 296.793C433.88 299.347 433.388 302.164 433.388 305.242V357.118C433.388 366.288 432.963 373.854 432.111 379.814C431.325 385.775 430.179 390.655 428.672 394.454C427.166 398.253 425.365 401.462 423.269 404.082C419.404 408.995 414.262 412.597 407.843 414.89C401.424 417.248 394.285 418.427 386.425 418.427C380.268 418.427 373.849 417.804 367.168 416.56C360.487 415.381 354.592 413.842 349.483 411.942C349.483 408.34 350.203 404.377 351.644 400.054C353.085 395.731 354.887 392.292 357.048 389.738C365.891 393.668 374.733 395.633 383.576 395.633C390.781 395.633 395.89 393.799 398.903 390.131C401.916 386.528 403.422 381.714 403.422 375.688V369.4C400.278 371.692 396.774 373.526 392.909 374.902C389.11 376.277 385.18 376.965 381.119 376.965C373.128 376.965 366.513 374.803 361.273 370.48C356.033 366.157 352.136 360.197 349.581 352.599C347.027 344.935 345.749 336.126 345.749 326.17ZM377.189 326.366C377.189 335.471 378.27 342.086 380.432 346.213C382.659 350.274 385.442 352.304 388.783 352.304C394.154 352.304 399.034 350.044 403.422 345.525V304.849C403.422 304.391 403.455 303.932 403.52 303.474C398.87 299.02 394.547 296.793 390.551 296.793C385.77 296.793 382.331 299.446 380.235 304.751C378.205 309.991 377.189 317.196 377.189 326.366ZM450.707 291.193C451.296 288.442 452.508 285.494 454.342 282.35C456.241 279.206 458.141 276.881 460.04 275.374C466.328 275.833 471.503 277.634 475.564 280.778C479.69 283.857 482.867 287.983 485.094 293.158C487.256 288.049 490.269 283.857 494.133 280.582C498.063 277.241 503.238 275.571 509.657 275.571C512.67 275.571 515.093 275.735 516.927 276.062C518.827 276.39 520.759 276.783 522.724 277.241C522.724 280.844 522.069 285.461 520.759 291.094C519.449 296.662 517.549 301.607 515.06 305.93C513.292 305.275 511.589 304.817 509.951 304.555C508.314 304.293 506.644 304.063 504.941 303.867C501.404 303.867 498.358 304.718 495.803 306.421C493.249 308.124 490.924 310.548 488.828 313.692V375C486.666 375.393 484.21 375.688 481.459 375.884C478.773 376.081 476.121 376.179 473.501 376.179C470.946 376.179 468.293 376.081 465.542 375.884C462.857 375.688 460.368 375.393 458.075 375V311.53C458.075 305.766 457.224 301.214 455.521 297.874C453.883 294.533 452.279 292.306 450.707 291.193ZM526.889 348.178C526.889 340.318 528.723 333.866 532.391 328.822C536.059 323.779 540.84 320.045 546.735 317.622C552.696 315.198 559.049 313.987 565.796 313.987C567.63 313.987 569.758 314.019 572.182 314.085C574.671 314.085 577.225 314.183 579.845 314.38V310.744C579.845 302.426 575.555 298.267 566.975 298.267C562.783 298.267 558.198 298.954 553.22 300.33C548.242 301.64 543.165 303.048 537.991 304.555C535.829 302.066 534.126 298.856 532.882 294.926C531.703 290.931 530.95 287.033 530.622 283.234C535.011 281.466 539.89 279.927 545.261 278.617C550.632 277.307 555.971 276.324 561.276 275.669C566.582 274.949 571.363 274.588 575.621 274.588C581.319 274.588 586.821 275.669 592.127 277.831C597.498 279.927 601.886 283.431 605.292 288.343C608.764 293.256 610.499 299.839 610.499 308.092V348.079C610.499 353.974 612.333 358.232 616.001 360.852C615.477 363.537 614.266 366.452 612.366 369.596C610.467 372.74 608.567 375.066 606.668 376.572C601.624 376.507 597.367 375.491 593.895 373.526C590.489 371.496 587.705 369.039 585.544 366.157C582.072 369.367 578.011 372.151 573.361 374.509C568.776 376.801 563.241 377.948 556.757 377.948C550.01 377.948 544.41 376.441 539.956 373.428C535.567 370.415 532.292 366.649 530.131 362.129C527.969 357.544 526.889 352.894 526.889 348.178ZM556.757 346.115C556.757 348.734 557.575 350.929 559.213 352.697C560.85 354.4 563.045 355.252 565.796 355.252C570.577 355.252 575.26 353.319 579.845 349.455V333.833C577.88 333.768 575.948 333.735 574.049 333.735C572.149 333.669 570.479 333.637 569.038 333.637C564.715 333.637 561.571 334.816 559.606 337.174C557.706 339.466 556.757 342.446 556.757 346.115ZM636.021 265.844C636.021 258.967 637.266 254.185 639.755 251.5C642.309 248.749 646.6 247.373 652.626 247.373H664.612L665.988 248.749V277.045L689.273 276.75C690.19 280.221 690.648 283.791 690.648 287.459C690.648 291.52 690.19 295.221 689.273 298.561L665.988 298.168V343.363C665.988 349.52 668.902 352.599 674.732 352.599H685.736C687.373 357.315 688.192 362.162 688.192 367.14C688.192 368.253 688.127 369.432 687.996 370.677C687.865 371.921 687.668 373.035 687.406 374.017C683.804 374.541 679.644 375 674.928 375.393C670.212 375.786 665.889 375.983 661.959 375.983C653.051 375.983 646.501 373.788 642.309 369.4C638.117 364.946 636.021 358.035 636.021 348.669V298.267L620.596 298.561C619.745 295.221 619.319 291.52 619.319 287.459C619.319 283.791 619.745 280.221 620.596 276.75L636.021 276.946V265.844ZM739.225 375C737.064 375.393 734.608 375.688 731.857 375.884C729.171 376.081 726.518 376.179 723.898 376.179C721.344 376.179 718.691 376.081 715.94 375.884C713.255 375.688 710.766 375.393 708.473 375V309.958C708.473 306.683 707.785 303.965 706.41 301.804C705.1 299.642 702.709 298.561 699.238 298.561H696.29C695.439 295.352 695.013 291.88 695.013 288.147C695.013 286.444 695.111 284.643 695.308 282.743C695.504 280.778 695.832 278.911 696.29 277.143C699.303 276.815 702.382 276.586 705.526 276.455C708.735 276.259 711.421 276.16 713.582 276.16H717.807C724.357 276.16 729.564 278.289 733.429 282.547C737.293 286.739 739.225 292.437 739.225 299.642V375ZM702.578 249.338C702.578 245.277 703.331 241.445 704.838 237.843C706.541 236.991 708.735 236.271 711.421 235.681C714.172 235.092 716.857 234.797 719.477 234.797C722.097 234.797 724.815 235.092 727.632 235.681C730.448 236.271 732.61 236.991 734.116 237.843C734.837 239.677 735.394 241.609 735.787 243.64C736.18 245.67 736.376 247.57 736.376 249.338C736.376 253.334 735.623 257.133 734.116 260.735C732.61 261.587 730.448 262.307 727.632 262.897C724.815 263.486 722.097 263.781 719.477 263.781C716.857 263.781 714.139 263.519 711.322 262.995C708.571 262.405 706.41 261.652 704.838 260.735C703.331 257.133 702.578 253.334 702.578 249.338ZM847.369 325.973C847.369 341.693 843.505 354.302 835.776 363.799C828.047 373.231 816.781 377.948 801.978 377.948C786.978 377.948 775.647 373.199 767.983 363.701C760.385 354.204 756.586 341.628 756.586 325.973C756.586 310.188 760.451 297.579 768.18 288.147C775.909 278.715 787.175 273.999 801.978 273.999C816.912 273.999 828.211 278.748 835.874 288.245C843.538 297.743 847.369 310.319 847.369 325.973ZM788.125 325.973C788.125 331.344 788.419 336.224 789.009 340.612C789.664 345.001 790.974 348.505 792.939 351.125C794.904 353.68 797.917 354.957 801.978 354.957C805.973 354.957 808.954 353.68 810.919 351.125C812.949 348.505 814.259 345.001 814.849 340.612C815.504 336.224 815.831 331.344 815.831 325.973C815.831 320.537 815.504 315.624 814.849 311.236C814.259 306.847 812.949 303.376 810.919 300.821C808.954 298.201 805.973 296.891 801.978 296.891C797.917 296.891 794.904 298.201 792.939 300.821C790.974 303.376 789.664 306.847 789.009 311.236C788.419 315.624 788.125 320.537 788.125 325.973ZM949.542 350.438C949.542 354.302 949.902 357.904 950.622 361.245C951.343 364.52 952.62 367.435 954.454 369.989C952.162 371.889 949.345 373.461 946.005 374.705C942.664 375.95 939.094 376.572 935.295 376.572C929.138 376.572 924.848 374.934 922.425 371.659C920.001 368.384 918.789 363.668 918.789 357.511V315.755C918.789 311.301 918.2 308.026 917.021 305.93C915.907 303.769 913.713 302.688 910.438 302.688C908.473 302.688 906.181 303.212 903.561 304.26C900.941 305.308 898.353 307.011 895.799 309.369V375C893.637 375.393 891.181 375.688 888.43 375.884C885.745 376.081 883.092 376.179 880.472 376.179C877.917 376.179 875.265 376.081 872.514 375.884C869.763 375.688 867.274 375.393 865.047 375V276.946L866.422 275.571H878.016C882.208 275.571 885.646 276.619 888.332 278.715C891.083 280.745 893.081 283.595 894.325 287.263C898.19 283.922 902.382 281.073 906.901 278.715C911.421 276.357 916.464 275.178 922.032 275.178C931.005 275.178 937.817 278.453 942.468 285.003C947.184 291.487 949.542 299.871 949.542 310.155V350.438ZM34.4858 522.269C34.4858 519.584 34.5185 517.193 34.584 515.097C34.6495 512.936 34.6823 510.479 34.6823 507.729H34.4858C33.0448 507.729 30.9815 507.761 28.296 507.827C25.6105 507.892 23.5473 507.925 22.1063 507.925H1.7685C1.31 505.567 1.01525 503.274 0.88425 501.047C0.75325 498.755 0.68775 496.724 0.68775 494.956C0.68775 493.122 0.75325 491.059 0.88425 488.766C1.01525 486.474 1.31 484.148 1.7685 481.79H99.036C99.4945 483.428 99.8548 485.36 100.117 487.587C100.444 489.749 100.608 491.845 100.608 493.875C100.608 498.984 99.2653 502.619 96.5798 504.781C93.9598 506.877 89.8333 507.925 84.2003 507.925H78.4035C76.9625 507.925 74.8993 507.892 72.2138 507.827C69.5283 507.761 67.465 507.729 66.024 507.729H65.8275C65.8275 510.479 65.8603 512.936 65.9258 515.097C65.9913 517.193 66.024 519.584 66.024 522.269V616C63.3385 616.459 60.5875 616.753 57.771 616.884C54.9545 617.081 52.4655 617.179 50.304 617.179C48.077 617.179 45.5553 617.081 42.7388 616.884C39.9223 616.753 37.1713 616.459 34.4858 616V522.269ZM171.417 607.747C166.439 611.349 160.479 614.1 153.536 616C146.658 617.965 139.715 618.948 132.707 618.948C124.126 618.948 116.987 617.507 111.288 614.624C105.655 611.742 101.201 607.878 97.9261 603.031C94.6511 598.184 92.3258 592.715 90.9503 586.623C89.6403 580.466 88.9853 574.145 88.9853 567.661C88.9853 557.77 90.4591 548.862 93.4066 540.937C96.4196 532.946 101.168 526.625 107.653 521.975C114.137 517.324 122.587 514.999 133.001 514.999C141.582 514.999 148.918 516.833 155.009 520.501C161.166 524.169 165.85 529.147 169.059 535.435C172.334 541.723 173.972 548.797 173.972 556.657C173.972 561.045 173.775 564.713 173.382 567.661C172.989 570.543 172.301 573.621 171.319 576.896H120.032C120.491 582.136 121.899 586.558 124.257 590.16C126.681 593.697 131.167 595.466 137.717 595.466C142.171 595.466 146.527 594.909 150.785 593.795C155.108 592.616 159.234 591.208 163.164 589.571C165.457 591.863 167.291 594.712 168.666 598.118C170.042 601.524 170.959 604.734 171.417 607.747ZM132.805 536.81C128.547 536.81 125.403 538.382 123.373 541.526C121.408 544.605 120.262 549.354 119.934 555.773H145.676V553.513C145.676 548.993 144.693 545.096 142.728 541.821C140.763 538.481 137.455 536.81 132.805 536.81ZM227.635 616C225.473 616.393 223.017 616.688 220.266 616.884C217.58 617.081 214.928 617.179 212.308 617.179C209.753 617.179 207.1 617.081 204.349 616.884C201.664 616.688 199.175 616.393 196.882 616V550.958C196.882 547.683 196.195 544.965 194.819 542.804C193.509 540.642 191.118 539.561 187.647 539.561H184.699C183.848 536.352 183.422 532.88 183.422 529.147C183.422 527.444 183.52 525.643 183.717 523.743C183.913 521.778 184.241 519.911 184.699 518.143C187.712 517.815 190.791 517.586 193.935 517.455C197.144 517.259 199.83 517.16 201.991 517.16H206.216C212.766 517.16 217.973 519.289 221.838 523.547C225.702 527.739 227.635 533.437 227.635 540.642V616ZM190.987 490.338C190.987 486.277 191.741 482.445 193.247 478.843C194.95 477.991 197.144 477.271 199.83 476.681C202.581 476.092 205.266 475.797 207.886 475.797C210.506 475.797 213.225 476.092 216.041 476.681C218.858 477.271 221.019 477.991 222.526 478.843C223.246 480.677 223.803 482.609 224.196 484.64C224.589 486.67 224.785 488.57 224.785 490.338C224.785 494.334 224.032 498.133 222.526 501.735C221.019 502.587 218.858 503.307 216.041 503.897C213.225 504.486 210.506 504.781 207.886 504.781C205.266 504.781 202.548 504.519 199.732 503.995C196.981 503.405 194.819 502.652 193.247 501.735C191.741 498.133 190.987 494.334 190.987 490.338ZM294.514 593.599C296.151 598.315 296.97 603.162 296.97 608.14C296.97 609.253 296.904 610.432 296.773 611.677C296.708 612.921 296.511 614.035 296.184 615.017C293.236 615.541 289.896 616 286.162 616.393C282.494 616.786 278.794 616.983 275.06 616.983C266.152 616.983 259.831 614.788 256.098 610.4C252.43 605.946 250.596 599.035 250.596 589.669V472.751L251.971 471.376H263.958C269.984 471.376 274.241 472.751 276.73 475.502C279.285 478.253 280.562 483.035 280.562 489.847V584.265C280.562 587.278 281.217 589.603 282.527 591.241C283.837 592.813 286.031 593.599 289.11 593.599H294.514ZM342.455 616C338.132 616.786 333.056 617.179 327.226 617.179C321.986 617.179 317.041 616.786 312.39 616V472.751L313.766 471.376H325.752C331.778 471.376 336.069 472.751 338.623 475.502C341.178 478.253 342.455 483.035 342.455 489.847V526.985C346.123 523.972 350.086 521.418 354.343 519.322C358.666 517.226 363.448 516.178 368.688 516.178C377.661 516.178 384.473 519.453 389.124 526.003C393.84 532.487 396.198 540.871 396.198 551.155V591.438C396.198 595.302 396.558 598.904 397.278 602.245C397.999 605.52 399.243 608.435 401.012 610.989C398.785 612.889 396.001 614.461 392.661 615.705C389.32 616.95 385.718 617.572 381.853 617.572C375.696 617.572 371.406 615.934 368.982 612.659C366.624 609.384 365.445 604.668 365.445 598.511V556.755C365.445 552.301 364.856 549.026 363.677 546.93C362.498 544.769 360.271 543.688 356.996 543.688C355.031 543.688 352.738 544.212 350.118 545.26C347.498 546.308 344.944 548.011 342.455 550.369V616ZM413.287 589.178C413.287 581.318 415.121 574.866 418.789 569.822C422.457 564.779 427.239 561.045 433.134 558.622C439.094 556.198 445.448 554.987 452.194 554.987C454.028 554.987 456.157 555.019 458.58 555.085C461.069 555.085 463.624 555.183 466.244 555.38V551.744C466.244 543.426 461.954 539.267 453.373 539.267C449.181 539.267 444.596 539.954 439.618 541.33C434.64 542.64 429.564 544.048 424.389 545.555C422.228 543.066 420.525 539.856 419.28 535.926C418.101 531.931 417.348 528.033 417.021 524.234C421.409 522.466 426.289 520.927 431.66 519.617C437.031 518.307 442.369 517.324 447.675 516.669C452.98 515.949 457.762 515.588 462.019 515.588C467.718 515.588 473.22 516.669 478.525 518.831C483.896 520.927 488.285 524.431 491.691 529.343C495.162 534.256 496.898 540.839 496.898 549.092V589.079C496.898 594.974 498.732 599.232 502.4 601.852C501.876 604.537 500.664 607.452 498.765 610.596C496.865 613.74 494.966 616.066 493.066 617.572C488.023 617.507 483.765 616.491 480.294 614.526C476.888 612.496 474.104 610.039 471.942 607.157C468.471 610.367 464.41 613.151 459.759 615.509C455.174 617.801 449.64 618.948 443.155 618.948C436.409 618.948 430.808 617.441 426.354 614.428C421.966 611.415 418.691 607.649 416.529 603.129C414.368 598.544 413.287 593.894 413.287 589.178ZM443.155 587.115C443.155 589.734 443.974 591.929 445.611 593.697C447.249 595.4 449.443 596.252 452.194 596.252C456.976 596.252 461.659 594.319 466.244 590.455V574.833C464.279 574.768 462.347 574.735 460.447 574.735C458.548 574.669 456.877 574.637 455.436 574.637C451.113 574.637 447.969 575.816 446.004 578.174C444.105 580.466 443.155 583.446 443.155 587.115ZM607.369 565.598C607.435 576.274 605.47 585.51 601.474 593.304C597.479 601.099 591.78 607.125 584.379 611.382C577.043 615.64 568.364 617.769 558.342 617.769C551.203 617.769 544.293 617.179 537.612 616C530.996 614.755 525.068 613.118 519.828 611.087V472.751L521.204 471.376H532.797C538.823 471.376 543.179 472.751 545.865 475.502C548.55 478.253 549.893 483.035 549.893 489.847V522.662C552.971 520.632 556.377 519.027 560.111 517.848C563.844 516.604 567.971 515.981 572.49 515.981C580.285 515.981 586.737 518.143 591.846 522.466C597.02 526.723 600.885 532.586 603.439 540.053C606.059 547.52 607.369 556.035 607.369 565.598ZM563.353 540.642C561.257 540.577 558.997 541.035 556.574 542.018C554.216 543 551.989 544.605 549.893 546.832V594.876C552.775 595.466 555.788 595.76 558.932 595.76C564.892 595.76 569.215 593.108 571.901 587.802C574.586 582.497 575.929 575.259 575.929 566.089C575.929 557.246 574.881 550.827 572.785 546.832C570.755 542.771 567.611 540.708 563.353 540.642ZM701.622 607.747C696.644 611.349 690.683 614.1 683.74 616C676.863 617.965 669.92 618.948 662.911 618.948C654.331 618.948 647.191 617.507 641.493 614.624C635.86 611.742 631.406 607.878 628.131 603.031C624.856 598.184 622.53 592.715 621.155 586.623C619.845 580.466 619.19 574.145 619.19 567.661C619.19 557.77 620.664 548.862 623.611 540.937C626.624 532.946 631.373 526.625 637.857 521.975C644.342 517.324 652.791 514.999 663.206 514.999C671.786 514.999 679.122 516.833 685.214 520.501C691.371 524.169 696.054 529.147 699.264 535.435C702.539 541.723 704.176 548.797 704.176 556.657C704.176 561.045 703.98 564.713 703.587 567.661C703.194 570.543 702.506 573.621 701.523 576.896H650.237C650.695 582.136 652.104 586.558 654.462 590.16C656.885 593.697 661.372 595.466 667.922 595.466C672.376 595.466 676.732 594.909 680.989 593.795C685.312 592.616 689.439 591.208 693.369 589.571C695.661 591.863 697.495 594.712 698.871 598.118C700.246 601.524 701.163 604.734 701.622 607.747ZM663.009 536.81C658.752 536.81 655.608 538.382 653.577 541.526C651.612 544.605 650.466 549.354 650.139 555.773H675.88V553.513C675.88 548.993 674.898 545.096 672.933 541.821C670.968 538.481 667.66 536.81 663.009 536.81ZM47.4548 828.9C46.4068 828.9 45.1623 828.868 43.7213 828.802C42.3458 828.737 41.003 828.704 39.693 828.704L31.3418 857.197C29.3768 857.655 27.248 857.95 24.9555 858.081C22.7285 858.277 20.4033 858.376 17.9798 858.376C15.6218 858.376 12.9363 858.179 9.92325 857.786C6.97575 857.459 4.61775 856.934 2.84925 856.214L1.67025 854.544L45.0968 722.79C47.5858 722.397 50.566 722.103 54.0375 721.906C57.5745 721.71 60.653 721.611 63.273 721.611C65.762 721.611 68.775 721.742 72.312 722.004C75.849 722.201 78.8948 722.528 81.4493 722.987L123.697 854.937C121.535 856.181 118.719 857.131 115.247 857.786C111.841 858.441 108.665 858.769 105.717 858.769C100.739 858.769 96.8418 857.622 94.0253 855.33C91.2088 852.972 88.8508 848.419 86.9513 841.673L83.2178 828.704C81.9733 828.704 80.6305 828.737 79.1895 828.802C77.7485 828.868 76.504 828.9 75.456 828.9H47.4548ZM51.3848 788.913L46.9635 804.141C48.208 804.141 49.5508 804.141 50.9918 804.141C52.4328 804.076 53.71 804.043 54.8235 804.043H69.168C70.1505 804.043 71.264 804.076 72.5085 804.141C73.8185 804.141 75.0958 804.141 76.3403 804.141L72.9015 791.86C71.395 786.358 69.6265 779.874 67.596 772.407C65.5655 764.94 63.7315 757.964 62.094 751.479H60.915C60.26 755.147 59.3758 759.208 58.2623 763.662C57.1488 768.116 55.9698 772.57 54.7253 777.024C53.5463 781.413 52.4328 785.376 51.3848 788.913ZM221.494 832.438C221.494 836.302 221.854 839.904 222.575 843.245C223.295 846.52 224.572 849.435 226.406 851.989C224.114 853.889 221.297 855.461 217.957 856.705C214.616 857.95 211.047 858.572 207.248 858.572C201.091 858.572 196.8 856.934 194.377 853.659C191.953 850.384 190.742 845.668 190.742 839.511V797.755C190.742 793.301 190.152 790.026 188.973 787.93C187.86 785.769 185.665 784.688 182.39 784.688C180.425 784.688 178.133 785.212 175.513 786.26C172.893 787.308 170.306 789.011 167.751 791.369V857C165.59 857.393 163.133 857.688 160.382 857.884C157.697 858.081 155.044 858.179 152.424 858.179C149.87 858.179 147.217 858.081 144.466 857.884C141.715 857.688 139.226 857.393 136.999 857V758.946L138.374 757.571H149.968C154.16 757.571 157.599 758.619 160.284 760.715C163.035 762.745 165.033 765.595 166.277 769.263C170.142 765.922 174.334 763.073 178.853 760.715C183.373 758.357 188.416 757.178 193.984 757.178C202.957 757.178 209.769 760.453 214.42 767.003C219.136 773.487 221.494 781.871 221.494 792.155V832.438ZM321.095 848.747C316.117 852.349 310.156 855.1 303.213 857C296.336 858.965 289.393 859.948 282.384 859.948C273.804 859.948 266.664 858.507 260.966 855.624C255.333 852.742 250.879 848.878 247.604 844.031C244.329 839.184 242.004 833.715 240.628 827.623C239.318 821.466 238.663 815.145 238.663 808.661C238.663 798.77 240.137 789.862 243.084 781.937C246.097 773.946 250.846 767.625 257.331 762.975C263.815 758.324 272.265 755.999 282.679 755.999C291.26 755.999 298.596 757.833 304.687 761.501C310.844 765.169 315.527 770.147 318.737 776.435C322.012 782.723 323.649 789.797 323.649 797.657C323.649 802.045 323.453 805.713 323.06 808.661C322.667 811.543 321.979 814.621 320.997 817.896H269.71C270.169 823.136 271.577 827.558 273.935 831.16C276.358 834.697 280.845 836.466 287.395 836.466C291.849 836.466 296.205 835.909 300.462 834.795C304.785 833.616 308.912 832.208 312.842 830.571C315.134 832.863 316.968 835.712 318.344 839.118C319.719 842.524 320.636 845.734 321.095 848.747ZM282.483 777.81C278.225 777.81 275.081 779.382 273.051 782.526C271.086 785.605 269.939 790.354 269.612 796.773H295.353V794.513C295.353 789.993 294.371 786.096 292.406 782.821C290.441 779.481 287.133 777.81 282.483 777.81ZM336.145 773.193C336.735 770.442 337.947 767.494 339.781 764.35C341.68 761.206 343.58 758.881 345.479 757.374C351.767 757.833 356.942 759.634 361.003 762.778C365.129 765.857 368.306 769.983 370.533 775.158C372.694 770.049 375.707 765.857 379.572 762.582C383.502 759.241 388.676 757.571 395.095 757.571C398.108 757.571 400.532 757.735 402.366 758.062C404.265 758.39 406.198 758.783 408.163 759.241C408.163 762.844 407.508 767.461 406.198 773.094C404.888 778.662 402.988 783.607 400.499 787.93C398.731 787.275 397.028 786.817 395.39 786.555C393.753 786.293 392.082 786.063 390.379 785.867C386.842 785.867 383.797 786.718 381.242 788.421C378.688 790.124 376.362 792.548 374.266 795.692V857C372.105 857.393 369.649 857.688 366.898 857.884C364.212 858.081 361.559 858.179 358.939 858.179C356.385 858.179 353.732 858.081 350.981 857.884C348.296 857.688 345.807 857.393 343.514 857V793.53C343.514 787.766 342.663 783.214 340.96 779.874C339.322 776.533 337.717 774.306 336.145 773.193ZM450.108 857C447.946 857.393 445.523 857.688 442.837 857.884C440.152 858.081 437.499 858.179 434.879 858.179C429.508 858.179 424.563 857.786 420.043 857V713.751L421.419 712.376H433.405C439.431 712.376 443.722 713.751 446.276 716.502C448.831 719.253 450.108 724.035 450.108 730.847V792.548H453.154C454.529 792.548 455.61 792.319 456.396 791.86C457.182 791.402 457.968 790.485 458.754 789.109L468.972 769.361C470.806 765.627 473.066 762.844 475.751 761.01C478.502 759.11 481.941 758.16 486.067 758.16C489.342 758.16 492.323 758.193 495.008 758.259C497.694 758.324 500.445 758.422 503.261 758.553L504.44 760.125L489.31 789.404C486.821 794.251 483.447 798.083 479.19 800.899C482.989 802.275 486.264 804.371 489.015 807.187C491.831 809.938 493.96 813.508 495.401 817.896L500.215 832.241C501.853 837.35 503.327 841.051 504.637 843.343C505.947 845.636 507.617 847.502 509.647 848.943C507.224 851.694 504.178 853.987 500.51 855.821C496.842 857.655 493.01 858.572 489.015 858.572C484.626 858.572 481.319 857.524 479.092 855.428C476.93 853.332 475.031 849.828 473.393 844.915L467.596 827.918C466.221 823.726 464.649 820.975 462.88 819.665C461.112 818.355 458.885 817.7 456.199 817.7C454.103 817.7 452.073 817.765 450.108 817.896V857ZM596.272 848.747C591.294 852.349 585.333 855.1 578.39 857C571.513 858.965 564.57 859.948 557.561 859.948C548.981 859.948 541.841 858.507 536.143 855.624C530.51 852.742 526.056 848.878 522.781 844.031C519.506 839.184 517.18 833.715 515.805 827.623C514.495 821.466 513.84 815.145 513.84 808.661C513.84 798.77 515.314 789.862 518.261 781.937C521.274 773.946 526.023 767.625 532.507 762.975C538.992 758.324 547.441 755.999 557.856 755.999C566.436 755.999 573.772 757.833 579.864 761.501C586.021 765.169 590.704 770.147 593.914 776.435C597.189 782.723 598.826 789.797 598.826 797.657C598.826 802.045 598.63 805.713 598.237 808.661C597.844 811.543 597.156 814.621 596.173 817.896H544.887C545.345 823.136 546.754 827.558 549.112 831.16C551.535 834.697 556.022 836.466 562.572 836.466C567.026 836.466 571.382 835.909 575.639 834.795C579.962 833.616 584.089 832.208 588.019 830.571C590.311 832.863 592.145 835.712 593.521 839.118C594.896 842.524 595.813 845.734 596.272 848.747ZM557.659 777.81C553.402 777.81 550.258 779.382 548.227 782.526C546.262 785.605 545.116 790.354 544.789 796.773H570.53V794.513C570.53 789.993 569.548 786.096 567.583 782.821C565.618 779.481 562.31 777.81 557.659 777.81ZM701.614 832.438C701.614 836.302 701.974 839.904 702.695 843.245C703.415 846.52 704.693 849.435 706.527 851.989C704.234 853.889 701.417 855.461 698.077 856.705C694.736 857.95 691.167 858.572 687.368 858.572C681.211 858.572 676.92 856.934 674.497 853.659C672.073 850.384 670.862 845.668 670.862 839.511V797.755C670.862 793.301 670.272 790.026 669.093 787.93C667.98 785.769 665.785 784.688 662.51 784.688C660.545 784.688 658.253 785.212 655.633 786.26C653.013 787.308 650.426 789.011 647.871 791.369V857C645.71 857.393 643.253 857.688 640.502 857.884C637.817 858.081 635.164 858.179 632.544 858.179C629.99 858.179 627.337 858.081 624.586 857.884C621.835 857.688 619.346 857.393 617.119 857V758.946L618.494 757.571H630.088C634.28 757.571 637.719 758.619 640.404 760.715C643.155 762.745 645.153 765.595 646.397 769.263C650.262 765.922 654.454 763.073 658.973 760.715C663.493 758.357 668.536 757.178 674.104 757.178C683.077 757.178 689.889 760.453 694.54 767.003C699.256 773.487 701.614 781.871 701.614 792.155V832.438ZM809.075 832.438C809.075 836.302 809.435 839.904 810.156 843.245C810.876 846.52 812.153 849.435 813.987 851.989C811.695 853.889 808.878 855.461 805.538 856.705C802.197 857.95 798.628 858.572 794.829 858.572C788.672 858.572 784.381 856.934 781.958 853.659C779.534 850.384 778.323 845.668 778.323 839.511V797.755C778.323 793.301 777.733 790.026 776.554 787.93C775.441 785.769 773.246 784.688 769.971 784.688C768.006 784.688 765.714 785.212 763.094 786.26C760.474 787.308 757.887 789.011 755.332 791.369V857C753.171 857.393 750.714 857.688 747.963 857.884C745.278 858.081 742.625 858.179 740.005 858.179C737.451 858.179 734.798 858.081 732.047 857.884C729.296 857.688 726.807 857.393 724.58 857V758.946L725.955 757.571H737.549C741.741 757.571 745.18 758.619 747.865 760.715C750.616 762.745 752.614 765.595 753.858 769.263C757.723 765.922 761.915 763.073 766.434 760.715C770.954 758.357 775.997 757.178 781.565 757.178C790.538 757.178 797.35 760.453 802.001 767.003C806.717 773.487 809.075 781.871 809.075 792.155V832.438ZM831.648 783.509C831.648 779.644 831.255 776.042 830.469 772.701C829.748 769.361 828.504 766.446 826.735 763.957C828.962 762.058 831.746 760.486 835.087 759.241C838.427 757.997 842.03 757.374 845.894 757.374C852.051 757.374 856.309 759.012 858.667 762.287C861.09 765.562 862.302 770.245 862.302 776.337V818.191C862.302 822.645 862.891 825.92 864.07 828.016C865.249 830.112 867.476 831.16 870.751 831.16C872.716 831.16 875.009 830.669 877.629 829.686C880.249 828.638 882.836 826.935 885.391 824.577V758.946C887.487 758.553 889.91 758.259 892.661 758.062C895.412 757.866 898.098 757.768 900.718 757.768C903.272 757.768 905.892 757.866 908.578 758.062C911.329 758.259 913.818 758.553 916.045 758.946V828.999C916.045 832.143 916.536 834.992 917.518 837.546C918.566 840.101 919.909 841.968 921.547 843.147C921.023 845.898 919.811 848.78 917.911 851.793C916.012 854.806 914.112 857.066 912.213 858.572C906.645 858.441 901.897 857.131 897.967 854.642C894.102 852.087 891.122 848.78 889.026 844.719C884.834 848.518 880.314 851.825 875.467 854.642C870.62 857.393 865.184 858.769 859.158 858.769C850.184 858.769 843.34 855.493 838.624 848.943C833.973 842.393 831.648 834.009 831.648 823.791V783.509ZM1024.38 832.438C1024.38 836.302 1024.74 839.904 1025.46 843.245C1026.18 846.52 1027.46 849.435 1029.29 851.989C1027 853.889 1024.18 855.461 1020.84 856.705C1017.5 857.95 1013.93 858.572 1010.13 858.572C1003.98 858.572 999.687 856.934 997.264 853.659C994.84 850.384 993.628 845.668 993.628 839.511V797.755C993.628 793.301 993.039 790.026 991.86 787.93C990.746 785.769 988.552 784.688 985.277 784.688C983.312 784.688 981.02 785.212 978.4 786.26C975.78 787.308 973.192 789.011 970.638 791.369V857C968.476 857.393 966.02 857.688 963.269 857.884C960.584 858.081 957.931 858.179 955.311 858.179C952.756 858.179 950.104 858.081 947.353 857.884C944.602 857.688 942.113 857.393 939.886 857V758.946L941.261 757.571H952.855C957.047 757.571 960.485 758.619 963.171 760.715C965.922 762.745 967.92 765.595 969.164 769.263C973.029 765.922 977.221 763.073 981.74 760.715C986.26 758.357 991.303 757.178 996.871 757.178C1005.84 757.178 1012.66 760.453 1017.31 767.003C1022.02 773.487 1024.38 781.871 1024.38 792.155V832.438ZM1041.94 808.17C1041.94 796.904 1043.71 787.406 1047.25 779.677C1050.85 771.883 1055.63 765.988 1061.59 761.992C1067.62 757.997 1074.2 755.999 1081.34 755.999C1087.11 755.999 1092.08 756.883 1096.28 758.652C1100.53 760.42 1104.14 762.582 1107.08 765.136C1109.24 762.778 1111.86 760.911 1114.94 759.536C1118.09 758.16 1121.69 757.44 1125.75 757.374C1127.65 758.881 1129.58 761.206 1131.55 764.35C1133.51 767.429 1134.69 770.343 1135.08 773.094C1133.45 774.273 1132.1 776.173 1131.06 778.793C1130.07 781.347 1129.58 784.164 1129.58 787.242V839.118C1129.58 848.288 1129.16 855.854 1128.3 861.814C1127.52 867.775 1126.37 872.655 1124.87 876.454C1123.36 880.253 1121.56 883.462 1119.46 886.082C1115.6 890.995 1110.46 894.597 1104.04 896.89C1097.62 899.248 1090.48 900.427 1082.62 900.427C1076.46 900.427 1070.04 899.804 1063.36 898.56C1056.68 897.381 1050.79 895.842 1045.68 893.942C1045.68 890.34 1046.4 886.377 1047.84 882.054C1049.28 877.731 1051.08 874.292 1053.24 871.738C1062.08 875.668 1070.93 877.633 1079.77 877.633C1086.97 877.633 1092.08 875.799 1095.1 872.131C1098.11 868.528 1099.62 863.714 1099.62 857.688V851.4C1096.47 853.692 1092.97 855.526 1089.1 856.902C1085.3 858.277 1081.37 858.965 1077.31 858.965C1069.32 858.965 1062.71 856.803 1057.47 852.48C1052.23 848.157 1048.33 842.197 1045.77 834.599C1043.22 826.935 1041.94 818.126 1041.94 808.17ZM1073.38 808.366C1073.38 817.471 1074.46 824.086 1076.63 828.213C1078.85 832.274 1081.64 834.304 1084.98 834.304C1090.35 834.304 1095.23 832.044 1099.62 827.525V786.849C1099.62 786.391 1099.65 785.932 1099.71 785.474C1095.06 781.02 1090.74 778.793 1086.74 778.793C1081.96 778.793 1078.52 781.446 1076.43 786.751C1074.4 791.991 1073.38 799.196 1073.38 808.366Z" fill="#FF4002"/>
</svg>
