<svg id="Ebene_1" data-name="Ebene 1" xmlns="http://www.w3.org/2000/svg" viewBox="0 0 323.38 371.4"><defs><style>.cls-1{fill:#ff4002;}</style></defs><path class="cls-1" d="M34,187.34c-7.19-6.06-13.55-11.65-20.15-16.93C8.29,166,8,163.82,13.34,159c6.18-5.57,12.39-11.11,18.74-16.49,1-.85,2.8-.78,4.23-1.14l.6,1.66L13.32,164.42c11.27,9.7,21.81,19.07,32.68,28.05,22.3,18.44,44.9,36.5,67.1,55.05C121.9,254.88,130,263,138.29,271c2.44,2.35,4.44,3.15,7.18.7,17.09-15.32,37.39-25.85,56.51-38.17,14.93-9.62,29.12-20.41,44-30.19,9.68-6.39,20.12-11.63,29.9-17.88,11.32-7.22,22.28-15,34-22.93L283.72,142c.07-.57.15-1.14.22-1.71,1.5,0,3.45-.62,4.41.1,7.73,5.75,15.33,11.69,22.86,17.7,4.05,3.24,4,4.57,0,7.62l-21.93,16.78c8.29,7.81,16.88,15.69,25.21,23.85,3.92,3.84,3.52,4.91-1.18,7.86-36.57,22.91-73.28,45.61-109.61,68.9-15.38,9.86-29.94,21-44.87,31.54-1.09.77-2.16,1.56-3.27,2.29-8.65,5.7-10,5.82-17.82-.81C117.89,299.39,98.56,282,78.39,265.73c-14.2-11.48-29.33-21.84-44.33-32.29-6.64-4.62-14-8.28-21-12.3-6.58-3.75-6.85-5.11-1.59-10.58C18.71,203,26,195.57,34,187.34Zm278.72,22.38c-8.58-7.75-16.34-15-24.46-21.84a7.21,7.21,0,0,0-6.49-.77c-17.61,9.36-34.76,19.42-50.59,31.72-26.9,20.93-58.84,34.43-84.65,57-2.82,2.47-6.3,2.64-9.39-.49C112.66,250.57,84,230.6,57.76,207.88c-7.12-6.16-14.36-12.17-21-17.84L12.14,215.65a28.07,28.07,0,0,0,2.6,1.81C38.38,229.62,59.4,245.75,80.19,262c19.91,15.54,38.58,32.68,57.85,49,7.88,6.7,6.3,8.71,18,.51,33.61-23.55,66.68-47.88,102.33-68.42C276.46,232.7,294,221.29,312.73,209.72Z"/><path class="cls-1" d="M5.27,109.31c17.36-13.5,33-27.06,50-38.53,25.6-17.27,52.22-33,78.32-49.53,9.12-5.78,18-11.94,26.93-18,2.51-1.7,4.47-1.76,7.16.12C177,10,186.49,16.47,196.22,22.51c36.38,22.58,70.4,48.33,103.15,75.84,4.83,4.05,10,7.67,15,11.51,4.18,3.21,4.19,6.36-.6,8-20.7,7.3-36.64,22-54,34.41C240,166.41,221,181.61,201.19,195.59c-11.1,7.82-23.26,14.15-34.93,21.16-2.56,1.53-5.57,2.66-7.56,4.75-4.06,4.27-7.91,3.43-12.47,1.07-15.26-7.88-28-19.13-40.4-30.67C78,166.05,49.48,141.14,18.31,119.37,14.27,116.55,10.48,113.35,5.27,109.31Zm7,1c3.9,2.7,7,4.89,10.13,7C58,141.4,88.51,171.54,120.86,199.47c8.5,7.34,18.28,13.2,27.63,19.52,1.37.93,4.07,1.45,5.36.73,9.26-5.19,18.7-10.21,27.38-16.29,25.85-18.15,51.27-36.91,77.06-55.15,17.17-12.14,32.91-26.6,53.19-33.89.18-.06.21-.51.4-1-5.68-4.46-11.53-8.82-17.12-13.5C262.59,73,229.21,47.71,193.48,25.64c-9-5.59-17.88-11.53-26.59-17.64-2.39-1.68-3.89-1.61-6.12-.12-9.38,6.31-18.51,13.07-28.33,18.58C100,44.62,69.21,65.2,39.16,86.93,29.8,93.69,21.64,102.11,12.31,110.32Z"/></svg>