<svg id="Ebene_1" data-name="Ebene 1" xmlns="http://www.w3.org/2000/svg" viewBox="0 0 323.38 371.4"><defs><style>.cls-1{fill:#ff4002;}</style></defs><path class="cls-1" d="M5.71,109.82C16.64,100.33,26.19,90.71,37,82.88c30.46-22,61.71-42.79,94.61-61.07,9.55-5.3,18.36-12,27.4-18.17,3.34-2.3,5.74-2.24,9.24.33,8.83,6.48,18,12.5,27.35,18.27,36.67,22.74,71,48.61,103.93,76.45,4.82,4.07,10.09,7.59,15.06,11.49,3.35,2.63,3.25,5.56-.61,7.24-34,14.87-60.95,40.06-90.38,61.56-18.83,13.76-37.87,27-58.47,38-2.63,1.4-5.43,2.8-7.5,4.85-3.5,3.46-7.14,3.54-10.73,1-11.26-7.89-23.09-15.2-33.38-24.23-31.12-27.31-61.19-55.85-95.49-79.33C14,116.5,10.2,113.28,5.71,109.82Zm305.77,3.41c-5.53-4.36-11.49-8.82-17.19-13.59-32.05-26.8-65.27-52-100.87-74q-13.36-8.25-26.2-17.33c-2.76-2-4.5-2.21-7.38-.39-18.68,11.8-37.61,23.2-56.21,35.12C75.23,61.27,46.26,78.7,21.41,101.9c-2.87,2.67-6,5.1-8.78,7.49.31.91.33,1.35.55,1.51,2.83,2,5.69,4,8.53,6,29.61,20.81,57,44.29,83.38,69C117.44,197.48,130,209,145,217.31c4.37,2.42,8,4.08,12.28-.31,2-2.07,5.1-3,7.63-4.64,15.3-9.67,31-18.73,45.77-29.21C244,159.5,274.67,132.21,311.48,113.23Z"/></svg>