<svg id="Ebene_1" data-name="Ebene 1" xmlns="http://www.w3.org/2000/svg" viewBox="0 0 323.38 371.4"><defs><style>.cls-1{fill:#ff4002;}</style></defs><path class="cls-1" d="M5.71,109.85c11-9.47,20.69-19.14,31.66-27.08C67.8,60.74,99.1,40,132,21.71c9.69-5.4,18.65-12.13,27.84-18.4,3-2,5.05-1.64,8,.44,9.07,6.45,18.3,12.7,27.76,18.56,36.67,22.73,71,48.62,103.93,76.43,4.7,4,9.8,7.43,14.68,11.18,3.91,3,3.9,6.06-.53,7.81-27.86,11-49.6,31.38-73.27,48.64-25.25,18.42-49.73,37.88-77.78,52.08a9.31,9.31,0,0,0-2.92,1.89c-5.37,6.34-11.19,4.62-16.62.56-12.62-9.45-25.73-18.41-37.34-29-28-25.57-56.42-50.68-87.59-72.45C14,116.56,10.08,113.25,5.71,109.85Zm306,3.66c-6-4.72-11.94-9.2-17.65-14C262.21,73,229.23,48,194,26.11,184.65,20.33,175.52,14.23,166.52,8c-2.36-1.65-3.86-1.75-6.12-.21-8.49,5.83-17,11.7-25.67,17.21C108.49,41.6,81.74,57.47,56,74.82c-15,10.09-28.4,22.45-42.49,33.83-.44.35-.57,1.1-1,2,3.25,2.26,6.36,4.4,9.45,6.58,29.46,20.72,56.73,44.06,83,68.68,12.48,11.7,25.16,23.32,40.36,31.67,4.21,2.32,7.81,4,11.83-.37,1.61-1.76,4.16-2.69,6.36-3.86,21-11.2,40.45-24.84,59.58-39.05C251.69,153,278.65,129.28,311.67,113.51Z"/><path class="cls-1" d="M309.4,162.38l-25.92-20.24c0-.57,0-1.15,0-1.72,1.53,0,3.54-.71,4.51,0,7.62,5.64,15.08,11.48,22.49,17.38,4.45,3.54,4.19,4.64-.27,8.29-15.89,13-33.58,23.17-51.28,33.45-12,7-22.85,16-34.51,23.67-20,13.12-40.31,25.77-60.34,38.86-5.68,3.72-10.85,8.23-16.2,12.45s-7.63,4.11-12.47-.49c-16.66-15.81-34.22-30.51-52.28-44.76-21.53-17-41.81-35.57-62.67-53.42-2.65-2.27-5.54-4.25-8.27-6.43-3.94-3.17-4.29-5.75-.72-9.08,6.58-6.12,13.33-12.06,20.15-17.91,1-.85,2.78-.76,4.2-1.11.21.55.41,1.1.61,1.64-7.8,7.08-15.61,14.15-23.58,21.37,11.29,9.71,21.84,19.08,32.71,28.07,22.3,18.44,44.91,36.51,67.12,55.07,8.8,7.36,16.94,15.52,25.19,23.5,2.49,2.4,4.51,3,7.19.59,17-15.19,37.11-25.7,56.12-37.9,15.09-9.69,29.39-20.61,44.38-30.48,10-6.57,20.7-12,30.77-18.41C287.41,177.73,298.07,170.1,309.4,162.38Z"/><path class="cls-1" d="M5.71,109.82C16.64,100.33,26.19,90.71,37,82.88c30.46-22,61.71-42.79,94.61-61.07,9.55-5.3,18.36-12,27.4-18.17,3.34-2.3,5.74-2.24,9.24.33,8.83,6.48,18,12.5,27.35,18.27,36.67,22.74,71,48.61,103.93,76.45,4.82,4.07,10.09,7.59,15.06,11.49,3.35,2.63,3.25,5.56-.61,7.24-34,14.87-60.95,40.06-90.38,61.56-18.83,13.76-37.87,27-58.47,38-2.63,1.4-5.43,2.8-7.5,4.85-3.5,3.46-7.14,3.54-10.73,1-11.26-7.89-23.09-15.2-33.38-24.23-31.12-27.31-61.19-55.85-95.49-79.33C14,116.5,10.2,113.28,5.71,109.82Zm305.77,3.41c-5.53-4.36-11.49-8.82-17.19-13.59-32.05-26.8-65.27-52-100.87-74q-13.36-8.25-26.2-17.33c-2.76-2-4.5-2.21-7.38-.39-18.68,11.8-37.61,23.2-56.21,35.12C75.23,61.27,46.26,78.7,21.41,101.9c-2.87,2.67-6,5.1-8.78,7.49.31.91.33,1.35.55,1.51,2.83,2,5.69,4,8.53,6,29.61,20.81,57,44.29,83.38,69C117.44,197.48,130,209,145,217.31c4.37,2.42,8,4.08,12.28-.31,2-2.07,5.1-3,7.63-4.64,15.3-9.67,31-18.73,45.77-29.21C244,159.5,274.67,132.21,311.48,113.23Z"/></svg>