<svg id="Ebene_1" data-name="Ebene 1" xmlns="http://www.w3.org/2000/svg" viewBox="0 0 323.38 371.4"><defs><style>.cls-1{fill:#ff4002;}</style></defs><path class="cls-1" d="M309.68,162.38l-25.93-20.24c0-.57,0-1.15.05-1.72,1.52,0,3.53-.72,4.5,0,7.62,5.63,15.08,11.48,22.5,17.38,4.47,3.55,4.32,4.79-.27,8.27-7.29,5.52-14.54,11.09-21.45,16.37,8.35,7.87,17,15.79,25.34,24,3.71,3.64,3.33,4.89-1,7.59L294,226.16c2.84,2.37,5.23,4.29,7.53,6.31,5.49,4.82,11.12,9.51,16.37,14.59,4.13,4,3.75,6.1-1,8.93-42.4,25.33-81.51,55.21-119.67,86.41-9,7.38-18.05,14.75-27.16,22-7.54,6-9.71,6.1-17.64.53-18.77-13.19-37-27.27-56.33-39.55C69.59,308.57,42.19,293.13,15.23,277a64.83,64.83,0,0,1-10.46-7.6c-3.62-3.32-3.67-6.91-.27-10.51C12.17,250.79,20,242.87,28,235c.65-.64,2.2-.39,3.33-.56-.33,1.29-.26,3-1.05,3.81-6.29,6.65-12.61,13.3-19.2,19.66-6.21,6-6.46,7.64,1,12.12,21.76,13.15,43.59,26.21,65.6,38.94,26.27,15.19,50.93,32.67,75,51,8.56,6.52,8.92,6,17.48-.76,28.3-22.44,56.32-45.26,85.21-66.91,18.47-13.84,38.29-25.87,57.51-38.72.92-.62,1.82-1.28,3.56-2.51-5.19-4.78-10-9.26-14.9-13.66-1.23-1.11-2.74-1.89-4.07-2.89-7.56-5.72-7.54-5.69-15.9-.82A1413.91,1413.91,0,0,0,159.44,314c-13.1,9.57-13.53,9.44-25.81-1-21.3-18.12-42.15-36.83-64.25-53.92C51.15,245,32.7,231,11.88,220.53c-5.71-2.86-5.78-4.81-1.43-9.32,7.49-7.76,15-15.48,23.2-23.91-7-5.9-13.43-11.59-20.14-17-5.47-4.39-5.85-6.5-.83-11.06,6.29-5.71,12.64-11.35,19.11-16.84,1-.84,2.79-.74,4.21-1.08l.58,1.63L13,164.34c11.31,9.72,21.87,19.1,32.75,28.09,22.31,18.45,44.94,36.53,67.15,55.1,8.81,7.36,17,15.52,25.21,23.5,2.49,2.41,4.51,3,7.2.59,17-15.2,37.12-25.71,56.14-37.91,15.1-9.7,29.41-20.63,44.4-30.5,10-6.57,20.72-12,30.79-18.42C287.67,177.74,298.33,170.11,309.68,162.38Zm3.17,47.42c-8.92-8-17.05-15.28-25.28-22.48-2.27-2-4.49-1.29-7.17.08-21.85,11.19-41.51,25.7-61.45,39.84-23.71,16.82-50.51,29-72.48,48.49-3.21,2.86-6.72,2.39-10.17-.87-10.3-9.71-20.66-19.37-31.41-28.56-9.6-8.21-19.88-15.63-29.64-23.66C62,211.76,49,200.63,36.41,190c-8.34,8.67-16.36,17-24.6,25.58a29.44,29.44,0,0,0,2.9,2c21.7,10.89,40.94,25.6,59.92,40.37,22.57,17.56,43.91,36.73,65.6,55.42,4.08,3.51,7.57,4.34,11.8.84,1-.85,2.2-1.49,3.28-2.27,36.11-25.85,72.39-51.45,110.86-73.77,7.72-4.48,15-9.77,22.59-14.42S304.16,214.8,312.85,209.8Z"/><path class="cls-1" d="M5.85,109.85c10.84-9.41,20.39-19,31.25-26.87,30.48-22,61.74-42.82,94.66-61.1,9.7-5.39,18.68-12.1,27.85-18.42,3.32-2.29,5.58-1.79,8.8.54,8.47,6.14,17.22,12,26.12,17.45C232,44.59,267,71,300.53,99.41c4.55,3.87,9.6,7.15,14.32,10.83,3.38,2.63,3.33,5.69-.55,7.23-27.87,11.05-49.66,31.35-73.33,48.62-25.41,18.54-50,38.13-78.23,52.41a9.39,9.39,0,0,0-2.93,1.88c-5.38,6.4-11.23,4.56-16.63.52-12.64-9.43-25.74-18.42-37.36-29-28.07-25.58-56.43-50.73-87.64-72.49C14,116.52,10.16,113.21,5.85,109.85Zm5.72.74c1.41.71,2.06,1,2.62,1.33a686.09,686.09,0,0,1,83.48,67.31c13.59,12.91,28.91,24,43.55,35.77,6.13,4.94,12.54,7.35,19,.27a1.32,1.32,0,0,1,.42-.27c28.72-14.46,53.6-34.56,79.42-53.37,23-16.78,44.26-36.46,71.27-47.3.2-.08.26-.5.49-1-5.81-4.58-11.78-9.07-17.5-13.85-31.82-26.59-64.82-51.56-100.11-73.45-9.32-5.79-18.46-11.89-27.46-18.16-2.36-1.64-3.86-1.73-6.12-.2-9.66,6.49-19.06,13.47-29.19,19.12-32.32,18-63,38.63-92.89,60.27C29.27,93.75,21.23,102.08,11.57,110.59Z"/></svg>