<svg width="39" height="28" viewBox="0 0 39 28" fill="none" xmlns="http://www.w3.org/2000/svg">
<path d="M38.244 2.32999C38.2415 2.32999 38.2389 2.32999 38.2365 2.32999H35.6738V1.45249C35.6876 1.10517 35.4631 0.793034 35.1295 0.696017C33.3503 0.229464 31.5183 -0.00447402 29.679 6.47939e-05C26.6552 6.47939e-05 22.5352 0.680887 19.4887 3.78241C16.4648 0.650629 12.3146 6.47939e-05 9.29831 6.47939e-05C7.45906 -0.00447402 5.62699 0.229464 3.84784 0.696017C3.51427 0.793034 3.28975 1.10517 3.30355 1.45249V2.32243H0.75596C0.338481 2.32243 0 2.66113 0 3.0789V27.2405C0 27.6583 0.338481 27.997 0.75596 27.997C0.885797 27.9966 1.01337 27.9628 1.12638 27.8987C1.20198 27.8608 8.76158 23.7229 19.3148 26.3857H19.4282H19.4962C19.5565 26.393 19.6174 26.393 19.6777 26.3857C30.2611 23.7003 37.8207 27.8306 37.8661 27.8987C38.0999 28.0338 38.3881 28.0338 38.622 27.8987C38.8545 27.7644 38.9984 27.5167 39 27.2481V3.08646C39 2.6687 38.6616 2.32999 38.244 2.32999ZM1.51192 26.0377V3.84293H3.31867V22.8152C3.31394 23.2329 3.64855 23.5754 4.06603 23.5802C4.10685 23.5806 4.14767 23.5778 4.18802 23.5717C5.75191 23.3327 7.33083 23.2063 8.91277 23.1934C11.1041 23.1554 13.2863 23.4852 15.3687 24.1693C10.6661 23.6002 5.89621 24.2434 1.51192 26.0377ZM8.91277 21.688C7.53778 21.6912 6.16438 21.7796 4.80035 21.9528V2.0501C6.2722 1.72198 7.77524 1.55452 9.28319 1.55083C12.1105 1.55083 16.0112 2.20139 18.7176 5.25753L18.7403 24.1012C17.1679 23.0724 14.0987 21.688 8.91277 21.688ZM20.2522 5.25753C22.9585 2.23165 26.8593 1.55083 29.6866 1.55083C31.1944 1.55527 32.6975 1.72264 34.1694 2.0501V21.9528C32.813 21.778 31.4472 21.687 30.0797 21.6805C24.924 21.6805 21.8473 23.0648 20.2522 24.0936V5.25753ZM37.4805 26.0377C33.0869 24.2385 28.306 23.5952 23.5935 24.1693C25.6857 23.4828 27.8783 23.1529 30.0797 23.1934C31.6715 23.2023 33.2607 23.3262 34.8347 23.5641C35.2474 23.6268 35.6329 23.3427 35.6955 22.9297C35.7016 22.8893 35.7045 22.8485 35.704 22.8076V3.84293H37.5108L37.4805 26.0377Z" fill="#1E1E1E"/>
</svg>
