<svg width="30" height="30" viewBox="0 0 30 30" fill="none" xmlns="http://www.w3.org/2000/svg">
<circle cx="15" cy="15" r="14.25" stroke="#1E1E1E" stroke-width="1.5"/>
<path d="M20.25 15C20.25 19.0711 19.5886 22.7223 18.5463 25.3281C18.0243 26.633 17.4215 27.6387 16.7906 28.3059C16.1611 28.9715 15.5558 29.25 15 29.25C14.4442 29.25 13.8389 28.9715 13.2094 28.3059C12.5785 27.6387 11.9757 26.633 11.4537 25.3281C10.4114 22.7223 9.75 19.0711 9.75 15C9.75 10.9289 10.4114 7.27766 11.4537 4.67194C11.9757 3.367 12.5785 2.3613 13.2094 1.69411C13.8389 1.02849 14.4442 0.75 15 0.75C15.5558 0.75 16.1611 1.02849 16.7906 1.69411C17.4215 2.3613 18.0243 3.367 18.5463 4.67194C19.5886 7.27766 20.25 10.9289 20.25 15Z" stroke="#1E1E1E" stroke-width="1.5"/>
<line x1="1" y1="15.25" x2="29" y2="15.25" stroke="#1E1E1E" stroke-width="1.5"/>
</svg>
