<?xml version="1.0" standalone="no"?>
<!DOCTYPE svg PUBLIC "-//W3C//DTD SVG 20010904//EN"
 "http://www.w3.org/TR/2001/REC-SVG-20010904/DTD/svg10.dtd">
<svg version="1.0" xmlns="http://www.w3.org/2000/svg"
 width="301.000000pt" height="301.000000pt" viewBox="0 0 301.000000 301.000000"
 preserveAspectRatio="xMidYMid meet">
<metadata>
Created by potrace 1.14, written by Peter Selinger 2001-2017
</metadata>
<g transform="translate(0.000000,301.000000) scale(0.100000,-0.100000)"
fill="#000000" stroke="none">
<path d="M1668 3006 c-1 -2 -33 -6 -70 -10 -36 -3 -102 -13 -145 -22 -43 -8
-91 -18 -107 -20 -57 -11 -228 -65 -327 -104 -273 -109 -489 -248 -669 -430
-183 -186 -295 -391 -335 -617 -13 -78 -13 -294 0 -378 52 -317 252 -670 538
-948 401 -391 865 -548 1287 -437 379 99 716 408 937 860 90 183 148 352 183
525 5 28 12 61 14 74 14 65 21 183 20 341 -1 190 -20 310 -71 460 -78 228
-218 411 -407 530 -115 73 -272 131 -446 165 -35 7 -395 16 -402 11z"/>
</g>
</svg>
