<svg width="22" height="28" viewBox="0 0 22 28" fill="none" xmlns="http://www.w3.org/2000/svg">
<path d="M15.5127 7.0151C14.1891 5.74202 12.4505 5.08584 10.611 5.15314C7.08339 5.29335 4.20633 8.27697 4.19511 11.8102C4.1895 13.3749 4.73912 14.9004 5.743 16.1005C7.18994 17.8391 7.98632 20.032 7.98632 22.2809C7.98632 22.2809 7.8349 23.3128 8.56959 23.3128H13.1908C13.9423 23.3128 13.7741 22.2809 13.7741 22.2809C13.7741 20.0824 14.5817 17.9064 16.1128 15.9884C17.0606 14.7938 17.5653 13.3581 17.5653 11.8326C17.5653 9.99872 16.8362 8.28258 15.5127 7.0151ZM15.1986 15.2593C13.5329 17.3456 12.6412 19.7235 12.6076 22.1463H9.15285C9.1192 19.673 8.23309 17.2671 6.64033 15.3546C5.81591 14.362 5.36164 13.1057 5.36725 11.8158C5.37846 8.89949 7.75077 6.43744 10.6615 6.31967C12.1813 6.26359 13.6171 6.80759 14.7051 7.85635C15.7987 8.9051 16.3988 10.3184 16.3988 11.8326C16.3932 13.0945 15.9838 14.2779 15.1986 15.2593Z" fill="#F9FAFF"/>
<path d="M18.5747 3.18613C18.3448 2.95619 17.9746 2.95619 17.7503 3.18613L16.3258 4.61064C16.0958 4.84058 16.0958 5.21072 16.3258 5.43506C16.5557 5.65939 16.9259 5.665 17.1502 5.43506L18.5747 4.01055C18.8046 3.78622 18.8046 3.41607 18.5747 3.18613Z" fill="#F9FAFF"/>
<path d="M13.213 24.1094H8.54689C8.2216 24.1094 7.96362 24.373 7.96362 24.6926C7.96362 25.0179 8.22721 25.2759 8.54689 25.2759H13.213C13.5383 25.2759 13.7963 25.0123 13.7963 24.6926C13.7963 24.373 13.5327 24.1094 13.213 24.1094Z" fill="#F9FAFF"/>
<path d="M12.3326 26.3086H9.43312C9.10783 26.3086 8.84985 26.5722 8.84985 26.8919C8.84985 27.2171 9.11344 27.4751 9.43312 27.4751H12.3326C12.6579 27.4751 12.9159 27.2115 12.9159 26.8919C12.9159 26.5722 12.6523 26.3086 12.3326 26.3086Z" fill="#F9FAFF"/>
<path d="M10.8799 3.17991C11.2052 3.17991 11.4632 2.91632 11.4632 2.59664V0.583263C11.4632 0.257982 11.1996 0 10.8799 0C10.5602 0 10.2966 0.26359 10.2966 0.583263V2.59664C10.2966 2.92192 10.5546 3.17991 10.8799 3.17991Z" fill="#F9FAFF"/>
<path d="M5.43442 5.43896C5.66436 5.20902 5.66436 4.83887 5.43442 4.61454L4.00992 3.19003C3.77998 2.96009 3.40983 2.96009 3.1855 3.19003C2.96116 3.41997 2.95556 3.79012 3.1855 4.01445L4.61 5.43896C4.83994 5.66329 5.21009 5.66329 5.43442 5.43896Z" fill="#F9FAFF"/>
<path d="M21.177 10.2969H19.1636C18.8383 10.2969 18.5803 10.5605 18.5803 10.8801C18.5803 11.1998 18.8439 11.4634 19.1636 11.4634H21.177C21.5022 11.4634 21.7602 11.1998 21.7602 10.8801C21.7602 10.5605 21.4966 10.2969 21.177 10.2969Z" fill="#F9FAFF"/>
<path d="M2.59664 10.2969H0.583263C0.257982 10.2969 0 10.5605 0 10.8801C0 11.1998 0.26359 11.4634 0.583263 11.4634H2.59664C2.92193 11.4634 3.17991 11.1998 3.17991 10.8801C3.17991 10.5605 2.92193 10.2969 2.59664 10.2969Z" fill="#F9FAFF"/>
</svg>
