<svg id="Ebene_1" data-name="Ebene 1" xmlns="http://www.w3.org/2000/svg" viewBox="0 0 321.65 422.35"><defs><style>.cls-1{fill:#ff4002;}</style></defs><path class="cls-1" d="M2,210.47c1.41-1.44,2.75-2.95,4.25-4.29,4.71-4.24,11.12-12.12,8.82-18.56A44.62,44.62,0,0,0,12.46,182c-1.43-2.71-3.3-5.24-4.38-8.07-1.68-4.36,1.81-9.16,6.49-9.3a43.41,43.41,0,0,1,4.94.46A26.31,26.31,0,0,0,32.41,163a5.42,5.42,0,0,0,2.5-3.8,10.65,10.65,0,0,1,4.33-7.79c.53-.4,1.06-.8,1.56-1.24,4.65-4.07,4.56-9-.24-12.92-.71-.57-1.53-1-2.22-1.61-4.07-3.47-4-9,.92-11,5.49-2.26,8.29-5.78,9.91-11.34,1.14-3.93,2.48-7.65,2.43-11.83,0-2,.8-4,1.42-6,1-3,.86-3.82-1.82-5.34a6.7,6.7,0,0,1-3.61-7.51,40.56,40.56,0,0,1,1-4.63,11.92,11.92,0,0,1,10.08-9.15c4.82-.86,9.64-1.72,14.48-2.47a9.56,9.56,0,0,1,9.17,3.29c5.35,6,10.37,5.15,13.26-2.37,2-5.11,4.75-8.89,10.8-9.13,1.83-.07,2.73-1.36,2.54-3.3-.22-2.31-.3-4.64-.54-7a6,6,0,0,0-4-5,8.55,8.55,0,0,1-5.27-6.2c-.78-3.49.64-5.87,4-6.74.48-.13,1-.17,1.47-.28,4.19-.93,5-2.57,2.62-6.23-2.12-3.27-4.77-6.2-6.91-9.46a18.17,18.17,0,0,1-2.93-6.47c-.65-3.71,1.8-6.07,5.48-5.31,5.91,1.22,11.79,2.67,17.57,4.39,3.06.92,5.83,1.3,9,.3,9.24-2.95,17.45,3.05,17.7,12.76a25.22,25.22,0,0,1,0,2.75c-.15,1.86.73,2.57,2.51,3a16.81,16.81,0,0,1,4.9,2.28c4.19,2.67,8.54,4.86,13.64,4.87,2.22,0,4.44-.29,6.66-.45,1.16-.09,2.32-.29,3.47-.29a2.51,2.51,0,0,1,2.76,2.58c.47,5.75-.58,10.76-6.18,13.87-1.39.78-2.44,2.18-3.65,3.3l.56,1a21.71,21.71,0,0,0,4.61-.84c3.79-1.57,7.36-1.68,10.94.54,1.81,1.13,3.31.52,3.94-1.45,1.76-5.46,5.59-7.83,11.16-8.3,8.35-.71,13.78-5.59,17.28-12.92,3-6.32,3.67-6.64,10.6-4.92,3.38.84,6.73,1.82,10.1,2.7.74.2,1.52.25,2.77.45-.4-1.41-.68-2.32-.93-3.25A9.75,9.75,0,0,1,248,12.69c2.32-.88,4.23-.33,5.39,1.7a5.24,5.24,0,0,0,5.11,2.82,9.88,9.88,0,0,1,2.24.19c2.75.58,4,2.54,2.95,5.16-1.18,2.91-1.27,5.24.79,8,2.44,3.31,1.29,5.18-2.76,5.94a18.23,18.23,0,0,0-5.27,1.34c-1,.54-1.44,2.15-2.13,3.28,1.13.45,2.28,1.31,3.38,1.25a14.46,14.46,0,0,0,4.74-1.34,7.26,7.26,0,0,1,8.3,1.38c2.54,2.27,5.18,4.43,7.76,6.66,4.57,3.95,6.27,9.15,6.91,15a34.7,34.7,0,0,0,2.27,8.82c2.33,5.9,4.51,11.74,4.42,18.25a20.46,20.46,0,0,1-6,14.1c-4.55,4.85-4.49,5.49,1.38,8.27a28.8,28.8,0,0,1,10.32,7.66c4.09,5,4.81,10.41,1.76,16.23-1.69,3.23-1.65,3.25,1.22,5.51,5.72,4.51,7.66,10.74,5,17.55-1.78,4.52-1.57,8.31,2.07,11.82a5.76,5.76,0,0,1,1.23,6.48c-.78,2.15-.23,3.89,1.88,4.73,7,2.79,8.66,8.56,8.27,15.2-.3,5.3-1.18,10.56-1.81,15.84a8.33,8.33,0,0,1-5.54,7.08c-2.74,1.11-4.7.41-6.05-2.2a24.65,24.65,0,0,1-1.54-3.93,7.59,7.59,0,0,0-6.86-5.55,1.44,1.44,0,0,0-1.47,2.4,12.56,12.56,0,0,0,1.92,2.27c2.05,2,2,2.94-.64,4.24-7.05,3.53-14.15,7-21.22,10.49-5.66,2.79-11.4,5.44-16.92,8.49a22.49,22.49,0,0,0-6.22,5.24c-1.94,2.32-4.12,3.24-6.77,2.18a8.6,8.6,0,0,0-9.08,1.27c-1.22.9-3,1-4.34,1.77a8.15,8.15,0,0,0-2.55,2.64c-1.43,2.26-2.42,4.86-4.07,6.93-2,2.5-2,3.61.79,5.24a50.37,50.37,0,0,1,5.91,3.68c3.12,2.43,3.83,5.67,1.89,9.08-1.52,2.7-1.18,5,.43,7.43,2.56,3.89,4.79,8,7.56,11.74a13.41,13.41,0,0,0,5.33,4.11,23.32,23.32,0,0,1,9,6.52c1.75,2.08,3.67,4,5.59,6,2.62,2.66,5.21,5.38,8,7.82a27.47,27.47,0,0,0,6,3.87c5.7,2.74,9.55,6.88,10.58,13.23.92,5.64-2.48,9.66-8.18,9.63-3,0-5.15,1-6.24,3.91-2.44,6.39-7.13,10.65-12.89,14a39.7,39.7,0,0,0-7.15,5.33c-2.58,2.44-2.17,4.91.91,6.7a13.25,13.25,0,0,1,7.15,11.73c.1,2.36,1.14,4.66,1.6,7,.61,3.16.23,6.14-2.06,8.63-2.45,2.67-5,2.8-7.56.32-1.32-1.26-2.53-2.64-3.79-4a7.31,7.31,0,0,0-7.12-2.45c-2.45.39-5.06-.3-7.6-.42-.93,0-2.16-.23-2.74.26-4.45,3.75-9.81,4.79-15.3,5.32-6.1.58-11.31,2.55-15.57,7.29-4.6,5.1-13.68,5.31-19.15.78a20.19,20.19,0,0,0-11.86-4.58c-2.22-.16-3.14.78-3.68,2.75a40.88,40.88,0,0,1-2.32,6.82c-2.17,4.53-6.41,5.48-10.25,2.24a35,35,0,0,1-5.72-6.19c-2.28-3.17-5-5-9-4.73-1.91.13-3.84,0-5.73.28a18.1,18.1,0,0,1-13.2-3.29c-3.68-2.57-7.42-4.51-12.14-4.52-1.84,0-3.79-1.51-5.5-2.63-3.54-2.33-4.51-2.33-7.42.79a12.42,12.42,0,0,1-8.28,4.11c-6.37.53-12.74,1.12-19.12,1.5-10.75.65-14.6-7.36-13.52-15.83a146.49,146.49,0,0,1,10.83-39.25c2-4.76,5.93-8.73,9-13,1.07-1.47,2.51-2.68,3.54-4.18,2.24-3.28.88-6.9-3-7.63a47.47,47.47,0,0,0-8.18-.58,11.28,11.28,0,0,1-8.32-3.21,6.37,6.37,0,0,0-5-1.48,26,26,0,0,1-16.73-2.12c-2.26-1-4.64-1.79-7-2.69a10.4,10.4,0,0,1-5.64-5.35,51.05,51.05,0,0,0-4-6.88c-2.83-4-3.34-8-.95-12.37,1-1.74,1.92-3.49,2.92-5.22,1.88-3.24,1.45-5.25-1.68-7.39-1.64-1.12-3.42-2.08-4.94-3.34-4.68-3.87-5.75-8.95-2.86-14.28a78.36,78.36,0,0,1,4.94-7.19c2.62-3.75,2.55-4.88-.25-8.37C13.35,239,10.31,235,7.22,231.08a9.61,9.61,0,0,1-1.8-8.42c.36-1.77-.24-3.86-.83-5.67A32.69,32.69,0,0,0,2,212Zm292.13,6.23a31.67,31.67,0,0,1-2.18-3.93c-1.06-2.87.07-5.93,2.23-6.53,3.44-1,9.55,1.4,11.43,4.48,1.09,1.77,2.13,3.58,3,5.44.81,1.66,1.89,1.79,3.11.69.82-.74,1.87-1.7,2-2.66.73-6,1.53-12,1.7-18.08a9.12,9.12,0,0,0-6.24-9.29c-2.66-1-4.73-4.59-4-7.3.8-2.91-.17-5-2-7-2.74-3-3.18-6.46-2-10.23.55-1.74,1.22-3.45,1.64-5.22a10.67,10.67,0,0,0-4.43-11.32c-4.34-3-4.76-4.6-2.53-9.4a29.86,29.86,0,0,0,1.19-2.74c1-2.92.92-5.77-1-8.32-2.76-3.73-6-6.88-10.54-8.43a16.89,16.89,0,0,1-3.56-1.77c-3.25-2.07-4-5.12-1.84-8.33a59.25,59.25,0,0,1,4.7-5.8,13.34,13.34,0,0,0,3.3-7.89c.58-6.88-1.35-13.17-4.36-19.2A20.6,20.6,0,0,1,281.54,64a14.67,14.67,0,0,0-4.65-11.19c-2.16-2.06-4.64-3.82-6.68-6-2.52-2.67-5.08-3.5-8.31-1.37a7.92,7.92,0,0,1-2.32.89c-5.19,1.39-10-1.87-9.35-6.45.46-3.41,3-5,5.93-6.06,1.53-.53,3.12-.88,5.21-1.46-3.72-3.52-2.66-7.3-1.27-11.06-.65-.27-1-.57-1.4-.55a8.66,8.66,0,0,1-8.35-3.95c-.2-.31-1.61-.29-2,.07-2.82,2.5-3.42,4.25-2.12,7.9,1.79,5-.76,7.66-5.9,6.41-2.74-.67-5.45-1.47-8.16-2.25-7.84-2.28-6.73-2.47-10.15,4.26-3.88,7.63-10,11.84-18.38,12.78-4.4.5-7.4,2.24-9.07,6.53-1.6,4.08-4.8,5.18-8.71,3.1-2.93-1.56-5.53-1.3-8.57-.32a11.75,11.75,0,0,1-6.7,0c-3.29-1-3.94-4.44-1.55-7a37.3,37.3,0,0,1,4.78-4c1.94-1.47,3.37-3.17,3.51-5.73C177.4,37,176.82,36,175,36s-3.88-.52-5.71-.19c-4.81.89-9-.53-13.12-2.77-2.18-1.2-4.28-3-6.6-3.41-6-1-6.43-4.77-6.25-9.72.27-7.39-5.82-11.63-12.92-9.41a16.29,16.29,0,0,1-10.74-.31,102.42,102.42,0,0,0-10.68-3.35,58.86,58.86,0,0,0-7.53-.9c-.25,2.82.31,4,2.51,6.88,2.5,3.3,5.22,6.52,7.17,10.13,2.78,5.13,1.14,8.17-4.36,10-1.31.44-3,1.62-3.29,2.75-.39,1.7.88,3.1,2.77,3.88,4,1.61,5.72,4.85,6,9,.1,1.5.08,3,.26,4.48.7,6-.78,8.05-6.79,8.94a6.7,6.7,0,0,0-5.39,3.89,63.64,63.64,0,0,1-3.7,7c-3.47,5.14-9.24,5.9-14.06,2a14.55,14.55,0,0,1-2.18-2c-2.35-2.83-5.2-3.47-8.72-2.59A96.56,96.56,0,0,1,62.06,72c-7.35,1.06-9.39,3-10.7,10.26a4,4,0,0,0,2,4.63c4.35,2.74,4.74,4.49,3.31,9.39-.77,2.64-.83,5.48-1.31,8.21a65.76,65.76,0,0,1-1.49,7c-.64,2.22-1.72,4.3-2.4,6.51-1.3,4.29-3.88,7.27-8.19,8.67a11.83,11.83,0,0,0-1.63.61c-2.63,1.31-2.94,3.58-.74,5.52,1.12,1,2.3,1.92,3.43,2.9a9.9,9.9,0,0,1,3.6,8.38c-.21,4.26-2.5,7.32-5.72,9.78-2.25,1.72-3.61,3.67-3.54,6.7.09,3.3-1.35,4.95-4.59,6-5.68,1.78-11.41,2.78-17.42,2-4-.54-5.68,1.7-4.41,5.57a10.81,10.81,0,0,0,1.52,2.84c8.3,11.73,3.81,21.25-2.72,30.34a8,8,0,0,1-2.28,1.9c-3,1.94-3.21,2.29-1.14,5.39,1.9,2.84,2,5.82,1.76,9.06a8.35,8.35,0,0,0,1.09,5.07c2.86,4.18,6.06,8.13,9.2,12.11,3.6,4.58,3.77,7.37.48,12.18-1.63,2.4-3.46,4.68-5,7.15-2,3.13-1.73,5.71.76,8.41a16.34,16.34,0,0,0,4.06,3.21,15.39,15.39,0,0,1,7,8.73,4.49,4.49,0,0,1-.59,3.37c-1.41,2.28-3.21,4.32-4.69,6.56-1.82,2.77-1.31,5.46.49,8.13a55.79,55.79,0,0,1,4.17,7.07,8.36,8.36,0,0,0,5.39,4.77,38,38,0,0,1,6.83,2.28,17.49,17.49,0,0,0,12.76,1.74c3.46-.82,6.44.34,9.29,2.46A12.72,12.72,0,0,0,66,318.89c2.44.41,5,.1,7.44.45,8,1.13,11,8.26,6.13,14.71-1.84,2.44-4.31,4.4-6.18,6.83-2.16,2.8-4.53,5.66-5.79,8.88a171.66,171.66,0,0,0-6.5,20.13A137.61,137.61,0,0,0,57.5,389.7c-.62,6,2.5,9.56,7.62,10.07a27.7,27.7,0,0,0,5.23-.09c4.46-.41,8.91-1,13.38-1.35a12.54,12.54,0,0,0,8.62-3.83c3.89-4.08,7.07-4.13,11.64-.79,1.3,1,2.9,2.1,4.37,2.1,5.13,0,9.23,2.24,13.29,5a16.08,16.08,0,0,0,12.32,2.7c7.67-1.39,14,.41,17.87,7.89.77,1.46,2.36,2.54,3.72,3.61,2,1.58,3.59,1.3,4.62-1a40.78,40.78,0,0,0,2.17-6.6c.92-3.53,2.74-5.14,6.34-5,6,.2,11.48,1.74,15.9,6.1a4.22,4.22,0,0,0,2.28,1.37c4.58.34,9-.11,12.42-3.73a22.31,22.31,0,0,1,14-6.85c5.75-.7,11.52-1.41,16.35-5.31,1.09-.88,3.12-.83,4.71-.81,2.79.05,5.59.69,8.35.54a10.06,10.06,0,0,1,8.15,2.87c1.3,1.29,2.54,2.64,3.75,4,1.34,1.53,2.77,1.18,3.29-.39a14.57,14.57,0,0,0,.53-5.77c-.22-2.3-1.2-4.51-1.44-6.81-.38-3.62-2.16-6-5.16-8-5.9-3.9-6.19-9.42-.76-14a60.07,60.07,0,0,1,8.21-5.65c4.22-2.48,7.57-5.65,9.37-10.29s5-7.33,10.43-7.22c3.49.07,5.13-2.58,4.27-6a13.32,13.32,0,0,0-8.57-9.66,19.85,19.85,0,0,1-8.8-6.7,26.79,26.79,0,0,0-2.75-2.89c-3.74-3.66-7.44-7.36-11.28-10.92a13.24,13.24,0,0,0-4.3-2.78,16.71,16.71,0,0,1-9.1-7.7c-2-3.43-4.06-6.84-6.38-10-2.59-3.58-3.43-7.1-1-11.07a3.72,3.72,0,0,0-1.2-5.45c-1.7-1.18-3.58-2.08-5.38-3.11-4.31-2.46-4.93-6.27-1.95-10.23a38.76,38.76,0,0,0,4-6.79c1.14-2.43,2.65-4.08,5.4-4.63a11,11,0,0,0,4-1.78c3.1-2.2,6.36-2.84,9.87-1.34a3.47,3.47,0,0,0,4.42-1,33.57,33.57,0,0,1,11.13-7.84c7.26-3.28,14.48-6.68,21.67-10.11C286.83,220.55,290.46,218.58,294.13,216.7Z"/><path class="cls-1" d="M184.93,32.45a66.07,66.07,0,0,1-6.88-2c-3.2-1.28-3.82-3.34-2.34-6.59,1.41-3.08,4.4-4.5,7.06-3.11a37.45,37.45,0,0,1,5.35,3.57c1.73,1.34,1.51,3.21.81,5A4.39,4.39,0,0,1,184.93,32.45Zm.85-5.27c-1.84-1.08-3.26-2-4.8-2.73a2,2,0,0,0-1.71.51c-.26.24-.2,1.13,0,1.54C180.19,28,183.59,28.59,185.78,27.18Z"/></svg>