<svg id="Ebene_1" data-name="Ebene 1" xmlns="http://www.w3.org/2000/svg" viewBox="0 0 403.02 262.88"><defs><style>.cls-1{fill:#ff4002;}</style></defs><path class="cls-1" d="M200,260.57a45.49,45.49,0,0,1-16.8-9.89,20.61,20.61,0,0,1-4.55-5.78c-3-5.83-5.77-11.8-8.54-17.76a7.1,7.1,0,0,0-5.87-4.45,38.74,38.74,0,0,0-7,0c-2.17.16-3.46,1.67-4.56,3.48-1.75,2.87-4.25,4-7.45,3.1a5.22,5.22,0,0,1-3.25-2.31c-1.86-4.48-5.25-7.67-8.49-11-4.48-4.59-9-9.14-13.54-13.68a20.22,20.22,0,0,0-2.28-1.95c-3.31-2.5-3.68-2.49-6.58.59-3.78,4-8.56,4.45-13.61,3.9a46.14,46.14,0,0,1-18.71-6.51Q69,192.47,59.3,186.59c-3.88-2.36-7.93-3.82-12.56-3.11-3.39.52-5.72-1.21-7.63-3.77-4.78-6.4-9.61-12.78-14.34-19.23-1.45-2-3-3.4-5.63-3.62a3.89,3.89,0,0,1-3.74-3.75,45.48,45.48,0,0,0-6.28-18.77c-.55-1-.32-2.37-.35-3.58,0-1.57.44-3.29,0-4.69a94.14,94.14,0,0,0-4.26-10c-2.69-5.56-2.72-11.43-2.23-17.36.95-11.43,5.57-21.85,9-32.59C15.35,53.52,19.51,41,23.08,28.26c1.41-5.06,1.46-10.52,2-15.81.25-2.8,1.44-5.42,3.09-5.79,2-.46,4,1.09,5.25,4.08.65,1.53,1.13,3.14,1.9,4.61a28.51,28.51,0,0,0,2.35,3.28l.89-.08c.52-1.21,1.14-2.39,1.55-3.63,1.26-3.85,2.44-7.71,3.65-11.57.8-2.54,2.52-2.73,4.71-1.93,7,2.52,13.91,5.06,20.89,7.52A453.07,453.07,0,0,0,156.12,30.2a468.22,468.22,0,0,0,56.72,4.52,8.19,8.19,0,0,1,4.32,1.51A6.45,6.45,0,0,0,223,37.35c3-.87,5.82-.27,8.76.7,3.12,1,6.47,1.38,9.7,2.08a20.63,20.63,0,0,1,4.54,1.2c2.5,1.17,2.82,3,.87,5a18.56,18.56,0,0,1-4.05,2.85c-2.56,1.49-5.2,2.86-7.95,4.36,3.43,2.35,7.87,1.62,11.67-1.36a74.12,74.12,0,0,1,8.6-5.92c2.57-1.49,4-.56,4.52,2.37.56,3.44,2.59,4.73,6,3.75,4.48-1.28,8.91-2.7,13.41-3.86a18.89,18.89,0,0,1,5.21-.39,6.17,6.17,0,0,1,6.06,5.57,4,4,0,0,1-3.94,4.72c-6.67.23-12.1,3.95-17.95,6.41-1.19.5-2.13,2.56-2.43,4-1.15,5.87-2.11,11.79-2.93,17.71a12.7,12.7,0,0,0,4,11.78c1.25,1.13,2.21,1,3.07-.21a9.59,9.59,0,0,0,1.85-3.43c1.28-7.46,2.37-14.94,3.54-22.41a36.24,36.24,0,0,1,.82-4.15c1.84-6.56,8.66-9.35,14.44-5.75a5.23,5.23,0,0,1,2,3.42,42.76,42.76,0,0,1,.08,7c0,1.31.53,1.8,1.79,1.76a39.19,39.19,0,0,1,4.47,0c3.12.31,4.89,2.2,4.69,5.33-.25,4.06-.88,8.1-1.19,12.17-.17,2.28,0,4.58,0,6.87l.85.43A30.68,30.68,0,0,0,307.89,96c4.1-4.49,8.2-9,12-13.76,4.09-5.13,8.71-8.81,15.71-8.69,3,0,4.51-2.22,3.34-5.27-1.66-4.36.16-7.13,3.17-9.81a39.63,39.63,0,0,1,13.63-7.6,67,67,0,0,0,9.72-4.43C372,42.88,374,37.09,373,30c-.28-1.89-.58-3.79-.68-5.7-.21-4,1.75-5.9,5.77-5.57a18,18,0,0,1,10.78,4.15c3.91,3.48,7.62,7.2,11.19,11,2.22,2.38,1.92,5.42.86,8.26a7.34,7.34,0,0,1-6.82,5.06A6.62,6.62,0,0,0,387.91,51a13.22,13.22,0,0,1-1.84,2.35,8.64,8.64,0,0,0-2.16,7.17c.06.41,0,.84.13,1.24.44,2.11.28,4.8,1.55,6.13s3.93.95,5.93,1.55c1.11.33,2.73.92,3,1.71a4.5,4.5,0,0,1-1.11,3.47,52.87,52.87,0,0,1-5.64,5.66,11.81,11.81,0,0,1-7.59,3.31A13.35,13.35,0,0,0,368,91.51c-1.56,3.12-2.84,6.38-4.28,9.55a7.73,7.73,0,0,0,.93,8.24,18.32,18.32,0,0,1,3.11,11.35,5.15,5.15,0,0,1-.51,2.65c-.69,1-1.8,2.61-2.64,2.55a5,5,0,0,1-3.46-2.24c-1.61-2.8-2.73-5.88-4.13-8.8-.27-.58-.92-1-1.39-1.45a5,5,0,0,0-.46,1.93c.86,4.73,1.54,9.52,2.82,14.14a25.63,25.63,0,0,0,7.85,12c3.44,3.15,3.43,6.13,0,9.36a19.66,19.66,0,0,1-2.7,2.22,31.75,31.75,0,0,0-8.94,8.58,20.81,20.81,0,0,1-4.93,4.55,12.07,12.07,0,0,0-5,7.45c-.4,1.76-1.71,4-3.21,4.7-6.43,3-8.75,8.36-9.62,14.74-1.12,8.24.8,15.37,7.81,20.59a9.93,9.93,0,0,1,2.13,2.72c2.11,3.29,4.15,6.63,6.25,9.93a12.17,12.17,0,0,1,1.71,10c-1,3.93-1.69,7.94-2.45,11.93-.4,2.09-.73,4.15-3.11,5a5.81,5.81,0,0,1-6.2-1.54,70.66,70.66,0,0,1-14.49-19.29c-.8-1.55-.84-3.51-1.17-5.3-1.2-6.52-4.64-11.66-9.67-15.86-1.83-1.53-3.45-1.55-5.32,0-4.39,3.72-8.68,3.93-13.5.87-1.05-.67-2.11-1.33-3.19-2-2.76-1.64-5.21-1.42-7.73.78-4.45,3.89-5.72,3.67-9.34-1.21-1.63,1.37-3.3,2.67-4.83,4.12-1.26,1.18-.73,2.48-.13,3.88a17.77,17.77,0,0,1,1.54,5.17c.23,2.37-1.22,3.33-3.29,2.18a9,9,0,0,0-9-.28c-3.07,1.47-6.29.73-9.13-.87-4.44-2.5-9.17-2.91-14-2.24a9.57,9.57,0,0,0-4.39,2c-3.07,2.42-5.93,5.11-8.9,7.66a11.27,11.27,0,0,1-8.93,3.07c-1.74-.2-2.8.68-3.59,2.13-1.43,2.64-2.86,5.27-4.4,7.84A6.56,6.56,0,0,0,204,251c.57,1.2,1,2.45,1.51,3.69,1,2.5.49,4.55-2,5.92Zm78.41-50.88c.78-.66,1.56-1.25,2.26-1.92a8,8,0,0,1,9.45-1.59,33.38,33.38,0,0,1,4.57,2.53c4.23,2.79,6.64,2.71,10.59-.5,3.21-2.6,5-2.74,8.28-.36a28.79,28.79,0,0,1,12,20,12.91,12.91,0,0,0,2.15,5.42c3.25,4.64,6.7,9.14,10.23,13.56,1,1.25,2.59,2,4.47,3.45.72-2.59,1.3-4.38,1.71-6.2.56-2.51.77-5.12,1.54-7.55a9.71,9.71,0,0,0-1.47-9.19c-2.29-3.17-4.39-6.48-6.65-9.67a40.07,40.07,0,0,0-4.59-5.89,13.15,13.15,0,0,1-4.32-7.94,53.38,53.38,0,0,1-.34-11.64c.71-6.87,3.13-12.85,10-16.24,1.51-.75,2.82-3,3.19-4.72a11,11,0,0,1,4.47-6.92,26.83,26.83,0,0,0,4.21-3.49c3.8-4.32,7.57-8.6,12.48-11.79,2.65-1.72,2.75-3.4.5-5.51-6.69-6.26-9.68-14.22-10.78-23a36.34,36.34,0,0,1,0-8.72c.16-1.35,1.33-3.32,2.4-3.59s2.77,1.07,3.78,2.11a12.3,12.3,0,0,1,2,3.71c1,2.19,1.84,4.4,2.82,6.76,1.44-2.74.76-5.77-1.21-9.3a15,15,0,0,1-2.24-6.91,21.76,21.76,0,0,1,1.87-8.44c3.62-8.38,8.19-15.58,18.91-16,4.18-.18,6.55-4.21,9.25-7.23a12.38,12.38,0,0,0-3.07-.29c-3.85-.08-4.82-1-5.17-4.81a33.1,33.1,0,0,0-.66-4.43c-2.05-8.63,4.26-18.22,13-19.72a4.91,4.91,0,0,0,4-3.65c.59-1.91.5-3.78-1.2-5.26-3-2.64-5.79-5.57-9-7.92a34.54,34.54,0,0,0-8.12-4.14c-3-1.13-4-.2-3.77,3,.07.91.2,1.82.36,2.72,1.81,10.62-1,16.74-10.53,21.87a74.49,74.49,0,0,1-9.83,4.24,33.17,33.17,0,0,0-12.27,7.45,5.11,5.11,0,0,0-1.45,5.43c1.57,6-.83,9.07-7.08,9.77-3.84.44-7.49,1.52-10.2,4.63-4.22,4.82-8.4,9.7-12.81,14.35a34.2,34.2,0,0,1-7.06,5.82c-3.64,2.17-6,.73-5.88-3.58.16-5.22.94-10.43,1.16-15.66.07-1.47-.54-3.92-1.46-4.25-1.3-.48-3.18.53-4.78,1-.35.1-.52.71-.87.87-.94.42-2.11,1.21-2.86.94s-1.3-1.72-1.26-2.62c.16-3.32.57-6.63.93-9.93.29-2.68-.66-3.91-3.33-4.19-3.87-.41-7.09,2.45-7.74,7.15-.64,4.54-.8,9.14-1.6,13.64a70.57,70.57,0,0,1-3.44,13.69c-2.12,5.32-7,5.57-10.46,1A18.25,18.25,0,0,1,259.91,86c.84-6.34,1.79-12.67,2.72-19,.33-2.27,1.34-4.35,3.55-5.08,6.32-2.1,11.6-7.15,18.85-6.68A2.06,2.06,0,0,0,286.6,54a2,2,0,0,0-1-1.67c-1.64-.37-3.46-.89-5-.53a114.72,114.72,0,0,0-14.17,3.93c-4.14,1.52-7.14-1.55-10.76-2-.74-.09-1.25-2.16-2-3.51-1.73,1.61-3.33,3.31-5.15,4.73-1.47,1.13-3.11,2.44-4.83,2.73a40.6,40.6,0,0,1-8.89.2c-1.88-.11-3.59-1-3.92-3.2s.9-3.59,2.77-4.53c2.74-1.39,5.5-2.75,8.22-4.2a22.19,22.19,0,0,0,2.61-2c-1.25-.31-1.86-.48-2.49-.61-4.56-.89-9.1-1.84-13.68-2.61a14.58,14.58,0,0,0-4.93-.07,10.8,10.8,0,0,1-8.12-1.45A8.54,8.54,0,0,0,211.31,38c-11.55-.73-23.12-1.15-34.65-2a402.4,402.4,0,0,1-56.16-8.79A506.93,506.93,0,0,1,51.38,6.06c-4.72-1.78-5.71-1.22-6.91,3.7-.08.33-.09.66-.17,1-.63,2.75-.95,5.63-2,8.19a7.07,7.07,0,0,1-3.86,3.36c-2,.69-3.75-.7-4.72-2.48C32.5,17.64,31.61,15.3,30.57,13c-.31-.68-.68-1.33-1-2a10.63,10.63,0,0,0-1.12,4c-.61,4.53-.67,9.22-1.93,13.56C23,40.8,19.05,52.9,15.05,65,11.37,76.08,6.72,86.91,5.64,98.75,5,105.65,4.78,112.44,10.2,118a4.23,4.23,0,0,1,.62,2.8A6,6,0,0,0,13.06,126a2.79,2.79,0,0,1,.47,4.38c-1.41,1.62-1.19,3.05-.21,4.75,2.59,4.5,4.84,9.11,4.7,14.53a3.6,3.6,0,0,0,3.21,3.86,8.64,8.64,0,0,1,5.59,3.86C31,163.25,35.26,169,39.37,174.86a11.69,11.69,0,0,0,10.76,5.47,17.11,17.11,0,0,1,8.28,2c7.82,4.26,15.28,9.18,23.13,13.37A68.89,68.89,0,0,0,95.2,201c6,1.72,11.55.73,15.52-4.88a3.42,3.42,0,0,1,4.91-.86,40.73,40.73,0,0,1,6.48,4.62c5.3,4.94,10.54,10,15.55,15.19a53.18,53.18,0,0,1,6.43,8.54c1.82,2.91,4.25,3.39,5.84.41,1.82-3.41,4.53-4.44,8.08-4.78,9.79-.94,13,.81,16.93,9.73q3.31,7.41,6.73,14.77a6.17,6.17,0,0,0,1.59,2.48c4.43,3.21,8.88,6.43,13.51,9.34,1.54,1,3.64,1.07,6.07,1.72a40.15,40.15,0,0,0-1.57-3.92c-2.28-4.14-1.88-8.12.5-12.07a73.33,73.33,0,0,0,3.68-6.51c1.66-3.55,2.58-4.3,6.51-4a9.17,9.17,0,0,0,7.32-2.45c2.89-2.63,5.81-5.26,8.85-7.72a9.65,9.65,0,0,1,3.93-1.93,29.4,29.4,0,0,1,17.83,1.89,12.46,12.46,0,0,0,6,.93,73,73,0,0,0,9-2.16c-3.49-5.29.81-7.89,4.5-10.75.26-.2.54-.39.81-.58C275.2,204.39,275.45,204.44,278.4,209.69Z"/></svg>