<svg width="23" height="17" viewBox="0 0 23 17" fill="none" xmlns="http://www.w3.org/2000/svg">
<path d="M22.5542 1.37317C22.5527 1.37317 22.5512 1.37317 22.5497 1.37317H21.0384V0.856018C21.0465 0.65133 20.9141 0.467372 20.7174 0.410195C19.6681 0.135234 18.5877 -0.00263675 17.503 3.81861e-05C15.7197 3.81861e-05 13.29 0.401279 11.4933 2.22915C9.71002 0.383446 7.26245 3.81861e-05 5.48362 3.81861e-05C4.39893 -0.00263675 3.31848 0.135234 2.26924 0.410195C2.07252 0.467372 1.94011 0.65133 1.94825 0.856018V1.36871H0.445823C0.199617 1.36871 0 1.56833 0 1.81454V16.0541C0 16.3003 0.199617 16.4999 0.445823 16.4999C0.522393 16.4997 0.597625 16.4798 0.664276 16.442C0.708858 16.4197 5.16709 13.981 11.3908 15.5503H11.4576H11.4978C11.5333 15.5546 11.5692 15.5546 11.6048 15.5503C17.8463 13.9677 22.3045 16.4019 22.3313 16.442C22.4692 16.5216 22.6392 16.5216 22.7771 16.442C22.9142 16.3629 22.9991 16.2169 23 16.0586V1.819C23 1.57279 22.8004 1.37317 22.5542 1.37317ZM0.891646 15.3453V2.26482H1.95716V13.4461C1.95438 13.6923 2.15171 13.8941 2.39791 13.8969C2.42199 13.8972 2.44606 13.8955 2.46986 13.8919C3.39215 13.7511 4.32331 13.6765 5.25625 13.669C6.54858 13.6466 7.8355 13.8409 9.06358 14.2441C6.29028 13.9087 3.47725 14.2878 0.891646 15.3453ZM5.25625 12.7818C4.44536 12.7836 3.63541 12.8357 2.83098 12.9378V1.20822C3.69899 1.01484 4.5854 0.916148 5.4747 0.913975C7.14208 0.913975 9.44253 1.29738 11.0386 3.09851L11.0519 14.204C10.1246 13.5976 8.3146 12.7818 5.25625 12.7818ZM11.9436 3.09851C13.5396 1.31522 15.8401 0.913975 17.5075 0.913975C18.3967 0.916594 19.2831 1.01523 20.1512 1.20822V12.9378C19.3513 12.8348 18.5458 12.7812 17.7393 12.7773C14.6988 12.7773 12.8843 13.5932 11.9436 14.1995V3.09851ZM22.1039 15.3453C19.5128 14.2849 16.6933 13.9058 13.9141 14.2441C15.148 13.8395 16.4411 13.6451 17.7393 13.669C18.6781 13.6742 19.6153 13.7472 20.5435 13.8874C20.7869 13.9244 21.0142 13.757 21.0512 13.5135C21.0548 13.4897 21.0565 13.4657 21.0562 13.4416V2.26482H22.1217L22.1039 15.3453Z" fill="#F9FAFF"/>
</svg>
