<svg width="20" height="19" viewBox="0 0 20 19" fill="none" xmlns="http://www.w3.org/2000/svg">
<path d="M19.233 14.9983L18.1119 11.7356C18.6523 10.6309 18.9378 9.40238 18.9398 8.16623C18.9431 6.01683 18.1115 3.98453 16.5981 2.44372C15.0845 0.902616 13.0674 0.0350978 10.9185 0.00105462C8.69026 -0.0341573 6.59579 0.813417 5.02117 2.388C3.50284 3.9063 2.66069 5.90791 2.63404 8.04687C1.13757 9.17357 0.254292 10.9302 0.257195 12.8065C0.25859 13.6845 0.456214 14.5573 0.83069 15.3466L0.0584777 17.5938C-0.0742644 17.9801 0.0227003 18.3996 0.311559 18.6884C0.514838 18.8918 0.782848 19 1.05847 19C1.17444 19 1.29176 18.9808 1.40618 18.9415L3.65345 18.1693C4.4427 18.5438 5.3155 18.7414 6.19353 18.7428C6.1967 18.7428 6.19972 18.7428 6.20288 18.7428C8.10712 18.7427 9.87714 17.8367 10.9997 16.3035C12.1679 16.2728 13.3238 15.99 14.3687 15.4788L17.6315 16.5999C17.7674 16.6466 17.9068 16.6694 18.0446 16.6694C18.3721 16.6694 18.6906 16.5408 18.9323 16.2991C19.2755 15.9559 19.3907 15.4574 19.233 14.9983ZM6.20281 17.5939C6.20036 17.5939 6.19776 17.5939 6.1953 17.5939C5.41815 17.5927 4.6464 17.4011 3.96361 17.0399C3.82321 16.9656 3.65839 16.9528 3.50827 17.0043L1.20392 17.7962L1.99574 15.4919C2.04731 15.3417 2.03449 15.1769 1.96022 15.0365C1.59898 14.3537 1.40739 13.582 1.40618 12.8048C1.40426 11.5547 1.89055 10.3698 2.74096 9.48256C3.01873 11.1759 3.82578 12.7363 5.07674 13.965C6.31847 15.1847 7.87933 15.9612 9.56347 16.2151C8.6742 17.0916 7.47549 17.5939 6.20281 17.5939ZM18.1197 15.4867C18.0871 15.5194 18.0483 15.5283 18.0047 15.5133L14.5119 14.313C14.4512 14.2922 14.3881 14.2819 14.3252 14.2819C14.2325 14.2819 14.1402 14.3043 14.0566 14.3486C13.0593 14.8761 11.9324 15.1559 10.7975 15.1577C10.7938 15.1577 10.7904 15.1577 10.7867 15.1577C6.98411 15.1577 3.84319 12.0688 3.78295 8.26711C3.7526 6.35251 4.48089 4.55312 5.83361 3.2004C7.18633 1.84768 8.98602 1.11966 10.9004 1.14982C14.7057 1.21017 17.7967 4.35689 17.7908 8.16442C17.789 9.29926 17.5093 10.4262 16.9817 11.4234C16.9075 11.5638 16.8946 11.7286 16.9462 11.8788L18.1464 15.3716C18.1614 15.4154 18.1524 15.4541 18.1197 15.4867Z" fill="#F9FAFF"/>
</svg>
