<svg width="20" height="20" viewBox="0 0 20 20" fill="none" xmlns="http://www.w3.org/2000/svg">
<mask id="mask0" mask-type="alpha" maskUnits="userSpaceOnUse" x="0" y="0" width="20" height="20">
<path fill-rule="evenodd" clip-rule="evenodd" d="M0 0H19.0328V19.0305H0V0Z" fill="white"/>
</mask>
<g mask="url(#mask0)">
<path fill-rule="evenodd" clip-rule="evenodd" d="M9.51836 0C6.93385 0 6.60977 0.0109549 5.59475 0.0572675C4.58184 0.103467 3.89006 0.264352 3.28475 0.499617C2.65896 0.742777 2.12825 1.06817 1.59917 1.59722C1.07013 2.1263 0.74473 2.65701 0.50157 3.28279C0.266305 3.88811 0.10542 4.57989 0.0592206 5.59279C0.012908 6.60782 0.00195312 6.93189 0.00195312 9.51641C0.00195312 12.1009 0.012908 12.425 0.0592206 13.44C0.10542 14.4529 0.266305 15.1447 0.50157 15.75C0.74473 16.3758 1.07013 16.9065 1.59917 17.4356C2.12825 17.9646 2.65896 18.29 3.28475 18.5332C3.89006 18.7684 4.58184 18.9293 5.59475 18.9755C6.60977 19.0218 6.93385 19.0328 9.51836 19.0328C12.1028 19.0328 12.4269 19.0218 13.4419 18.9755C14.4548 18.9293 15.1466 18.7684 15.7519 18.5332C16.3777 18.29 16.9084 17.9646 17.4375 17.4356C17.9666 16.9065 18.292 16.3758 18.5352 15.75C18.7704 15.1447 18.9313 14.4529 18.9775 13.44C19.0238 12.425 19.0347 12.1009 19.0347 9.51641C19.0347 6.93189 19.0238 6.60782 18.9775 5.59279C18.9313 4.57989 18.7704 3.88811 18.5352 3.28279C18.292 2.65701 17.9666 2.1263 17.4375 1.59722C16.9084 1.06817 16.3777 0.742777 15.7519 0.499617C15.1466 0.264352 14.4548 0.103467 13.4419 0.0572675C12.4269 0.0109549 12.1028 0 9.51836 0ZM9.51805 1.71436C12.059 1.71436 12.36 1.72406 13.3635 1.76985C14.2913 1.81216 14.7952 1.96719 15.1305 2.09751C15.5747 2.27014 15.8917 2.47636 16.2247 2.80939C16.5578 3.14238 16.764 3.45939 16.9366 3.90359C17.0669 4.23892 17.222 4.74281 17.2643 5.67065C17.3101 6.67411 17.3198 6.9751 17.3198 9.5161C17.3198 12.0571 17.3101 12.3581 17.2643 13.3615C17.222 14.2894 17.0669 14.7932 16.9366 15.1286C16.764 15.5728 16.5578 15.8898 16.2247 16.2228C15.8917 16.5558 15.5747 16.762 15.1305 16.9347C14.7952 17.065 14.2913 17.22 13.3635 17.2623C12.3602 17.3081 12.0592 17.3178 9.51805 17.3178C6.97687 17.3178 6.67595 17.3081 5.6726 17.2623C4.74476 17.22 4.24087 17.065 3.90554 16.9347C3.46134 16.762 3.14433 16.5558 2.81134 16.2228C2.47835 15.8898 2.2721 15.5728 2.09946 15.1286C1.96914 14.7932 1.81411 14.2894 1.7718 13.3615C1.72602 12.3581 1.71631 12.0571 1.71631 9.5161C1.71631 6.9751 1.72602 6.67411 1.7718 5.67065C1.81411 4.74281 1.96914 4.23892 2.09946 3.90359C2.2721 3.45939 2.47831 3.14238 2.81134 2.80939C3.14433 2.47636 3.46134 2.27014 3.90554 2.09751C4.24087 1.96719 4.74476 1.81216 5.6726 1.76985C6.67606 1.72406 6.97706 1.71436 9.51805 1.71436Z" fill="white"/>
</g>
<path fill-rule="evenodd" clip-rule="evenodd" d="M9.94512 13.0303C8.23873 13.0303 6.85547 11.6471 6.85547 9.94072C6.85547 8.23434 8.23873 6.85107 9.94512 6.85107C11.6515 6.85107 13.0347 8.23434 13.0347 9.94072C13.0347 11.6471 11.6515 13.0303 9.94512 13.0303ZM9.94722 5.18359C7.31847 5.18359 5.1875 7.31457 5.1875 9.94331C5.1875 12.572 7.31847 14.703 9.94722 14.703C12.5759 14.703 14.7069 12.572 14.7069 9.94331C14.7069 7.31457 12.5759 5.18359 9.94722 5.18359Z" fill="white"/>
<path fill-rule="evenodd" clip-rule="evenodd" d="M15.5755 4.32049C15.5755 4.79844 15.1881 5.18588 14.7101 5.18588C14.2322 5.18588 13.8447 4.79844 13.8447 4.32049C13.8447 3.84254 14.2322 3.45508 14.7101 3.45508C15.1881 3.45508 15.5755 3.84254 15.5755 4.32049Z" fill="white"/>
</svg>
