<?xml version="1.0" encoding="utf-8"?>
<!-- Generator: Adobe Illustrator 24.3.0, SVG Export Plug-In . SVG Version: 6.00 Build 0)  -->
<svg version="1.1" id="Capa_1" xmlns="http://www.w3.org/2000/svg" xmlns:xlink="http://www.w3.org/1999/xlink" x="0px" y="0px"
	 viewBox="0 0 512 512" style="enable-background:new 0 0 512 512;" xml:space="preserve">
<style type="text/css">
	.st0{fill:#F9FAFF;}
</style>
<g>
	<g>
		<path class="st0" d="M256,0C114.8,0,0,114.8,0,256c0,49.2,13.8,96.5,39.9,137.2L1.2,490c-2.4,6-1,12.7,3.6,17.3
			c3,3,7.1,4.7,11.3,4.7c2,0,4-0.4,6-1.2l96.8-38.8c40.7,26.1,88,39.9,137.2,39.9c141.2,0,256-114.8,256-256S397.2,0,256,0z
			 M256,480c-45.6,0-89.3-13.5-126.3-39.1c-2.7-1.9-5.9-2.8-9.1-2.8c-2,0-4,0.4-6,1.2l-70,28l28-70c2-5,1.3-10.7-1.7-15
			C45.5,345.3,32,301.6,32,256C32,132.5,132.5,32,256,32s224,100.5,224,224S379.5,480,256,480z"/>
	</g>
</g>
</svg>
