<svg width="19" height="15" viewBox="0 0 19 15" fill="none" xmlns="http://www.w3.org/2000/svg">
<path d="M5.97512 15C13.145 15 17.0666 9.2286 17.0666 4.22367C17.0666 4.05974 17.0666 3.89656 17.0552 3.73411C17.8181 3.19796 18.4766 2.5341 19 1.77363C18.2885 2.07993 17.5338 2.28079 16.761 2.36953C17.5748 1.8962 18.1839 1.15173 18.4748 0.274665C17.7096 0.715831 16.8725 1.02674 15.9995 1.19398C14.7912 -0.054374 12.8711 -0.359914 11.3161 0.448693C9.76097 1.2573 8.95757 2.97896 9.35636 4.64826C6.22204 4.49559 3.3018 3.05723 1.3224 0.691127C0.287753 2.42169 0.816231 4.6356 2.52928 5.74701C1.90892 5.72914 1.30209 5.56655 0.76 5.27295C0.76 5.28846 0.76 5.3047 0.76 5.32095C0.760508 7.12384 2.06853 8.67667 3.8874 9.03366C3.3135 9.18573 2.71136 9.20796 2.12724 9.09864C2.63792 10.6415 4.1014 11.6984 5.76916 11.7289C4.3888 12.7829 2.68361 13.3551 0.92796 13.3533C0.617807 13.3528 0.307955 13.3345 0 13.2987C1.78268 14.4102 3.85693 14.9998 5.97512 14.997" fill="white"/>
</svg>
