<svg xmlns="http://www.w3.org/2000/svg" viewBox="0 0 222.78 244.94"><defs><style>.cls-1{fill:none;stroke:#000;stroke-miterlimit:10;}</style></defs><path class="cls-1" d="M91.79.55l0,.33a88.21,88.21,0,0,0-23,3A90.57,90.57,0,0,0,21,35.1C5.54,54.31-1.39,76.24.94,101a88.89,88.89,0,0,0,8.15,29.32,135.64,135.64,0,0,0,18.47,28.58,315.81,315.81,0,0,0,31.88,33,378.15,378.15,0,0,0,32.19,26.37,198.56,198.56,0,0,0,27.5,17.07c9,4.56,18.34,8,28.49,8.93a40.62,40.62,0,0,0,19.61-3c7.92-3.32,14.21-8.75,19.64-15.27,8-9.63,13.73-20.63,18.58-32.1a234.11,234.11,0,0,0,12.68-39.49c3.27-14.55,5.24-29.2,3.5-44.17a87.31,87.31,0,0,0-5.69-22.52,106.44,106.44,0,0,0-15.71-26.57A175,175,0,0,0,153,20.12C139,11.6,124.16,4.76,107.67,2.37,102.4,1.6,97.08,1.15,91.79.55Z"/></svg>
