<svg xmlns="http://www.w3.org/2000/svg" viewBox="0 0 532.53 533.28"><defs><style>.cls-1{fill:none;stroke:#000;stroke-miterlimit:10;}</style></defs><path class="cls-1" d="M532,212.87c.55-32.75-5.54-67.71-16.94-96.18C495.3,67.35,460.51,33.19,410.6,14.82A234.65,234.65,0,0,0,332,.54a379.75,379.75,0,0,0-96.4,10.8A403.86,403.86,0,0,0,133,51.71c-34.22,19.3-64.9,43-89.39,74C14.11,163.16-.95,205.54.61,253.44c1,31.65,9.15,61.63,22.2,90.32,18,39.59,43.28,74.05,74.21,104.5,25,24.66,52.83,45.49,84.49,61,32.18,15.74,66.05,24.35,102,23.49a190.45,190.45,0,0,0,81.28-20.31c38.46-19.16,68.84-47.72,94.07-82,33-44.84,54.67-94.79,66-149.26A335.8,335.8,0,0,0,532,212.87Z"/></svg>
