<svg xmlns="http://www.w3.org/2000/svg" viewBox="0 0 339.72 302.01"><defs><style>.cls-1{fill:none;stroke:#000;stroke-miterlimit:10;}</style></defs><g id="Ebene_2" data-name="Ebene 2"><g id="Ebene_1-2" data-name="Ebene 1"><path class="cls-1" d="M203.62,300.13a164.93,164.93,0,0,0,29-6.5c34.9-11.32,63.42-31.3,84-62,11.44-17.06,18.26-35.94,21.26-56.17a140.29,140.29,0,0,0,.73-32.39A137.61,137.61,0,0,0,329,103.4,148.19,148.19,0,0,0,308.5,67.84a164.7,164.7,0,0,0-36.48-35C243.61,13,212.45,1,177.42.55,172.61.49,167.78.42,163,.73a150.93,150.93,0,0,0-60.08,17C77.12,31.05,55.57,49.51,37.29,71.89,24,88.2,13.17,106,6.47,126.1c-6.83,20.48-8.17,41.18-2.08,62.07,4.44,15.25,12.24,28.72,22.35,40.92,13.69,16.5,30.23,29.63,48.45,40.67A223.71,223.71,0,0,0,141,296.82,177.81,177.81,0,0,0,203.62,300.13Z"/><path class="cls-1" d="M203.62,300.13A177.81,177.81,0,0,1,141,296.82a223.71,223.71,0,0,1-65.77-27.06c-18.22-11-34.76-24.17-48.45-40.67-10.11-12.2-17.91-25.67-22.35-40.92C-1.7,167.28-.36,146.58,6.47,126.1,13.17,106,24,88.2,37.29,71.89,55.57,49.51,77.12,31.05,102.9,17.75A150.93,150.93,0,0,1,163,.73c4.8-.31,9.63-.24,14.44-.18C212.45,1,243.61,13,272,32.82a164.7,164.7,0,0,1,36.48,35A148.19,148.19,0,0,1,329,103.4a137.61,137.61,0,0,1,9.61,39.69,140.29,140.29,0,0,1-.73,32.39c-3,20.23-9.82,39.11-21.26,56.17-20.6,30.68-49.12,50.66-84,62A164.93,164.93,0,0,1,203.62,300.13Z"/></g></g></svg>