<svg xmlns="http://www.w3.org/2000/svg" viewBox="0 0 532.53 533.28"><defs><style>.cls-1{fill:none;stroke:#000;stroke-miterlimit:10;}</style></defs><g id="Ebene_2" data-name="Ebene 2"><g id="Ebene_1-2" data-name="Ebene 1"><path class="cls-1" d="M532,212.87c.55-32.75-5.54-67.71-16.94-96.18C495.3,67.35,460.51,33.19,410.6,14.82A234.65,234.65,0,0,0,332,.54a379.75,379.75,0,0,0-96.4,10.8A403.86,403.86,0,0,0,133,51.71c-34.22,19.3-64.9,43-89.39,74C14.11,163.16-.95,205.54.61,253.44c1,31.65,9.15,61.63,22.2,90.32,18,39.59,43.28,74.05,74.21,104.5,25,24.66,52.83,45.49,84.49,61,32.18,15.74,66.05,24.35,102,23.49a190.45,190.45,0,0,0,81.28-20.31c38.46-19.16,68.84-47.72,94.07-82,33-44.84,54.67-94.79,66-149.26A335.8,335.8,0,0,0,532,212.87Z"/><path class="cls-1" d="M532,212.87a335.8,335.8,0,0,1-7.18,68.29c-11.29,54.47-33,104.42-66,149.26-25.23,34.27-55.61,62.83-94.07,82a190.45,190.45,0,0,1-81.28,20.31c-35.95.86-69.82-7.75-102-23.49-31.66-15.48-59.44-36.31-84.49-61-30.93-30.45-56.21-64.91-74.21-104.5-13-28.69-21.17-58.67-22.2-90.32-1.56-47.9,13.5-90.28,43-127.72,24.49-31,55.17-54.71,89.39-74A403.86,403.86,0,0,1,235.57,11.34,379.75,379.75,0,0,1,332,.54,234.65,234.65,0,0,1,410.6,14.82c49.91,18.37,84.7,52.53,104.46,101.87C526.46,145.16,532.55,180.12,532,212.87Z"/></g></g></svg>