<svg xmlns="http://www.w3.org/2000/svg" viewBox="0 0 227.39 232.2"><defs><style>.cls-1{fill:none;stroke:#000;stroke-miterlimit:10;}</style></defs><path class="cls-1" d="M.73,109.63c.63,5.14,1.13,10.31,1.9,15.44A177.46,177.46,0,0,0,17,173.82c5.56,12,12.6,22.91,22,32.26a84.68,84.68,0,0,0,33.54,20.67c19.52,6.46,39.22,6.36,58.92,1.1,28.22-7.53,50.11-24.24,67.42-47.34a146.22,146.22,0,0,0,20.3-37.8,126.88,126.88,0,0,0,7-29,91.39,91.39,0,0,0-1-27.86A81.94,81.94,0,0,0,210.6,52.48a105.6,105.6,0,0,0-25.54-24.59C160.65,11.1,133.85,1.37,104,.55,86,.05,68.85,3.33,52.64,11.23,33.15,20.74,18.69,35.27,9.69,55,1.79,72.4-.25,90.75.73,109.63Z"/></svg>
