<svg xmlns="http://www.w3.org/2000/svg" viewBox="0 0 451.29 401.16"><defs><style>.cls-1{fill:none;stroke:#000;stroke-miterlimit:10;}</style></defs><g id="Ebene_2" data-name="Ebene 2"><g id="Ebene_1-2" data-name="Ebene 1"><path class="cls-1" d="M270.53,398.82a218.93,218.93,0,0,0,38.54-8.63c46.39-15.05,84.31-41.61,111.69-82.41C436,285.11,445,260,449,233.12a186.72,186.72,0,0,0,1-43.06,183.37,183.37,0,0,0-12.77-52.76A197.81,197.81,0,0,0,410,90a219.12,219.12,0,0,0-48.51-46.56C323.69,17.12,282.27,1.2,235.69.57,229.3.49,222.88.4,216.5.81c-28.22,1.82-54.78,9.67-79.87,22.62-34.27,17.69-62.93,42.22-87.22,72-17.71,21.69-32.06,45.35-41,72.07C-.64,194.7-2.42,222.22,5.67,250c5.9,20.28,16.28,38.19,29.72,54.4,18.19,21.94,40.18,39.4,64.4,54.08a297.93,297.93,0,0,0,87.43,36A236.37,236.37,0,0,0,270.53,398.82Z"/><path class="cls-1" d="M270.53,398.82a236.37,236.37,0,0,1-83.31-4.39,297.93,297.93,0,0,1-87.43-36c-24.22-14.68-46.21-32.14-64.4-54.08C22,288.17,11.57,270.26,5.67,250c-8.09-27.76-6.31-55.28,2.77-82.51,8.91-26.72,23.26-50.38,41-72.07,24.29-29.75,53-54.28,87.22-72C161.72,10.48,188.28,2.63,216.5.81,222.88.4,229.3.49,235.69.57c46.58.63,88,16.55,125.76,42.89A219.12,219.12,0,0,1,410,90a197.81,197.81,0,0,1,27.27,47.28A183.37,183.37,0,0,1,450,190.06a186.72,186.72,0,0,1-1,43.06c-4,26.89-13,52-28.26,74.66-27.38,40.8-65.3,67.36-111.69,82.41A218.93,218.93,0,0,1,270.53,398.82Z"/></g></g></svg>