<svg xmlns="http://www.w3.org/2000/svg" viewBox="0 0 199.04 220.64"><defs><style>.cls-1{fill:none;stroke:#000;stroke-miterlimit:10;}</style></defs><g id="Ebene_2" data-name="Ebene 2"><g id="Ebene_1-2" data-name="Ebene 1"><path class="cls-1" d="M198.52,114.87c-.32,15.46-3.11,30.43-9.57,44.53-12.95,28.23-33.84,47.69-63.79,56.85a90.39,90.39,0,0,1-31,3.78,95.58,95.58,0,0,1-59.36-23.51A97.18,97.18,0,0,1,9.71,81.35c7-15,17.07-27.72,29.15-38.91a179.87,179.87,0,0,1,48.3-32.12C97.71,5.55,108.62,1.9,120.23.8A95.4,95.4,0,0,1,130.66.53c16.9.26,29.75,8.34,40.06,21.11,6.58,8.13,11.28,17.34,15.17,27a181.43,181.43,0,0,1,10.92,40.82A153.29,153.29,0,0,1,198.52,114.87Z"/></g></g></svg>