<svg xmlns="http://www.w3.org/2000/svg" viewBox="0 0 172 181.76"><defs><style>.cls-1{opacity:0.7;}.cls-2{fill:none;stroke:#000;stroke-miterlimit:10;}</style></defs><g id="Ebene_2" data-name="Ebene 2"><g id="Ebene_1-2" data-name="Ebene 1"><g class="cls-1"><path class="cls-2" d="M.5,96.43c.4-6.56.67-13.13,1.23-19.67A189.84,189.84,0,0,1,7.5,43.45c2.36-8.8,5.39-17.32,10.4-25C22,12.16,27.11,7.06,34,3.92A34.84,34.84,0,0,1,51,.57c2.88.2,5.79.2,8.65.58,10.3,1.35,20,4.74,29.42,9a184.18,184.18,0,0,1,52.35,35.11,102.59,102.59,0,0,1,22,29.87,82.75,82.75,0,0,1,7.76,28.63,80.74,80.74,0,0,1-.64,18.83,70.54,70.54,0,0,1-8.67,25.24c-8.28,14.25-20.63,23.35-36.15,28.37a111.34,111.34,0,0,1-31.33,5,136.59,136.59,0,0,1-32.59-2.77,81.75,81.75,0,0,1-27.57-10.94c-15-9.7-24.43-23.55-29.44-40.53C1.89,117,.86,106.78.5,96.43Z"/><path class="cls-2" d="M.5,96.43C.86,106.78,1.89,117,4.83,127c5,17,14.4,30.83,29.44,40.53a81.75,81.75,0,0,0,27.57,10.94,136.59,136.59,0,0,0,32.59,2.77,111.34,111.34,0,0,0,31.33-5c15.52-5,27.87-14.12,36.15-28.37a70.54,70.54,0,0,0,8.67-25.24,80.74,80.74,0,0,0,.64-18.83,82.75,82.75,0,0,0-7.76-28.63,102.59,102.59,0,0,0-22-29.87A184.18,184.18,0,0,0,89.1,10.17C79.7,5.89,70,2.5,59.68,1.15,56.82.77,53.91.77,51,.57A34.84,34.84,0,0,0,34,3.92c-6.89,3.14-12,8.24-16.1,14.51-5,7.7-8,16.22-10.4,25A189.84,189.84,0,0,0,1.73,76.76C1.17,83.3.9,89.87.5,96.43Z"/></g></g></g></svg>