<svg xmlns="http://www.w3.org/2000/svg" viewBox="0 0 307.14 305.36"><defs><style>.cls-1{fill:none;stroke:#000;stroke-miterlimit:10;}</style></defs><path class="cls-1" d="M306.64,172.37c-.61-6.11-1.05-13.34-2.11-20.48-2.47-16.6-7.74-32.39-14.73-47.59-13-28.3-29.55-54.23-51.89-76.12C227.28,17.76,215.75,8.44,201,4.19a98.64,98.64,0,0,0-12.7-3.07c-13-1.9-25.32.75-37.28,5.65s-23,11.72-33.47,19.34C91,45.48,66.91,67.6,44.29,91.39c-11.71,12.31-22.64,25.28-31.33,40C7,141.51,2.57,152.24,1,164S1.42,187.1,6,198c6,14.34,15.28,26.39,26,37.42a252.11,252.11,0,0,0,48.88,38.71c16,9.91,32.85,18.18,50.89,23.81,19,5.92,38.35,8.35,58.18,6.05,20.29-2.35,39.19-8.88,56.14-20.29C285.09,257.42,305,220.47,306.64,172.37Z"/></svg>
