<svg xmlns="http://www.w3.org/2000/svg" viewBox="0 0 632.53 633.27"><defs><style>.cls-1{fill:none;stroke:#000;stroke-miterlimit:10;}</style></defs><path class="cls-1" d="M.51,384.3c.36,44.23,7.88,87,27.24,127.09,28.35,58.7,73.52,97.53,137,114,38,9.85,76.24,9.12,114.54,2a369.81,369.81,0,0,0,90.88-29.84q114.07-54,191.43-153.85c31.88-41.25,55.64-86.58,65.72-138.34,8.37-43,5.78-85.18-9.44-126.38-16.17-43.78-43.41-79.68-79.37-108.95C497,36.24,450,14.24,396.82,5.31c-41.31-6.94-82.28-6.67-123,2.75C196.15,26,134.73,68.8,86.56,131.39c-34.22,44.46-57.94,94.18-72.33,148.39C5.14,314,.22,348.81.51,384.3Z"/></svg>
