<svg xmlns="http://www.w3.org/2000/svg" viewBox="0 0 370.44 378.28"><defs><style>.cls-1{fill:none;stroke:#000;stroke-miterlimit:10;}</style></defs><path class="cls-1" d="M.87,178.58c1,8.4,1.86,16.83,3.11,25.19a289.34,289.34,0,0,0,23.51,79.56C36.56,302.85,48.06,320.71,63.4,336a138.11,138.11,0,0,0,54.74,33.73c31.85,10.54,64,10.38,96.15,1.8,46-12.3,81.77-39.55,110-77.26a238.23,238.23,0,0,0,33.12-61.68A206.86,206.86,0,0,0,368.9,185.2a149.09,149.09,0,0,0-1.58-45.45,133.69,133.69,0,0,0-24-54.43A172.45,172.45,0,0,0,301.68,45.2C261.84,17.8,218.11,1.92,169.44.58,140.07-.23,112,5.12,85.59,18,53.77,33.53,30.19,57.24,15.5,89.5,2.6,117.83-.73,147.78.87,178.58Z"/></svg>
