<svg xmlns="http://www.w3.org/2000/svg" viewBox="0 0 479.13 506.43"><defs><style>.cls-1{fill:none;stroke:#000;stroke-miterlimit:10;}</style></defs><g id="Ebene_2" data-name="Ebene 2"><g id="Ebene_1-2" data-name="Ebene 1"><path class="cls-1" d="M.5,268.72c1.12-18.34,1.87-36.7,3.44-55a532,532,0,0,1,16.12-93.14C26.67,96,35.16,72.17,49.14,50.64c11.39-17.53,25.78-31.79,45-40.58C109.26,3.16,125.07-.42,141.79.7c8.06.55,16.18.56,24.17,1.61,28.81,3.79,56,13.27,82.28,25.22,54.18,24.62,103.44,56.74,146.37,98.17,25.22,24.34,46.45,51.69,61.55,83.54a231.46,231.46,0,0,1,21.69,80,226.28,226.28,0,0,1-1.79,52.65c-3.74,25-11.51,48.67-24.23,70.58-23.15,39.86-57.69,65.28-101.08,79.34-28.47,9.23-57.81,13.05-87.61,13.91-30.68.88-61.09-1.31-91.13-7.75-27.41-5.87-53.43-15.32-77.09-30.58-42.06-27.13-68.3-65.84-82.31-113.33C4.4,326.26,1.51,297.68.5,268.72Z"/><path class="cls-1" d="M.5,268.72c1,29,3.9,57.54,12.11,85.37,14,47.49,40.25,86.2,82.31,113.33C118.58,482.68,144.6,492.13,172,498c30,6.44,60.45,8.63,91.13,7.75,29.8-.86,59.14-4.68,87.61-13.91,43.39-14.06,77.93-39.48,101.08-79.34,12.72-21.91,20.49-45.55,24.23-70.58a226.28,226.28,0,0,0,1.79-52.65,231.46,231.46,0,0,0-21.69-80c-15.1-31.85-36.33-59.2-61.55-83.54-42.93-41.43-92.19-73.55-146.37-98.17C222,15.58,194.77,6.1,166,2.31c-8-1-16.11-1.06-24.17-1.61-16.72-1.12-32.53,2.46-47.64,9.36-19.23,8.79-33.62,23-45,40.58C35.16,72.17,26.67,96,20.06,120.58A532,532,0,0,0,3.94,213.72C2.37,232,1.62,250.38.5,268.72Z"/></g></g></svg>