<svg xmlns="http://www.w3.org/2000/svg" viewBox="0 0 284.89 285.23"><defs><style>.cls-1{fill:none;stroke:#000;stroke-miterlimit:10;}</style></defs><g id="Ebene_2" data-name="Ebene 2"><g id="Ebene_1-2" data-name="Ebene 1"><path class="cls-1" d="M.51,173c.16,19.88,3.54,39.11,12.24,57.13C25.49,256.55,45.8,274,74.34,281.41c17.06,4.43,34.27,4.1,51.49.91a166.41,166.41,0,0,0,40.85-13.42,233.63,233.63,0,0,0,86-69.16c14.34-18.54,25-38.92,29.55-62.19,3.76-19.33,2.6-38.29-4.25-56.81-7.27-19.68-19.51-35.82-35.68-49A134.8,134.8,0,0,0,178.66,2.66,140.17,140.17,0,0,0,123.34,3.9c-34.89,8-62.5,27.3-84.15,55.44A186.78,186.78,0,0,0,6.67,126.05,176.59,176.59,0,0,0,.51,173Z"/><path class="cls-1" d="M.51,173a176.59,176.59,0,0,1,6.16-47A186.78,186.78,0,0,1,39.19,59.34C60.84,31.2,88.45,12,123.34,3.9a140.17,140.17,0,0,1,55.32-1.24,134.8,134.8,0,0,1,63.69,29.11c16.17,13.15,28.41,29.29,35.68,49,6.85,18.52,8,37.48,4.25,56.81-4.53,23.27-15.21,43.65-29.55,62.19a233.63,233.63,0,0,1-86,69.16,166.41,166.41,0,0,1-40.85,13.42c-17.22,3.19-34.43,3.52-51.49-.91C45.8,274,25.49,256.55,12.75,230.16,4.05,212.14.67,192.91.51,173Z"/></g></g></svg>