<svg xmlns="http://www.w3.org/2000/svg" viewBox="0 0 451.29 401.16"><defs><style>.cls-1{fill:none;stroke:#000;stroke-miterlimit:10;}</style></defs><path class="cls-1" d="M270.53,398.82a218.93,218.93,0,0,0,38.54-8.63c46.39-15.05,84.31-41.61,111.69-82.41C436,285.11,445,260,449,233.12a186.72,186.72,0,0,0,1-43.06,183.37,183.37,0,0,0-12.77-52.76A197.81,197.81,0,0,0,410,90a219.12,219.12,0,0,0-48.51-46.56C323.69,17.12,282.27,1.2,235.69.57,229.3.49,222.88.4,216.5.81c-28.22,1.82-54.78,9.67-79.87,22.62-34.27,17.69-62.93,42.22-87.22,72-17.71,21.69-32.06,45.35-41,72.07C-.64,194.7-2.42,222.22,5.67,250c5.9,20.28,16.28,38.19,29.72,54.4,18.19,21.94,40.18,39.4,64.4,54.08a297.93,297.93,0,0,0,87.43,36A236.37,236.37,0,0,0,270.53,398.82Z"/></svg>
