<svg xmlns="http://www.w3.org/2000/svg" viewBox="0 0 198.38 198.66"><defs><style>.cls-1{fill:none;stroke:#000;stroke-miterlimit:10;}</style></defs><path class="cls-1" d="M197.87,79.36a94.93,94.93,0,0,0-6.29-35.71c-7.33-18.32-20.25-31-38.79-37.83A87,87,0,0,0,123.59.51a141.39,141.39,0,0,0-35.8,4,149.53,149.53,0,0,0-38.07,15C37,26.68,25.61,35.47,16.52,47,5.56,60.9,0,76.64.54,94.43A87.42,87.42,0,0,0,8.78,128a129.8,129.8,0,0,0,27.56,38.81,119.71,119.71,0,0,0,31.38,22.64c12,5.84,24.52,9,37.88,8.72a70.75,70.75,0,0,0,30.18-7.54c14.28-7.12,25.56-17.72,34.93-30.45a140.33,140.33,0,0,0,24.5-55.43A124.47,124.47,0,0,0,197.87,79.36Z"/></svg>
