<svg xmlns="http://www.w3.org/2000/svg" viewBox="0 0 479.13 506.43"><defs><style>.cls-1{fill:none;stroke:#000;stroke-miterlimit:10;}</style></defs><path class="cls-1" d="M.5,268.72c1.12-18.34,1.87-36.7,3.44-55a532,532,0,0,1,16.12-93.14C26.67,96,35.16,72.17,49.14,50.64c11.39-17.53,25.78-31.79,45-40.58C109.26,3.16,125.07-.42,141.79.7c8.06.55,16.18.56,24.17,1.61,28.81,3.79,56,13.27,82.28,25.22,54.18,24.62,103.44,56.74,146.37,98.17,25.22,24.34,46.45,51.69,61.55,83.54a231.46,231.46,0,0,1,21.69,80,226.28,226.28,0,0,1-1.79,52.65c-3.74,25-11.51,48.67-24.23,70.58-23.15,39.86-57.69,65.28-101.08,79.34-28.47,9.23-57.81,13.05-87.61,13.91-30.68.88-61.09-1.31-91.13-7.75-27.41-5.87-53.43-15.32-77.09-30.58-42.06-27.13-68.3-65.84-82.31-113.33C4.4,326.26,1.51,297.68.5,268.72Z"/></svg>
