<svg xmlns="http://www.w3.org/2000/svg" viewBox="0 0 412.83 353.05"><defs><style>.cls-1{opacity:0.8;}.cls-2{fill:none;stroke:#000;}</style></defs><path class="cls-2" d="M229.91,352.52c31.38.25,74-6.5,104.06-16.6,16.14-5.43,31.58-12.32,45.27-22.67,14.72-11.12,25.34-25.1,30.22-43.1,4.23-15.59,3.36-31.25.18-46.83-4.25-20.75-12.17-40.2-22-58.86-24-45.39-54.33-85.76-94.22-118.4C267,24.44,237.55,8.83,203.35,3.23,184.53.15,165.78-.55,146.92,2.3,105.06,8.64,69.46,27.05,41,58.43,15,87.06,1,120.72.51,159.73a153.21,153.21,0,0,0,10.36,56.92c11.89,31.12,31.51,56.75,56.52,78.41a235.59,235.59,0,0,0,62.51,39,227.77,227.77,0,0,0,46.64,14.08A267.5,267.5,0,0,0,229.91,352.52Z"/></svg>
