<svg xmlns="http://www.w3.org/2000/svg" viewBox="0 0 307.14 305.36"><defs><style>.cls-1{fill:none;stroke:#000;stroke-miterlimit:10;}</style></defs><g id="Ebene_2" data-name="Ebene 2"><g id="Ebene_1-2" data-name="Ebene 1"><path class="cls-1" d="M306.64,172.37c-.61-6.11-1.05-13.34-2.11-20.48-2.47-16.6-7.74-32.39-14.73-47.59-13-28.3-29.55-54.23-51.89-76.12C227.28,17.76,215.75,8.44,201,4.19a98.64,98.64,0,0,0-12.7-3.07c-13-1.9-25.32.75-37.28,5.65s-23,11.72-33.47,19.34C91,45.48,66.91,67.6,44.29,91.39c-11.71,12.31-22.64,25.28-31.33,40C7,141.51,2.57,152.24,1,164S1.42,187.1,6,198c6,14.34,15.28,26.39,26,37.42a252.11,252.11,0,0,0,48.88,38.71c16,9.91,32.85,18.18,50.89,23.81,19,5.92,38.35,8.35,58.18,6.05,20.29-2.35,39.19-8.88,56.14-20.29C285.09,257.42,305,220.47,306.64,172.37Z"/><path class="cls-1" d="M306.64,172.37c-1.69,48.1-21.55,85.05-60.59,111.34-17,11.41-35.85,17.94-56.14,20.29-19.83,2.3-39.19-.13-58.18-6.05-18-5.63-34.85-13.9-50.89-23.81A252.11,252.11,0,0,1,32,235.43c-10.71-11-20-23.08-26-37.42C1.42,187.1-.52,175.78,1,164S7,141.51,13,131.37c8.69-14.7,19.62-27.67,31.33-40C66.91,67.6,91,45.48,117.59,26.11,128.05,18.49,139,11.69,151.06,6.77s24.32-7.55,37.28-5.65A98.64,98.64,0,0,1,201,4.19c14.71,4.25,26.24,13.57,36.87,24C260.25,50.07,276.8,76,289.8,104.3c7,15.2,12.26,31,14.73,47.59C305.59,159,306,166.26,306.64,172.37Z"/></g></g></svg>