<svg xmlns="http://www.w3.org/2000/svg" viewBox="0 0 632.53 633.27"><defs><style>.cls-1{fill:none;stroke:#000;stroke-miterlimit:10;}</style></defs><g id="Ebene_2" data-name="Ebene 2"><g id="Ebene_1-2" data-name="Ebene 1"><path class="cls-1" d="M.51,384.3c.36,44.23,7.88,87,27.24,127.09,28.35,58.7,73.52,97.53,137,114,38,9.85,76.24,9.12,114.54,2a369.81,369.81,0,0,0,90.88-29.84q114.07-54,191.43-153.85c31.88-41.25,55.64-86.58,65.72-138.34,8.37-43,5.78-85.18-9.44-126.38-16.17-43.78-43.41-79.68-79.37-108.95C497,36.24,450,14.24,396.82,5.31c-41.31-6.94-82.28-6.67-123,2.75C196.15,26,134.73,68.8,86.56,131.39c-34.22,44.46-57.94,94.18-72.33,148.39C5.14,314,.22,348.81.51,384.3Z"/><path class="cls-1" d="M.51,384.3C.22,348.81,5.14,314,14.23,279.78c14.39-54.21,38.11-103.93,72.33-148.39C134.73,68.8,196.15,26,273.77,8.06c40.77-9.42,81.74-9.69,123.05-2.75C450,14.24,497,36.24,538.51,70.05c36,29.27,63.2,65.17,79.37,109,15.22,41.2,17.81,83.37,9.44,126.38-10.08,51.76-33.84,97.09-65.72,138.34q-77.18,99.82-191.43,153.85a369.81,369.81,0,0,1-90.88,29.84c-38.3,7.11-76.58,7.84-114.54-2-63.48-16.48-108.65-55.31-137-114C8.39,471.29.87,428.53.51,384.3Z"/></g></g></svg>