<svg xmlns="http://www.w3.org/2000/svg" viewBox="0 0 198.38 198.66"><defs><style>.cls-1{fill:none;stroke:#000;stroke-miterlimit:10;}</style></defs><g id="Ebene_2" data-name="Ebene 2"><g id="Ebene_1-2" data-name="Ebene 1"><path class="cls-1" d="M197.87,79.36a94.93,94.93,0,0,0-6.29-35.71c-7.33-18.32-20.25-31-38.79-37.83A87,87,0,0,0,123.59.51a141.39,141.39,0,0,0-35.8,4,149.53,149.53,0,0,0-38.07,15C37,26.68,25.61,35.47,16.52,47,5.56,60.9,0,76.64.54,94.43A87.42,87.42,0,0,0,8.78,128a129.8,129.8,0,0,0,27.56,38.81,119.71,119.71,0,0,0,31.38,22.64c12,5.84,24.52,9,37.88,8.72a70.75,70.75,0,0,0,30.18-7.54c14.28-7.12,25.56-17.72,34.93-30.45a140.33,140.33,0,0,0,24.5-55.43A124.47,124.47,0,0,0,197.87,79.36Z"/><path class="cls-1" d="M197.87,79.36a124.47,124.47,0,0,1-2.66,25.36,140.33,140.33,0,0,1-24.5,55.43c-9.37,12.73-20.65,23.33-34.93,30.45a70.75,70.75,0,0,1-30.18,7.54c-13.36.32-25.93-2.88-37.88-8.72a119.71,119.71,0,0,1-31.38-22.64A129.8,129.8,0,0,1,8.78,128,87.42,87.42,0,0,1,.54,94.43C0,76.64,5.56,60.9,16.52,47,25.61,35.47,37,26.68,49.72,19.52a149.53,149.53,0,0,1,38.07-15,141.39,141.39,0,0,1,35.8-4,87,87,0,0,1,29.2,5.31c18.54,6.82,31.46,19.51,38.79,37.83A94.93,94.93,0,0,1,197.87,79.36Z"/></g></g></svg>