<svg xmlns="http://www.w3.org/2000/svg" viewBox="0 0 425.63 426.22"><defs><style>.cls-1{fill:none;stroke:#000;stroke-miterlimit:10;}</style></defs><g id="Ebene_2" data-name="Ebene 2"><g id="Ebene_1-2" data-name="Ebene 1"><path class="cls-1" d="M425.1,170.16c.44-26.17-4.42-54.09-13.53-76.83C395.79,53.91,368,26.62,328.12,11.94A187.66,187.66,0,0,0,265.3.53a303.14,303.14,0,0,0-77,8.63,323,323,0,0,0-81.92,32.25C79,56.83,54.53,75.73,35,100.54,11.38,130.44-.66,164.3.59,202.57c.82,25.28,7.31,49.23,17.73,72.15,14.39,31.63,34.58,59.16,59.29,83.48,20,19.7,42.2,36.34,67.49,48.71,25.72,12.57,52.77,19.45,81.49,18.77a152.41,152.41,0,0,0,64.94-16.22c30.71-15.31,55-38.13,75.15-65.51,26.36-35.82,43.67-75.73,52.69-119.24A268.7,268.7,0,0,0,425.1,170.16Z"/><path class="cls-1" d="M425.1,170.16a268.7,268.7,0,0,1-5.73,54.55c-9,43.51-26.33,83.42-52.69,119.24-20.16,27.38-44.44,50.2-75.15,65.51a152.41,152.41,0,0,1-64.94,16.22c-28.72.68-55.77-6.2-81.49-18.77-25.29-12.37-47.48-29-67.49-48.71-24.71-24.32-44.9-51.85-59.29-83.48C7.9,251.8,1.41,227.85.59,202.57-.66,164.3,11.38,130.44,35,100.54,54.53,75.73,79,56.83,106.37,41.41A323,323,0,0,1,188.29,9.16a303.14,303.14,0,0,1,77-8.63,187.66,187.66,0,0,1,62.82,11.41c39.87,14.68,67.67,42,83.45,81.39C420.68,116.07,425.54,144,425.1,170.16Z"/></g></g></svg>