<svg xmlns="http://www.w3.org/2000/svg" viewBox="0 0 264.2 328.75"><defs><style>.cls-1{fill:none;stroke:#000;stroke-miterlimit:10;}</style></defs><path class="cls-1" d="M263.67,160.34A187.46,187.46,0,0,0,260.19,122a273.48,273.48,0,0,0-12.84-45.5c-5.94-15.75-12.89-31-23-44.59C211.75,15,196.18,2.75,174.2,1,170.85.72,167.48.47,164.12.5,150,.64,136.59,4.2,123.53,9.23A222.35,222.35,0,0,0,69,40.2C51.82,53.28,36.54,68.26,24.45,86.28,6.52,113-2.08,142.2,1.18,174.53a138.34,138.34,0,0,0,11.49,42.25C21.58,236.9,34,254.69,48.68,271A219.84,219.84,0,0,0,85.5,304c16,11.22,32.89,20.24,52.51,23.33a70.37,70.37,0,0,0,23.08-.12c13.64-2.35,25.35-8.76,35.76-17.7,11.43-9.82,20.49-21.61,28.52-34.25a274.61,274.61,0,0,0,25.52-51.78C258.46,203.14,263.4,182.21,263.67,160.34Z"/></svg>
