<svg xmlns="http://www.w3.org/2000/svg" viewBox="0 0 225.57 202.19"><defs><style>.cls-1{fill:none;stroke:#000;stroke-miterlimit:10;}</style></defs><g id="Ebene_2" data-name="Ebene 2"><g id="Ebene_1-2" data-name="Ebene 1"><path class="cls-1" d="M153.9,7.62c-6-1.61-11.13-3.26-16.43-4.4-26-5.59-51.16-2.65-74.79,9.57C30.23,29.57,10.06,56.14,2.81,92c-5.4,26.65-1.28,52.11,11.88,76,5.94,10.77,13.54,20.17,24,27,9.68,6.35,20.11,8.43,31.37,5.29,7.64-2.12,14.43-6,20.84-10.54A303.43,303.43,0,0,1,125,168.47a229.88,229.88,0,0,1,31.83-14c8.81-3,17.77-5.59,26.71-8.16,6.42-1.84,13-3.2,19.1-6,9-4.13,15.84-10.39,19.45-19.81,2.76-7.18,3.32-14.65,2.79-22.23a92.44,92.44,0,0,0-11.34-37.57C203.49,42,189.72,26.85,171.07,16.45,165.26,13.2,159.24,10.35,153.9,7.62Z"/><path class="cls-1" d="M153.9,7.62c5.34,2.73,11.36,5.58,17.17,8.83,18.65,10.4,32.42,25.59,42.48,44.24a92.44,92.44,0,0,1,11.34,37.57c.53,7.58,0,15-2.79,22.23-3.61,9.42-10.4,15.68-19.45,19.81-6.13,2.79-12.68,4.15-19.1,6-8.94,2.57-17.9,5.14-26.71,8.16a229.88,229.88,0,0,0-31.83,14,303.43,303.43,0,0,0-34.15,21.24c-6.41,4.52-13.2,8.42-20.84,10.54-11.26,3.14-21.69,1.06-31.37-5.29-10.42-6.84-18-16.24-24-27C1.53,144.1-2.59,118.64,2.81,92c7.25-35.85,27.42-62.42,59.87-79.2C86.31.57,111.44-2.37,137.47,3.22,142.77,4.36,148,6,153.9,7.62Z"/></g></g></svg>