<svg xmlns="http://www.w3.org/2000/svg" viewBox="0 0 222.78 244.94"><defs><style>.cls-1{fill:none;stroke:#000;stroke-miterlimit:10;}</style></defs><g id="Ebene_2" data-name="Ebene 2"><g id="Ebene_1-2" data-name="Ebene 1"><path class="cls-1" d="M91.79.55l0,.33a88.21,88.21,0,0,0-23,3A90.57,90.57,0,0,0,21,35.1C5.54,54.31-1.39,76.24.94,101a88.89,88.89,0,0,0,8.15,29.32,135.64,135.64,0,0,0,18.47,28.58,315.81,315.81,0,0,0,31.88,33,378.15,378.15,0,0,0,32.19,26.37,198.56,198.56,0,0,0,27.5,17.07c9,4.56,18.34,8,28.49,8.93a40.62,40.62,0,0,0,19.61-3c7.92-3.32,14.21-8.75,19.64-15.27,8-9.63,13.73-20.63,18.58-32.1a234.11,234.11,0,0,0,12.68-39.49c3.27-14.55,5.24-29.2,3.5-44.17a87.31,87.31,0,0,0-5.69-22.52,106.44,106.44,0,0,0-15.71-26.57A175,175,0,0,0,153,20.12C139,11.6,124.16,4.76,107.67,2.37,102.4,1.6,97.08,1.15,91.79.55Z"/><path class="cls-1" d="M91.79.55c5.29.6,10.61,1.05,15.88,1.82C124.16,4.76,139,11.6,153,20.12a175,175,0,0,1,47.2,41.06,106.44,106.44,0,0,1,15.71,26.57,87.31,87.31,0,0,1,5.69,22.52c1.74,15-.23,29.62-3.5,44.17a234.11,234.11,0,0,1-12.68,39.49c-4.85,11.47-10.56,22.47-18.58,32.1-5.43,6.52-11.72,11.95-19.64,15.27a40.62,40.62,0,0,1-19.61,3c-10.15-.9-19.47-4.37-28.49-8.93a198.56,198.56,0,0,1-27.5-17.07,378.15,378.15,0,0,1-32.19-26.37,315.81,315.81,0,0,1-31.88-33A135.64,135.64,0,0,1,9.09,130.27,88.89,88.89,0,0,1,.94,101C-1.39,76.24,5.54,54.31,21,35.1A90.57,90.57,0,0,1,68.72,3.91a88.21,88.21,0,0,1,23-3Z"/></g></g></svg>